<?xml version="1.0" standalone="no"?>
<!DOCTYPE svg PUBLIC "-//W3C//DTD SVG 20010904//EN"
 "http://www.w3.org/TR/2001/REC-SVG-20010904/DTD/svg10.dtd">
<svg version="1.0" xmlns="http://www.w3.org/2000/svg"
 width="379.000000pt" height="379.000000pt" viewBox="0 0 379.000000 379.000000"
 preserveAspectRatio="xMidYMid meet">
<metadata>
Created by potrace 1.11, written by Peter Selinger 2001-2013
</metadata>
<g transform="translate(0.000000,379.000000) scale(0.100000,-0.100000)"
fill="#000000" stroke="none">
<path d="M1220 2879 c-36 -3 -81 -13 -100 -21 -47 -20 -98 -72 -117 -119 -8
-22 -17 -39 -20 -39 -4 0 -49 25 -178 97 -127 72 -165 85 -230 81 -101 -7
-170 -52 -208 -138 -19 -42 -20 -66 -20 -320 0 -190 -3 -279 -11 -289 -8 -11
-8 -13 2 -7 17 10 17 -55 0 -73 -10 -11 -10 -13 -1 -7 17 10 17 -55 1 -73 -10
-11 -10 -13 0 -7 16 10 16 -55 0 -73 -7 -8 -8 -11 -2 -8 8 4 11 -97 11 -348 0
-256 -3 -355 -11 -355 -6 0 -4 -5 4 -10 13 -8 13 -13 2 -31 -8 -11 -9 -18 -3
-15 6 4 9 -6 7 -29 -1 -20 1 -38 5 -41 4 -2 6 -13 4 -24 -2 -11 0 -20 6 -20 5
0 9 -6 9 -14 0 -8 7 -22 16 -30 8 -9 13 -16 9 -16 -4 0 0 -7 9 -15 8 -8 17
-15 21 -15 4 0 13 -6 20 -13 28 -24 40 -32 53 -33 6 -1 21 -2 33 -2 13 -1 18
-6 13 -14 -6 -10 -4 -10 8 0 14 11 18 10 27 -5 10 -17 10 -17 11 2 0 17 2 17
10 5 5 -8 10 -10 10 -3 0 6 11 10 25 8 14 -1 25 2 25 8 0 6 3 7 6 4 4 -3 16 0
28 8 11 8 28 15 38 15 10 0 18 5 18 10 0 12 49 34 69 31 7 -1 10 2 7 7 -5 8
43 36 58 33 3 0 20 13 38 29 17 16 34 27 37 25 2 -3 10 0 16 5 10 8 16 3 23
-20 6 -16 8 -30 5 -30 -3 0 4 -9 16 -19 14 -12 20 -25 15 -32 -4 -7 -3 -10 2
-7 11 7 35 -17 26 -27 -4 -4 -2 -5 3 -4 16 5 56 -12 50 -21 -3 -4 5 -6 17 -2
16 4 19 2 13 -8 -6 -9 -4 -11 5 -5 8 5 19 1 28 -11 10 -13 13 -14 9 -3 -3 11
1 15 17 15 11 -1 24 -5 28 -11 5 -6 8 -5 8 3 0 6 5 12 11 12 5 0 7 -6 3 -12
-6 -10 -4 -10 7 -2 24 18 51 25 44 11 -4 -6 -1 -5 7 4 13 16 47 31 60 26 4 -1
14 7 23 18 9 11 14 13 10 5 -6 -13 -5 -13 7 0 17 21 108 73 108 63 0 -4 5 0
11 10 5 9 15 17 20 17 6 0 8 -4 4 -9 -3 -5 0 -13 6 -17 8 -4 9 -3 5 4 -8 14
31 55 44 47 6 -4 10 0 11 7 0 7 4 4 9 -7 4 -11 14 -33 21 -50 7 -16 12 -33 11
-38 -1 -4 4 -6 10 -5 7 2 12 -5 12 -14 -1 -10 4 -14 12 -11 8 3 14 0 14 -6 0
-6 7 -11 15 -11 8 0 15 -5 15 -12 0 -6 3 -9 6 -5 4 3 21 0 38 -7 17 -7 37 -11
45 -8 7 2 17 -2 22 -9 5 -8 9 -9 9 -3 0 12 41 11 61 -2 7 -4 10 -3 6 3 -6 9
60 44 89 47 6 0 18 9 28 19 10 9 21 15 26 12 4 -3 11 2 14 11 4 10 14 14 26
11 11 -3 18 0 17 6 -1 6 8 13 21 15 12 2 20 8 17 13 -8 13 19 11 32 -2 8 -8
13 -7 18 2 5 7 4 10 -3 5 -6 -3 -13 -2 -17 3 -3 6 8 17 24 25 23 12 31 13 34
3 3 -7 6 -5 6 5 1 24 41 45 52 27 6 -10 9 -8 9 9 0 13 4 21 9 18 5 -4 11 0 14
6 3 10 10 10 28 -1 22 -13 23 -13 10 3 -13 15 -12 18 7 23 12 3 22 9 22 13 0
4 7 11 16 14 10 4 13 2 8 -7 -4 -6 5 -1 20 13 23 21 29 22 37 10 9 -13 9 -13
7 0 -2 9 1 16 6 17 5 1 12 5 15 10 7 9 66 43 76 43 3 0 3 -5 -1 -12 -4 -7 -3
-8 5 -4 6 4 9 12 6 17 -4 5 2 12 12 16 10 3 27 13 37 22 11 9 17 11 13 5 -3
-6 0 -11 7 -11 9 0 12 7 8 16 -5 14 -4 14 11 2 15 -12 17 -12 10 4 -5 15 -3
17 11 12 9 -4 15 -3 12 1 -3 4 4 14 16 21 16 10 19 10 12 -1 -6 -10 -5 -11 8
-1 8 7 18 10 22 6 4 -4 4 1 0 11 -5 13 -4 17 4 12 6 -3 14 -1 17 5 4 5 14 8
22 5 8 -3 12 -2 9 3 -7 11 22 23 36 14 7 -3 8 -1 4 5 -4 6 6 18 23 27 36 18
45 19 35 3 -4 -7 -3 -8 5 -4 6 4 9 11 6 16 -3 5 4 14 15 20 11 6 20 7 20 3 0
-4 5 0 11 10 6 9 15 15 20 12 5 -4 6 -12 3 -18 -4 -7 -3 -8 2 -4 5 5 9 12 9
16 0 22 65 60 66 38 0 -7 4 -2 9 10 5 12 22 26 37 29 15 4 33 14 40 23 7 9 13
12 13 8 0 -5 7 -1 16 8 9 9 23 14 30 11 8 -3 14 0 14 7 0 14 61 47 86 47 8 0
12 5 9 10 -3 6 0 10 8 10 8 0 20 7 27 15 7 8 17 12 23 8 6 -3 7 -1 3 6 -4 6 0
14 8 17 9 3 13 11 9 17 -4 7 0 8 13 3 10 -4 16 -4 12 -1 -9 10 12 66 23 59 5
-3 6 2 3 10 -3 9 -1 29 4 46 8 20 8 32 0 36 -6 4 -5 9 3 15 8 5 9 9 4 9 -6 0
-12 12 -13 26 -1 15 -7 33 -13 41 -7 7 -9 16 -6 19 9 9 -85 95 -115 106 -16 6
-25 14 -22 19 3 5 2 9 -3 8 -14 -4 -54 16 -178 87 -66 38 -137 78 -157 88 -20
11 -34 24 -31 29 3 6 1 7 -5 3 -15 -9 -143 65 -135 77 3 6 1 7 -5 3 -12 -7
-62 13 -62 26 0 4 -3 7 -7 6 -15 -4 -74 33 -68 42 3 6 -1 7 -9 4 -8 -3 -29 4
-45 15 -16 12 -31 21 -34 21 -3 0 -44 23 -92 50 -48 28 -91 50 -96 50 -5 0 -9
5 -9 10 0 6 -9 10 -20 10 -11 0 -20 3 -20 8 0 4 -15 13 -32 21 -18 8 -40 19
-48 26 -8 7 -46 29 -85 50 -38 21 -87 47 -107 58 -20 11 -34 25 -31 30 3 6 1
7 -5 3 -6 -4 -34 5 -61 19 -119 60 -266 13 -323 -103 -12 -26 -22 -51 -20 -55
1 -4 -7 -3 -18 3 -11 6 -17 16 -14 22 5 7 2 8 -5 4 -7 -5 -58 19 -124 57 -62
35 -122 67 -134 71 -13 4 -29 13 -35 19 -9 8 -34 10 -78 6z"/>
<path d="M3270 1600 c0 -5 5 -10 11 -10 5 0 7 5 4 10 -3 6 -8 10 -11 10 -2 0
-4 -4 -4 -10z"/>
<path d="M2530 1171 c0 -6 4 -13 10 -16 6 -3 7 1 4 9 -7 18 -14 21 -14 7z"/>
<path d="M976 1013 c-6 -14 -5 -15 5 -6 7 7 10 15 7 18 -3 3 -9 -2 -12 -12z"/>
<path d="M1590 1010 c0 -5 9 -8 20 -7 21 1 18 10 -5 13 -8 1 -15 -2 -15 -6z"/>
<path d="M1435 930 c-3 -6 1 -7 9 -4 18 7 21 14 7 14 -6 0 -13 -4 -16 -10z"/>
<path d="M770 909 c0 -5 5 -7 10 -4 6 3 10 8 10 11 0 2 -4 4 -10 4 -5 0 -10
-5 -10 -11z"/>
</g>
</svg>
