<?xml version="1.0" encoding="UTF-8"?>
<!DOCTYPE svg PUBLIC "-//W3C//DTD SVG 1.1//EN" "http://www.w3.org/Graphics/SVG/1.1/DTD/svg11.dtd">
<svg version="1.1" xmlns="http://www.w3.org/2000/svg" xmlns:xlink="http://www.w3.org/1999/xlink" x="0" y="0" width="2048" height="1536" viewBox="0, 0, 1024, 768">
  <defs>
    <clipPath id="Clip_1">
      <path d="M450.728,58.644 L841.646,58.644 L841.646,486.761 L450.728,486.761 z M506.447,66.644 C479.117,66.644 456.728,86.254 456.728,116.364 L456.728,429.195 C456.728,459.151 479.117,478.761 506.447,478.761 C514.631,478.761 523.124,476.753 530.844,472.275 L810.323,315.551 C827.153,306.286 835.646,289.61 835.646,272.78 C835.646,256.103 827.153,239.118 810.323,229.854 L530.69,73.284 C522.969,68.96 514.631,66.644 506.447,66.644 z"/>
    </clipPath>
    <filter id="Shadow_2">
      <feGaussianBlur in="SourceAlpha" stdDeviation="2.5"/>
      <feOffset dx="0" dy="2" result="offsetblur"/>
      <feFlood flood-color="#000000"/>
      <feComposite in2="offsetblur" operator="in"/>
    </filter>
    <clipPath id="Clip_3">
      <path d="M316.256,58.644 L707.174,58.644 L707.174,486.761 L316.256,486.761 z M371.975,66.644 C344.645,66.644 322.256,86.254 322.256,116.364 L322.256,429.195 C322.256,459.151 344.645,478.761 371.975,478.761 C380.159,478.761 388.651,476.753 396.372,472.275 L675.851,315.551 C692.681,306.286 701.174,289.61 701.174,272.78 C701.174,256.103 692.681,239.119 675.851,229.854 L396.217,73.284 C388.497,68.961 380.159,66.644 371.975,66.644 z"/>
    </clipPath>
    <filter id="Shadow_4">
      <feGaussianBlur in="SourceAlpha" stdDeviation="2.5"/>
      <feOffset dx="0" dy="2" result="offsetblur"/>
      <feFlood flood-color="#000000"/>
      <feComposite in2="offsetblur" operator="in"/>
    </filter>
    <clipPath id="Clip_5">
      <path d="M182.992,58.644 L573.91,58.644 L573.91,486.761 L182.992,486.761 z M238.712,66.644 C211.381,66.644 188.992,86.254 188.992,116.364 L188.992,429.195 C188.992,459.151 211.381,478.761 238.712,478.761 C246.895,478.761 255.388,476.753 263.108,472.275 L542.587,315.551 C559.418,306.286 567.91,289.61 567.91,272.78 C567.91,256.103 559.418,239.119 542.587,229.854 L262.954,73.284 C255.233,68.961 246.895,66.644 238.712,66.644 z"/>
    </clipPath>
    <filter id="Shadow_6">
      <feGaussianBlur in="SourceAlpha" stdDeviation="2.5"/>
      <feOffset dx="0" dy="2" result="offsetblur"/>
      <feFlood flood-color="#000000"/>
      <feComposite in2="offsetblur" operator="in"/>
    </filter>
    <clipPath id="Clip_7">
      <path d="M450.728,58.644 L841.646,58.644 L841.646,486.761 L450.728,486.761 z M506.447,66.644 C479.117,66.644 456.728,86.254 456.728,116.364 L456.728,429.195 C456.728,459.151 479.117,478.761 506.447,478.761 C514.631,478.761 523.124,476.753 530.844,472.275 L810.323,315.551 C827.153,306.286 835.646,289.61 835.646,272.78 C835.646,256.103 827.153,239.118 810.323,229.854 L530.69,73.284 C522.969,68.96 514.631,66.644 506.447,66.644 z"/>
    </clipPath>
    <filter id="Shadow_8">
      <feGaussianBlur in="SourceAlpha" stdDeviation="2.5"/>
      <feOffset dx="0" dy="2" result="offsetblur"/>
      <feFlood flood-color="#000000"/>
      <feComposite in2="offsetblur" operator="in"/>
    </filter>
    <clipPath id="Clip_9">
      <path d="M316.256,58.644 L707.174,58.644 L707.174,486.761 L316.256,486.761 z M371.975,66.644 C344.645,66.644 322.256,86.254 322.256,116.364 L322.256,429.195 C322.256,459.151 344.645,478.761 371.975,478.761 C380.159,478.761 388.651,476.753 396.372,472.275 L675.851,315.551 C692.681,306.286 701.174,289.61 701.174,272.78 C701.174,256.103 692.681,239.119 675.851,229.854 L396.217,73.284 C388.497,68.961 380.159,66.644 371.975,66.644 z"/>
    </clipPath>
    <filter id="Shadow_10">
      <feGaussianBlur in="SourceAlpha" stdDeviation="2.5"/>
      <feOffset dx="0" dy="2" result="offsetblur"/>
      <feFlood flood-color="#000000"/>
      <feComposite in2="offsetblur" operator="in"/>
    </filter>
    <clipPath id="Clip_11">
      <path d="M182.992,58.644 L573.91,58.644 L573.91,486.761 L182.992,486.761 z M238.712,66.644 C211.381,66.644 188.992,86.254 188.992,116.364 L188.992,429.195 C188.992,459.151 211.381,478.761 238.712,478.761 C246.895,478.761 255.388,476.753 263.108,472.275 L542.587,315.551 C559.418,306.286 567.91,289.61 567.91,272.78 C567.91,256.103 559.418,239.119 542.587,229.854 L262.954,73.284 C255.233,68.961 246.895,66.644 238.712,66.644 z"/>
    </clipPath>
    <filter id="Shadow_12">
      <feGaussianBlur in="SourceAlpha" stdDeviation="2.5"/>
      <feOffset dx="0" dy="2" result="offsetblur"/>
      <feFlood flood-color="#000000"/>
      <feComposite in2="offsetblur" operator="in"/>
    </filter>
    <clipPath id="Clip_13">
      <path d="M450.728,58.644 L841.646,58.644 L841.646,486.761 L450.728,486.761 z M506.447,66.644 C479.117,66.644 456.728,86.254 456.728,116.364 L456.728,429.195 C456.728,459.151 479.117,478.761 506.447,478.761 C514.631,478.761 523.124,476.753 530.844,472.275 L810.323,315.551 C827.153,306.286 835.646,289.61 835.646,272.78 C835.646,256.103 827.153,239.118 810.323,229.854 L530.69,73.284 C522.969,68.96 514.631,66.644 506.447,66.644 z"/>
    </clipPath>
    <filter id="Shadow_14">
      <feGaussianBlur in="SourceAlpha" stdDeviation="2.5"/>
      <feOffset dx="0" dy="2" result="offsetblur"/>
      <feFlood flood-color="#000000"/>
      <feComposite in2="offsetblur" operator="in"/>
    </filter>
    <clipPath id="Clip_15">
      <path d="M316.256,58.644 L707.174,58.644 L707.174,486.761 L316.256,486.761 z M371.975,66.644 C344.645,66.644 322.256,86.254 322.256,116.364 L322.256,429.195 C322.256,459.151 344.645,478.761 371.975,478.761 C380.159,478.761 388.651,476.753 396.372,472.275 L675.851,315.551 C692.681,306.286 701.174,289.61 701.174,272.78 C701.174,256.103 692.681,239.119 675.851,229.854 L396.217,73.284 C388.497,68.961 380.159,66.644 371.975,66.644 z"/>
    </clipPath>
    <filter id="Shadow_16">
      <feGaussianBlur in="SourceAlpha" stdDeviation="2.5"/>
      <feOffset dx="0" dy="2" result="offsetblur"/>
      <feFlood flood-color="#000000"/>
      <feComposite in2="offsetblur" operator="in"/>
    </filter>
    <clipPath id="Clip_17">
      <path d="M182.992,58.644 L573.91,58.644 L573.91,486.761 L182.992,486.761 z M238.712,66.644 C211.381,66.644 188.992,86.254 188.992,116.364 L188.992,429.195 C188.992,459.151 211.381,478.761 238.712,478.761 C246.895,478.761 255.388,476.753 263.108,472.275 L542.587,315.551 C559.418,306.286 567.91,289.61 567.91,272.78 C567.91,256.103 559.418,239.119 542.587,229.854 L262.954,73.284 C255.233,68.961 246.895,66.644 238.712,66.644 z"/>
    </clipPath>
    <filter id="Shadow_18">
      <feGaussianBlur in="SourceAlpha" stdDeviation="2.5"/>
      <feOffset dx="0" dy="2" result="offsetblur"/>
      <feFlood flood-color="#000000"/>
      <feComposite in2="offsetblur" operator="in"/>
    </filter>
  </defs>
  <g id="White_text">
    <g>
      <path d="M506.447,66.644 C514.631,66.644 522.969,68.96 530.69,73.284 L810.323,229.854 C827.153,239.118 835.646,256.103 835.646,272.78 C835.646,289.61 827.153,306.286 810.323,315.551 L530.844,472.275 C523.124,476.753 514.631,478.761 506.447,478.761 C479.117,478.761 456.728,459.151 456.728,429.195 L456.728,116.364 C456.728,86.254 479.117,66.644 506.447,66.644 z" clip-path="url(#Clip_1)" filter="url(#Shadow_2)" fill="rgba(0,0,0,0.75)"/>
      <path d="M456.728,116.364 L456.728,429.195 C456.728,459.151 479.117,478.761 506.447,478.761 C514.631,478.761 523.124,476.753 530.844,472.275 L810.323,315.551 C827.153,306.286 835.646,289.61 835.646,272.78 C835.646,256.103 827.153,239.118 810.323,229.854 L530.69,73.284 C522.969,68.96 514.631,66.644 506.447,66.644 C479.117,66.644 456.728,86.254 456.728,116.364 z" fill="#F260B5"/>
    </g>
    <g>
      <path d="M371.975,66.644 C380.159,66.644 388.497,68.961 396.217,73.284 L675.851,229.854 C692.681,239.119 701.174,256.103 701.174,272.78 C701.174,289.61 692.681,306.286 675.851,315.551 L396.372,472.275 C388.651,476.753 380.159,478.761 371.975,478.761 C344.645,478.761 322.256,459.151 322.256,429.195 L322.256,116.364 C322.256,86.254 344.645,66.644 371.975,66.644 z" clip-path="url(#Clip_3)" filter="url(#Shadow_4)" fill="rgba(0,0,0,0.75)"/>
      <path d="M322.256,116.364 L322.256,429.195 C322.256,459.151 344.645,478.761 371.975,478.761 C380.159,478.761 388.651,476.753 396.372,472.275 L675.851,315.551 C692.681,306.286 701.174,289.61 701.174,272.78 C701.174,256.103 692.681,239.119 675.851,229.854 L396.217,73.284 C388.497,68.961 380.159,66.644 371.975,66.644 C344.645,66.644 322.256,86.254 322.256,116.364 z" fill="#CE389C"/>
    </g>
    <g>
      <path d="M238.712,66.644 C246.895,66.644 255.233,68.961 262.954,73.284 L542.587,229.854 C559.418,239.119 567.91,256.103 567.91,272.78 C567.91,289.61 559.418,306.286 542.587,315.551 L263.108,472.275 C255.388,476.753 246.895,478.761 238.712,478.761 C211.381,478.761 188.992,459.151 188.992,429.195 L188.992,116.364 C188.992,86.254 211.381,66.644 238.712,66.644 z" clip-path="url(#Clip_5)" filter="url(#Shadow_6)" fill="rgba(0,0,0,0.75)"/>
      <path d="M188.992,116.364 L188.992,429.195 C188.992,459.151 211.381,478.761 238.712,478.761 C246.895,478.761 255.388,476.753 263.108,472.275 L542.587,315.551 C559.418,306.286 567.91,289.61 567.91,272.78 C567.91,256.103 559.418,239.119 542.587,229.854 L262.954,73.284 C255.233,68.961 246.895,66.644 238.712,66.644 C211.381,66.644 188.992,86.254 188.992,116.364 z" fill="#682A77"/>
    </g>
    <path d="M120.019,627.616 C136.019,627.616 147.419,619.516 149.919,603.016 L141.819,603.016 C140.019,614.616 131.919,620.516 120.219,620.516 C104.819,620.516 95.619,609.516 95.619,591.316 L95.619,590.516 C95.619,572.516 105.519,561.016 120.319,561.016 C132.519,561.016 138.819,566.616 140.619,577.516 L149.219,577.516 C147.719,562.016 135.119,554.116 120.219,554.116 C100.819,554.116 86.619,569.416 86.619,590.616 L86.619,591.416 C86.619,613.416 99.319,627.616 120.019,627.616 z" fill="#FFFFFF"/>
    <path d="M184.319,620.716 C173.719,620.716 167.219,612.916 167.219,601.016 L167.219,600.216 C167.219,588.216 173.819,580.416 184.319,580.416 C194.719,580.416 201.419,588.216 201.419,600.316 L201.419,601.016 C201.419,612.816 194.819,620.716 184.319,620.716 z M184.219,627.616 C199.119,627.616 210.019,616.716 210.019,600.916 L210.019,600.116 C210.019,584.416 199.119,573.516 184.319,573.516 C169.519,573.516 158.619,584.516 158.619,600.216 L158.619,601.016 C158.619,616.316 169.319,627.616 184.219,627.616 z" fill="#FFFFFF"/>
    <path d="M223.119,626.716 L231.519,626.716 L231.519,549.416 L223.119,549.416 z" fill="#FFFFFF"/>
    <path d="M248.719,626.716 L257.119,626.716 L257.119,549.416 L248.719,549.416 z" fill="#FFFFFF"/>
    <path d="M295.519,627.616 C307.319,627.616 316.019,622.116 317.819,611.616 L309.519,611.616 C308.419,617.716 303.719,620.716 295.619,620.716 C284.919,620.716 279.219,614.116 278.819,602.216 L318.219,602.216 L318.219,599.516 C318.219,580.816 306.819,573.516 294.719,573.516 C280.319,573.516 270.219,584.516 270.219,600.316 L270.219,601.116 C270.219,617.216 280.719,627.616 295.519,627.616 z M279.119,595.516 C280.519,586.216 286.219,580.416 294.719,580.416 C303.319,580.416 308.919,584.716 309.719,595.516 z" fill="#FFFFFF"/>
    <path d="M352.619,627.616 C365.219,627.616 374.319,619.216 375.419,607.916 L367.719,607.916 C366.819,616.416 360.119,620.716 352.719,620.716 C342.619,620.716 335.619,613.916 335.619,601.116 L335.619,600.316 C335.619,588.016 342.919,580.416 352.419,580.416 C359.619,580.416 365.619,583.516 366.919,591.816 L375.119,591.816 C373.519,578.516 363.319,573.516 352.419,573.516 C338.419,573.516 327.019,584.316 327.019,600.316 L327.019,601.116 C327.019,617.316 338.019,627.616 352.619,627.616 z" fill="#FFFFFF"/>
    <path d="M403.819,627.416 C407.219,627.416 409.219,626.916 410.919,626.316 L410.919,619.316 C409.119,620.016 407.119,620.416 404.519,620.416 C400.319,620.416 398.019,617.916 398.019,612.816 L398.019,581.416 L410.219,581.416 L410.219,574.416 L398.019,574.416 L398.019,562.516 L389.719,562.516 L389.719,574.416 L382.219,574.416 L382.219,581.416 L389.719,581.416 L389.719,613.616 C389.719,621.816 394.319,627.416 403.819,627.416 z" fill="#FFFFFF"/>
    <path d="M423.619,626.716 L431.919,626.716 L431.919,574.416 L423.619,574.416 z M427.619,563.516 C430.619,563.516 433.119,561.016 433.119,558.016 C433.119,555.016 430.619,552.516 427.619,552.516 C424.619,552.516 422.119,555.016 422.119,558.016 C422.119,561.016 424.619,563.516 427.619,563.516 z" fill="#FFFFFF"/>
    <path d="M462.019,626.716 L472.619,626.716 L491.419,574.416 L482.819,574.416 L467.519,618.316 L452.019,574.416 L443.019,574.416 z" fill="#FFFFFF"/>
    <path d="M502.519,626.716 L510.819,626.716 L510.819,574.416 L502.519,574.416 z M506.519,563.516 C509.519,563.516 512.019,561.016 512.019,558.016 C512.019,555.016 509.519,552.516 506.519,552.516 C503.519,552.516 501.019,555.016 501.019,558.016 C501.019,561.016 503.519,563.516 506.519,563.516 z" fill="#FFFFFF"/>
    <path d="M521.519,626.716 L564.819,626.716 L564.819,619.416 L535.019,619.416 L565.219,575.916 L565.219,574.416 L524.519,574.416 L524.519,581.416 L552.419,581.416 L521.519,625.516 z" fill="#FFFFFF"/>
    <path d="M597.019,627.616 C608.819,627.616 617.519,622.116 619.319,611.616 L611.019,611.616 C609.919,617.716 605.219,620.716 597.119,620.716 C586.419,620.716 580.719,614.116 580.319,602.216 L619.719,602.216 L619.719,599.516 C619.719,580.816 608.319,573.516 596.219,573.516 C581.819,573.516 571.719,584.516 571.719,600.316 L571.719,601.116 C571.719,617.216 582.219,627.616 597.019,627.616 z M580.619,595.516 C582.019,586.216 587.719,580.416 596.219,580.416 C604.819,580.416 610.419,584.716 611.219,595.516 z" fill="#FFFFFF"/>
    <path d="M657.919,626.716 L663.519,626.716 L663.519,593.216 L705.619,593.216 L705.619,626.716 L711.219,626.716 L711.219,555.216 L705.619,555.216 L705.619,588.516 L663.519,588.516 L663.519,555.216 L657.919,555.216 z" fill="#FFFFFF"/>
    <path d="M749.519,627.516 C760.719,627.516 769.019,622.116 771.219,612.116 L765.919,612.116 C764.119,619.416 758.219,623.016 749.519,623.016 C737.119,623.016 730.419,615.016 730.219,601.016 L771.619,601.016 L771.619,599.116 C771.619,581.816 761.319,573.616 748.719,573.616 C734.719,573.616 724.719,584.516 724.719,600.316 L724.719,601.116 C724.719,616.816 734.419,627.516 749.519,627.516 z M730.419,596.716 C731.419,585.316 738.619,578.116 748.719,578.116 C758.919,578.116 765.619,584.016 766.119,596.716 z" fill="#FFFFFF"/>
    <path d="M798.419,627.516 C807.219,627.516 812.819,623.816 816.119,618.716 L816.119,626.716 L821.419,626.716 L821.419,592.116 C821.419,578.816 814.019,573.616 803.119,573.616 C793.219,573.616 784.219,578.216 783.019,589.216 L788.219,589.216 C789.419,581.516 795.019,578.116 802.919,578.116 C812.119,578.116 816.119,582.316 816.119,592.116 L816.119,596.816 L805.219,596.816 C792.319,596.816 780.719,600.516 780.719,612.616 C780.719,622.516 788.119,627.516 798.419,627.516 z M798.819,623.216 C790.219,623.216 786.019,619.316 786.019,612.616 C786.019,603.216 794.519,600.916 805.419,600.916 L816.119,600.916 L816.119,609.816 C816.119,617.616 808.419,623.216 798.819,623.216 z" fill="#FFFFFF"/>
    <path d="M837.619,626.716 L843.019,626.716 L843.019,549.416 L837.619,549.416 z" fill="#FFFFFF"/>
    <path d="M874.419,627.416 C877.619,627.416 879.619,626.916 881.319,626.316 L881.319,621.816 C879.519,622.416 877.419,622.916 874.719,622.916 C869.919,622.916 866.919,620.016 866.919,613.716 L866.919,578.916 L880.619,578.916 L880.619,574.416 L866.919,574.416 L866.919,562.516 L861.619,562.516 L861.619,574.416 L853.919,574.416 L853.919,578.916 L861.619,578.916 L861.619,614.116 C861.619,622.516 866.119,627.416 874.419,627.416 z" fill="#FFFFFF"/>
    <path d="M893.419,626.716 L898.719,626.716 L898.719,595.016 C898.719,584.016 907.319,578.216 916.019,578.216 C925.319,578.216 930.519,583.116 930.519,594.216 L930.519,626.716 L935.819,626.716 L935.819,594.516 C935.819,579.616 928.319,573.616 917.219,573.616 C907.919,573.616 901.119,578.916 898.719,584.616 L898.719,549.416 L893.419,549.416 z" fill="#FFFFFF"/>
    <path d="M89.516,688.018 L89.516,652.507 L96.641,652.507 C108.611,652.507 113.912,659.86 113.912,669.892 L113.912,670.348 C113.912,680.722 108.269,688.018 96.698,688.018 z M86.324,690.64 L96.812,690.64 C110.72,690.64 117.218,681.691 117.218,670.405 L117.218,669.892 C117.218,658.549 110.378,649.885 96.926,649.885 L86.324,649.885 z" fill="#FFFFFF"/>
    <path d="M124.97,690.64 L127.991,690.64 L127.991,660.829 L124.97,660.829 z M126.452,654.445 C127.649,654.445 128.561,653.476 128.561,652.279 C128.561,651.139 127.649,650.17 126.452,650.17 C125.255,650.17 124.286,651.139 124.286,652.279 C124.286,653.476 125.255,654.445 126.452,654.445 z" fill="#FFFFFF"/>
    <path d="M149.195,701.356 C157.175,701.356 162.932,697.423 162.989,688.645 L162.989,660.829 L159.968,660.829 L159.968,667.27 C158.258,663.622 154.952,660.373 149.081,660.373 C141.215,660.373 135.23,666.529 135.23,675.022 L135.23,675.421 C135.23,684.085 141.101,689.671 148.682,689.671 C154.211,689.671 158.372,686.023 159.968,682.432 L159.968,688.531 C159.968,695.884 155.522,698.791 149.138,698.791 C142.925,698.791 139.733,696.169 138.935,692.35 L135.857,692.35 C136.598,697.138 140.588,701.356 149.195,701.356 z M148.967,687.106 C143.039,687.106 138.365,682.774 138.365,675.364 L138.365,674.908 C138.365,667.498 142.982,662.938 149.366,662.938 C155.579,662.938 160.025,667.27 160.025,674.794 L160.025,675.25 C160.025,682.717 155.009,687.106 148.967,687.106 z" fill="#FFFFFF"/>
    <path d="M172.451,690.64 L175.472,690.64 L175.472,660.829 L172.451,660.829 z M173.933,654.445 C175.13,654.445 176.042,653.476 176.042,652.279 C176.042,651.139 175.13,650.17 173.933,650.17 C172.736,650.17 171.767,651.139 171.767,652.279 C171.767,653.476 172.736,654.445 173.933,654.445 z" fill="#FFFFFF"/>
    <path d="M193.37,691.039 C195.194,691.039 196.334,690.754 197.303,690.412 L197.303,687.847 C196.277,688.189 195.08,688.474 193.541,688.474 C190.805,688.474 189.095,686.821 189.095,683.23 L189.095,663.394 L196.904,663.394 L196.904,660.829 L189.095,660.829 L189.095,654.046 L186.074,654.046 L186.074,660.829 L181.685,660.829 L181.685,663.394 L186.074,663.394 L186.074,683.458 C186.074,688.246 188.639,691.039 193.37,691.039 z" fill="#FFFFFF"/>
    <path d="M212.408,691.096 C217.424,691.096 220.616,688.987 222.497,686.08 L222.497,690.64 L225.518,690.64 L225.518,670.918 C225.518,663.337 221.3,660.373 215.087,660.373 C209.444,660.373 204.314,662.995 203.63,669.265 L206.594,669.265 C207.278,664.876 210.47,662.938 214.973,662.938 C220.217,662.938 222.497,665.332 222.497,670.918 L222.497,673.597 L216.284,673.597 C208.931,673.597 202.319,675.706 202.319,682.603 C202.319,688.246 206.537,691.096 212.408,691.096 z M212.636,688.645 C207.734,688.645 205.34,686.422 205.34,682.603 C205.34,677.245 210.185,675.934 216.398,675.934 L222.497,675.934 L222.497,681.007 C222.497,685.453 218.108,688.645 212.636,688.645 z" fill="#FFFFFF"/>
    <path d="M234.752,690.64 L237.83,690.64 L237.83,646.579 L234.752,646.579 z" fill="#FFFFFF"/>
    <path d="M292.094,670.006 L289.187,670.006 L283.715,680.152 L273.626,668.296 C278.927,665.959 282.86,662.767 282.86,657.865 C282.86,653.248 279.383,649.657 274.424,649.657 C269.465,649.657 265.19,653.077 265.19,658.549 C265.19,661.684 266.672,664.363 269.351,667.669 C264.164,670.234 259.49,673.654 259.49,680.038 C259.49,686.479 264.278,691.039 271.631,691.039 C277.331,691.039 281.036,687.961 283.601,684.598 L288.788,690.64 L292.55,690.64 L285.425,682.318 z M271.745,688.474 C265.931,688.474 262.568,684.94 262.568,679.753 C262.568,674.509 266.444,671.602 270.833,669.436 L281.948,682.603 C279.497,685.966 276.248,688.474 271.745,688.474 z M268.154,658.549 C268.154,654.502 270.833,652.108 274.31,652.108 C277.787,652.108 279.953,654.502 279.953,657.808 C279.953,661.969 277.046,664.363 272.258,666.586 C269.693,663.508 268.154,661.228 268.154,658.549 z" fill="#FFFFFF"/>
    <path d="M313.811,690.64 L317.003,690.64 L317.003,673.198 L324.641,673.198 C332.564,673.198 338.492,669.949 338.492,661.57 L338.492,661.342 C338.492,653.077 332.507,649.885 324.584,649.885 L313.811,649.885 z M317.003,670.633 L317.003,652.507 L324.755,652.507 C331.139,652.507 335.3,654.73 335.3,661.342 L335.3,661.57 C335.3,667.84 331.424,670.633 324.869,670.633 z" fill="#FFFFFF"/>
    <path d="M355.82,691.096 C361.064,691.096 364.883,688.189 366.251,684.94 L366.251,690.64 L369.272,690.64 L369.272,660.829 L366.251,660.829 L366.251,678.955 C366.251,685.225 361.349,688.474 356.504,688.474 C351.317,688.474 348.353,685.852 348.353,679.525 L348.353,660.829 L345.332,660.829 L345.332,679.696 C345.332,687.904 349.664,691.096 355.82,691.096 z" fill="#FFFFFF"/>
    <path d="M392.984,691.096 C400.679,691.096 406.379,685.225 406.379,675.877 L406.379,675.421 C406.379,666.13 400.508,660.373 392.984,660.373 C387.74,660.373 383.351,663.907 381.641,667.783 L381.641,646.579 L378.62,646.579 L378.62,690.64 L381.641,690.64 L381.641,683.857 C383.237,687.505 387.113,691.096 392.984,691.096 z M392.756,688.531 C386.543,688.531 381.584,684.142 381.584,675.991 L381.584,675.535 C381.584,667.327 386.885,662.938 392.699,662.938 C398.399,662.938 403.244,667.327 403.244,675.535 L403.244,675.991 C403.244,683.971 399.026,688.531 392.756,688.531 z" fill="#FFFFFF"/>
    <path d="M413.618,690.64 L416.696,690.64 L416.696,646.579 L413.618,646.579 z" fill="#FFFFFF"/>
    <path d="M426.272,690.64 L429.293,690.64 L429.293,660.829 L426.272,660.829 z M427.754,654.445 C428.951,654.445 429.863,653.476 429.863,652.279 C429.863,651.139 428.951,650.17 427.754,650.17 C426.557,650.17 425.588,651.139 425.588,652.279 C425.588,653.476 426.557,654.445 427.754,654.445 z" fill="#FFFFFF"/>
    <path d="M450.782,691.096 C457.565,691.096 462.695,686.707 463.493,680.323 L460.7,680.323 C459.959,685.681 455.741,688.531 450.782,688.531 C444.512,688.531 439.667,683.914 439.667,676.048 L439.667,675.592 C439.667,667.726 444.569,662.938 450.782,662.938 C455.456,662.938 459.503,665.275 460.244,670.291 L463.208,670.291 C462.41,663.565 456.824,660.373 450.782,660.373 C442.916,660.373 436.532,666.472 436.532,675.592 L436.532,676.048 C436.532,685.111 442.745,691.096 450.782,691.096 z" fill="#FFFFFF"/>
    <path d="M485.096,690.64 L488.288,690.64 L488.288,671.545 L512.285,671.545 L512.285,690.64 L515.477,690.64 L515.477,649.885 L512.285,649.885 L512.285,668.866 L488.288,668.866 L488.288,649.885 L485.096,649.885 z" fill="#FFFFFF"/>
    <path d="M537.308,691.096 C543.692,691.096 548.423,688.018 549.677,682.318 L546.656,682.318 C545.63,686.479 542.267,688.531 537.308,688.531 C530.24,688.531 526.421,683.971 526.307,675.991 L549.905,675.991 L549.905,674.908 C549.905,665.047 544.034,660.373 536.852,660.373 C528.872,660.373 523.172,666.586 523.172,675.592 L523.172,676.048 C523.172,684.997 528.701,691.096 537.308,691.096 z M526.421,673.54 C526.991,667.042 531.095,662.938 536.852,662.938 C542.666,662.938 546.485,666.301 546.77,673.54 z" fill="#FFFFFF"/>
    <path d="M565.181,691.096 C570.197,691.096 573.389,688.987 575.27,686.08 L575.27,690.64 L578.291,690.64 L578.291,670.918 C578.291,663.337 574.073,660.373 567.86,660.373 C562.217,660.373 557.087,662.995 556.403,669.265 L559.367,669.265 C560.051,664.876 563.243,662.938 567.746,662.938 C572.99,662.938 575.27,665.332 575.27,670.918 L575.27,673.597 L569.057,673.597 C561.704,673.597 555.092,675.706 555.092,682.603 C555.092,688.246 559.31,691.096 565.181,691.096 z M565.409,688.645 C560.507,688.645 558.113,686.422 558.113,682.603 C558.113,677.245 562.958,675.934 569.171,675.934 L575.27,675.934 L575.27,681.007 C575.27,685.453 570.881,688.645 565.409,688.645 z" fill="#FFFFFF"/>
    <path d="M587.525,690.64 L590.603,690.64 L590.603,646.579 L587.525,646.579 z" fill="#FFFFFF"/>
    <path d="M608.501,691.039 C610.325,691.039 611.465,690.754 612.434,690.412 L612.434,687.847 C611.408,688.189 610.211,688.474 608.672,688.474 C605.936,688.474 604.226,686.821 604.226,683.23 L604.226,663.394 L612.035,663.394 L612.035,660.829 L604.226,660.829 L604.226,654.046 L601.205,654.046 L601.205,660.829 L596.816,660.829 L596.816,663.394 L601.205,663.394 L601.205,683.458 C601.205,688.246 603.77,691.039 608.501,691.039 z" fill="#FFFFFF"/>
    <path d="M619.331,690.64 L622.352,690.64 L622.352,672.571 C622.352,666.301 627.254,662.995 632.213,662.995 C637.514,662.995 640.478,665.788 640.478,672.115 L640.478,690.64 L643.499,690.64 L643.499,672.286 C643.499,663.793 639.224,660.373 632.897,660.373 C627.596,660.373 623.72,663.394 622.352,666.643 L622.352,646.579 L619.331,646.579 z" fill="#FFFFFF"/>
    <path d="M683.912,691.096 C692.69,691.096 699.359,686.308 700.841,677.53 L697.877,677.53 C696.566,684.541 691.322,688.417 683.969,688.417 C674.279,688.417 668.237,681.463 668.237,670.462 L668.237,670.006 C668.237,659.233 674.849,651.937 683.969,651.937 C691.493,651.937 695.939,655.585 697.193,662.14 L700.385,662.14 C699.131,653.761 692.348,649.372 683.912,649.372 C673.253,649.372 664.988,658.036 664.988,670.063 L664.988,670.519 C664.988,682.831 672.284,691.096 683.912,691.096 z" fill="#FFFFFF"/>
    <path d="M720.164,688.531 C713.666,688.531 708.878,683.629 708.878,675.991 L708.878,675.535 C708.878,667.783 713.78,662.938 720.164,662.938 C726.491,662.938 731.393,667.669 731.393,675.535 L731.393,675.991 C731.393,683.686 726.548,688.531 720.164,688.531 z M720.107,691.096 C728.144,691.096 734.528,684.94 734.528,675.934 L734.528,675.478 C734.528,666.415 728.201,660.373 720.164,660.373 C712.184,660.373 705.743,666.586 705.743,675.535 L705.743,675.991 C705.743,684.769 712.013,691.096 720.107,691.096 z" fill="#FFFFFF"/>
    <path d="M741.653,690.64 L744.674,690.64 L744.674,672.571 C744.674,666.301 749.576,662.995 754.535,662.995 C759.836,662.995 762.8,665.788 762.8,672.115 L762.8,690.64 L765.821,690.64 L765.821,672.286 C765.821,663.793 761.546,660.373 755.219,660.373 C749.918,660.373 746.042,663.394 744.674,666.643 L744.674,660.829 L741.653,660.829 z" fill="#FFFFFF"/>
    <path d="M783.833,691.153 C790.616,691.153 794.321,687.505 794.321,682.489 C794.321,676.675 790.673,675.136 784.289,673.996 C778.19,672.913 776.138,671.659 776.138,668.239 C776.138,665.047 778.931,662.938 783.092,662.938 C787.424,662.938 789.875,664.648 790.616,668.467 L793.523,668.467 C792.725,662.596 788.507,660.373 783.149,660.373 C778.133,660.373 773.345,663.28 773.345,668.353 C773.345,673.483 776.309,675.364 783.605,676.675 C789.191,677.701 791.414,678.898 791.414,682.717 C791.414,686.308 788.849,688.588 783.833,688.588 C778.304,688.588 775.796,685.795 775.283,681.748 L772.376,681.748 C772.775,687.448 776.822,691.153 783.833,691.153 z" fill="#FFFFFF"/>
    <path d="M811.592,691.096 C816.836,691.096 820.655,688.189 822.023,684.94 L822.023,690.64 L825.044,690.64 L825.044,660.829 L822.023,660.829 L822.023,678.955 C822.023,685.225 817.121,688.474 812.276,688.474 C807.089,688.474 804.125,685.852 804.125,679.525 L804.125,660.829 L801.104,660.829 L801.104,679.696 C801.104,687.904 805.436,691.096 811.592,691.096 z" fill="#FFFFFF"/>
    <path d="M834.506,690.64 L837.584,690.64 L837.584,646.579 L834.506,646.579 z" fill="#FFFFFF"/>
    <path d="M855.482,691.039 C857.306,691.039 858.446,690.754 859.415,690.412 L859.415,687.847 C858.389,688.189 857.192,688.474 855.653,688.474 C852.917,688.474 851.207,686.821 851.207,683.23 L851.207,663.394 L859.016,663.394 L859.016,660.829 L851.207,660.829 L851.207,654.046 L848.186,654.046 L848.186,660.829 L843.797,660.829 L843.797,663.394 L848.186,663.394 L848.186,683.458 C848.186,688.246 850.751,691.039 855.482,691.039 z" fill="#FFFFFF"/>
    <path d="M866.426,690.64 L869.447,690.64 L869.447,660.829 L866.426,660.829 z M867.908,654.445 C869.105,654.445 870.017,653.476 870.017,652.279 C870.017,651.139 869.105,650.17 867.908,650.17 C866.711,650.17 865.742,651.139 865.742,652.279 C865.742,653.476 866.711,654.445 867.908,654.445 z" fill="#FFFFFF"/>
    <path d="M878.909,690.64 L881.93,690.64 L881.93,672.571 C881.93,666.301 886.832,662.995 891.791,662.995 C897.092,662.995 900.056,665.788 900.056,672.115 L900.056,690.64 L903.077,690.64 L903.077,672.286 C903.077,663.793 898.802,660.373 892.475,660.373 C887.174,660.373 883.298,663.394 881.93,666.643 L881.93,660.829 L878.909,660.829 z" fill="#FFFFFF"/>
    <path d="M923.882,701.356 C931.862,701.356 937.619,697.423 937.676,688.645 L937.676,660.829 L934.655,660.829 L934.655,667.27 C932.945,663.622 929.639,660.373 923.768,660.373 C915.902,660.373 909.917,666.529 909.917,675.022 L909.917,675.421 C909.917,684.085 915.788,689.671 923.369,689.671 C928.898,689.671 933.059,686.023 934.655,682.432 L934.655,688.531 C934.655,695.884 930.209,698.791 923.825,698.791 C917.612,698.791 914.42,696.169 913.622,692.35 L910.544,692.35 C911.285,697.138 915.275,701.356 923.882,701.356 z M923.654,687.106 C917.726,687.106 913.052,682.774 913.052,675.364 L913.052,674.908 C913.052,667.498 917.669,662.938 924.053,662.938 C930.266,662.938 934.712,667.27 934.712,674.794 L934.712,675.25 C934.712,682.717 929.696,687.106 923.654,687.106 z" fill="#FFFFFF"/>
  </g>
  <g id="Black_text" display="none">
    <g>
      <path d="M506.447,66.644 C514.631,66.644 522.969,68.96 530.69,73.284 L810.323,229.854 C827.153,239.118 835.646,256.103 835.646,272.78 C835.646,289.61 827.153,306.286 810.323,315.551 L530.844,472.275 C523.124,476.753 514.631,478.761 506.447,478.761 C479.117,478.761 456.728,459.151 456.728,429.195 L456.728,116.364 C456.728,86.254 479.117,66.644 506.447,66.644 z" clip-path="url(#Clip_7)" filter="url(#Shadow_8)" fill="rgba(0,0,0,0.75)"/>
      <path d="M456.728,116.364 L456.728,429.195 C456.728,459.151 479.117,478.761 506.447,478.761 C514.631,478.761 523.124,476.753 530.844,472.275 L810.323,315.551 C827.153,306.286 835.646,289.61 835.646,272.78 C835.646,256.103 827.153,239.118 810.323,229.854 L530.69,73.284 C522.969,68.96 514.631,66.644 506.447,66.644 C479.117,66.644 456.728,86.254 456.728,116.364 z" fill="#F260B5"/>
    </g>
    <g>
      <path d="M371.975,66.644 C380.159,66.644 388.497,68.961 396.217,73.284 L675.851,229.854 C692.681,239.119 701.174,256.103 701.174,272.78 C701.174,289.61 692.681,306.286 675.851,315.551 L396.372,472.275 C388.651,476.753 380.159,478.761 371.975,478.761 C344.645,478.761 322.256,459.151 322.256,429.195 L322.256,116.364 C322.256,86.254 344.645,66.644 371.975,66.644 z" clip-path="url(#Clip_9)" filter="url(#Shadow_10)" fill="rgba(0,0,0,0.75)"/>
      <path d="M322.256,116.364 L322.256,429.195 C322.256,459.151 344.645,478.761 371.975,478.761 C380.159,478.761 388.651,476.753 396.372,472.275 L675.851,315.551 C692.681,306.286 701.174,289.61 701.174,272.78 C701.174,256.103 692.681,239.119 675.851,229.854 L396.217,73.284 C388.497,68.961 380.159,66.644 371.975,66.644 C344.645,66.644 322.256,86.254 322.256,116.364 z" fill="#CE389C"/>
    </g>
    <g>
      <path d="M238.712,66.644 C246.895,66.644 255.233,68.961 262.954,73.284 L542.587,229.854 C559.418,239.119 567.91,256.103 567.91,272.78 C567.91,289.61 559.418,306.286 542.587,315.551 L263.108,472.275 C255.388,476.753 246.895,478.761 238.712,478.761 C211.381,478.761 188.992,459.151 188.992,429.195 L188.992,116.364 C188.992,86.254 211.381,66.644 238.712,66.644 z" clip-path="url(#Clip_11)" filter="url(#Shadow_12)" fill="rgba(0,0,0,0.75)"/>
      <path d="M188.992,116.364 L188.992,429.195 C188.992,459.151 211.381,478.761 238.712,478.761 C246.895,478.761 255.388,476.753 263.108,472.275 L542.587,315.551 C559.418,306.286 567.91,289.61 567.91,272.78 C567.91,256.103 559.418,239.119 542.587,229.854 L262.954,73.284 C255.233,68.961 246.895,66.644 238.712,66.644 C211.381,66.644 188.992,86.254 188.992,116.364 z" fill="#682A77"/>
    </g>
    <path d="M120.019,627.616 C136.019,627.616 147.419,619.516 149.919,603.016 L141.819,603.016 C140.019,614.616 131.919,620.516 120.219,620.516 C104.819,620.516 95.619,609.516 95.619,591.316 L95.619,590.516 C95.619,572.516 105.519,561.016 120.319,561.016 C132.519,561.016 138.819,566.616 140.619,577.516 L149.219,577.516 C147.719,562.016 135.119,554.116 120.219,554.116 C100.819,554.116 86.619,569.416 86.619,590.616 L86.619,591.416 C86.619,613.416 99.319,627.616 120.019,627.616 z" fill="#000000"/>
    <path d="M184.319,620.716 C173.719,620.716 167.219,612.916 167.219,601.016 L167.219,600.216 C167.219,588.216 173.819,580.416 184.319,580.416 C194.719,580.416 201.419,588.216 201.419,600.316 L201.419,601.016 C201.419,612.816 194.819,620.716 184.319,620.716 z M184.219,627.616 C199.119,627.616 210.019,616.716 210.019,600.916 L210.019,600.116 C210.019,584.416 199.119,573.516 184.319,573.516 C169.519,573.516 158.619,584.516 158.619,600.216 L158.619,601.016 C158.619,616.316 169.319,627.616 184.219,627.616 z" fill="#000000"/>
    <path d="M223.119,626.716 L231.519,626.716 L231.519,549.416 L223.119,549.416 z" fill="#000000"/>
    <path d="M248.719,626.716 L257.119,626.716 L257.119,549.416 L248.719,549.416 z" fill="#000000"/>
    <path d="M295.519,627.616 C307.319,627.616 316.019,622.116 317.819,611.616 L309.519,611.616 C308.419,617.716 303.719,620.716 295.619,620.716 C284.919,620.716 279.219,614.116 278.819,602.216 L318.219,602.216 L318.219,599.516 C318.219,580.816 306.819,573.516 294.719,573.516 C280.319,573.516 270.219,584.516 270.219,600.316 L270.219,601.116 C270.219,617.216 280.719,627.616 295.519,627.616 z M279.119,595.516 C280.519,586.216 286.219,580.416 294.719,580.416 C303.319,580.416 308.919,584.716 309.719,595.516 z" fill="#000000"/>
    <path d="M352.619,627.616 C365.219,627.616 374.319,619.216 375.419,607.916 L367.719,607.916 C366.819,616.416 360.119,620.716 352.719,620.716 C342.619,620.716 335.619,613.916 335.619,601.116 L335.619,600.316 C335.619,588.016 342.919,580.416 352.419,580.416 C359.619,580.416 365.619,583.516 366.919,591.816 L375.119,591.816 C373.519,578.516 363.319,573.516 352.419,573.516 C338.419,573.516 327.019,584.316 327.019,600.316 L327.019,601.116 C327.019,617.316 338.019,627.616 352.619,627.616 z" fill="#000000"/>
    <path d="M403.819,627.416 C407.219,627.416 409.219,626.916 410.919,626.316 L410.919,619.316 C409.119,620.016 407.119,620.416 404.519,620.416 C400.319,620.416 398.019,617.916 398.019,612.816 L398.019,581.416 L410.219,581.416 L410.219,574.416 L398.019,574.416 L398.019,562.516 L389.719,562.516 L389.719,574.416 L382.219,574.416 L382.219,581.416 L389.719,581.416 L389.719,613.616 C389.719,621.816 394.319,627.416 403.819,627.416 z" fill="#000000"/>
    <path d="M423.619,626.716 L431.919,626.716 L431.919,574.416 L423.619,574.416 z M427.619,563.516 C430.619,563.516 433.119,561.016 433.119,558.016 C433.119,555.016 430.619,552.516 427.619,552.516 C424.619,552.516 422.119,555.016 422.119,558.016 C422.119,561.016 424.619,563.516 427.619,563.516 z" fill="#000000"/>
    <path d="M462.019,626.716 L472.619,626.716 L491.419,574.416 L482.819,574.416 L467.519,618.316 L452.019,574.416 L443.019,574.416 z" fill="#000000"/>
    <path d="M502.519,626.716 L510.819,626.716 L510.819,574.416 L502.519,574.416 z M506.519,563.516 C509.519,563.516 512.019,561.016 512.019,558.016 C512.019,555.016 509.519,552.516 506.519,552.516 C503.519,552.516 501.019,555.016 501.019,558.016 C501.019,561.016 503.519,563.516 506.519,563.516 z" fill="#000000"/>
    <path d="M521.519,626.716 L564.819,626.716 L564.819,619.416 L535.019,619.416 L565.219,575.916 L565.219,574.416 L524.519,574.416 L524.519,581.416 L552.419,581.416 L521.519,625.516 z" fill="#000000"/>
    <path d="M597.019,627.616 C608.819,627.616 617.519,622.116 619.319,611.616 L611.019,611.616 C609.919,617.716 605.219,620.716 597.119,620.716 C586.419,620.716 580.719,614.116 580.319,602.216 L619.719,602.216 L619.719,599.516 C619.719,580.816 608.319,573.516 596.219,573.516 C581.819,573.516 571.719,584.516 571.719,600.316 L571.719,601.116 C571.719,617.216 582.219,627.616 597.019,627.616 z M580.619,595.516 C582.019,586.216 587.719,580.416 596.219,580.416 C604.819,580.416 610.419,584.716 611.219,595.516 z" fill="#000000"/>
    <path d="M657.919,626.716 L663.519,626.716 L663.519,593.216 L705.619,593.216 L705.619,626.716 L711.219,626.716 L711.219,555.216 L705.619,555.216 L705.619,588.516 L663.519,588.516 L663.519,555.216 L657.919,555.216 z" fill="#000000"/>
    <path d="M749.519,627.516 C760.719,627.516 769.019,622.116 771.219,612.116 L765.919,612.116 C764.119,619.416 758.219,623.016 749.519,623.016 C737.119,623.016 730.419,615.016 730.219,601.016 L771.619,601.016 L771.619,599.116 C771.619,581.816 761.319,573.616 748.719,573.616 C734.719,573.616 724.719,584.516 724.719,600.316 L724.719,601.116 C724.719,616.816 734.419,627.516 749.519,627.516 z M730.419,596.716 C731.419,585.316 738.619,578.116 748.719,578.116 C758.919,578.116 765.619,584.016 766.119,596.716 z" fill="#000000"/>
    <path d="M798.419,627.516 C807.219,627.516 812.819,623.816 816.119,618.716 L816.119,626.716 L821.419,626.716 L821.419,592.116 C821.419,578.816 814.019,573.616 803.119,573.616 C793.219,573.616 784.219,578.216 783.019,589.216 L788.219,589.216 C789.419,581.516 795.019,578.116 802.919,578.116 C812.119,578.116 816.119,582.316 816.119,592.116 L816.119,596.816 L805.219,596.816 C792.319,596.816 780.719,600.516 780.719,612.616 C780.719,622.516 788.119,627.516 798.419,627.516 z M798.819,623.216 C790.219,623.216 786.019,619.316 786.019,612.616 C786.019,603.216 794.519,600.916 805.419,600.916 L816.119,600.916 L816.119,609.816 C816.119,617.616 808.419,623.216 798.819,623.216 z" fill="#000000"/>
    <path d="M837.619,626.716 L843.019,626.716 L843.019,549.416 L837.619,549.416 z" fill="#000000"/>
    <path d="M874.419,627.416 C877.619,627.416 879.619,626.916 881.319,626.316 L881.319,621.816 C879.519,622.416 877.419,622.916 874.719,622.916 C869.919,622.916 866.919,620.016 866.919,613.716 L866.919,578.916 L880.619,578.916 L880.619,574.416 L866.919,574.416 L866.919,562.516 L861.619,562.516 L861.619,574.416 L853.919,574.416 L853.919,578.916 L861.619,578.916 L861.619,614.116 C861.619,622.516 866.119,627.416 874.419,627.416 z" fill="#000000"/>
    <path d="M893.419,626.716 L898.719,626.716 L898.719,595.016 C898.719,584.016 907.319,578.216 916.019,578.216 C925.319,578.216 930.519,583.116 930.519,594.216 L930.519,626.716 L935.819,626.716 L935.819,594.516 C935.819,579.616 928.319,573.616 917.219,573.616 C907.919,573.616 901.119,578.916 898.719,584.616 L898.719,549.416 L893.419,549.416 z" fill="#000000"/>
    <path d="M89.516,688.018 L89.516,652.507 L96.641,652.507 C108.611,652.507 113.912,659.86 113.912,669.892 L113.912,670.348 C113.912,680.722 108.269,688.018 96.698,688.018 z M86.324,690.64 L96.812,690.64 C110.72,690.64 117.218,681.691 117.218,670.405 L117.218,669.892 C117.218,658.549 110.378,649.885 96.926,649.885 L86.324,649.885 z" fill="#000000"/>
    <path d="M124.97,690.64 L127.991,690.64 L127.991,660.829 L124.97,660.829 z M126.452,654.445 C127.649,654.445 128.561,653.476 128.561,652.279 C128.561,651.139 127.649,650.17 126.452,650.17 C125.255,650.17 124.286,651.139 124.286,652.279 C124.286,653.476 125.255,654.445 126.452,654.445 z" fill="#000000"/>
    <path d="M149.195,701.356 C157.175,701.356 162.932,697.423 162.989,688.645 L162.989,660.829 L159.968,660.829 L159.968,667.27 C158.258,663.622 154.952,660.373 149.081,660.373 C141.215,660.373 135.23,666.529 135.23,675.022 L135.23,675.421 C135.23,684.085 141.101,689.671 148.682,689.671 C154.211,689.671 158.372,686.023 159.968,682.432 L159.968,688.531 C159.968,695.884 155.522,698.791 149.138,698.791 C142.925,698.791 139.733,696.169 138.935,692.35 L135.857,692.35 C136.598,697.138 140.588,701.356 149.195,701.356 z M148.967,687.106 C143.039,687.106 138.365,682.774 138.365,675.364 L138.365,674.908 C138.365,667.498 142.982,662.938 149.366,662.938 C155.579,662.938 160.025,667.27 160.025,674.794 L160.025,675.25 C160.025,682.717 155.009,687.106 148.967,687.106 z" fill="#000000"/>
    <path d="M172.451,690.64 L175.472,690.64 L175.472,660.829 L172.451,660.829 z M173.933,654.445 C175.13,654.445 176.042,653.476 176.042,652.279 C176.042,651.139 175.13,650.17 173.933,650.17 C172.736,650.17 171.767,651.139 171.767,652.279 C171.767,653.476 172.736,654.445 173.933,654.445 z" fill="#000000"/>
    <path d="M193.37,691.039 C195.194,691.039 196.334,690.754 197.303,690.412 L197.303,687.847 C196.277,688.189 195.08,688.474 193.541,688.474 C190.805,688.474 189.095,686.821 189.095,683.23 L189.095,663.394 L196.904,663.394 L196.904,660.829 L189.095,660.829 L189.095,654.046 L186.074,654.046 L186.074,660.829 L181.685,660.829 L181.685,663.394 L186.074,663.394 L186.074,683.458 C186.074,688.246 188.639,691.039 193.37,691.039 z" fill="#000000"/>
    <path d="M212.408,691.096 C217.424,691.096 220.616,688.987 222.497,686.08 L222.497,690.64 L225.518,690.64 L225.518,670.918 C225.518,663.337 221.3,660.373 215.087,660.373 C209.444,660.373 204.314,662.995 203.63,669.265 L206.594,669.265 C207.278,664.876 210.47,662.938 214.973,662.938 C220.217,662.938 222.497,665.332 222.497,670.918 L222.497,673.597 L216.284,673.597 C208.931,673.597 202.319,675.706 202.319,682.603 C202.319,688.246 206.537,691.096 212.408,691.096 z M212.636,688.645 C207.734,688.645 205.34,686.422 205.34,682.603 C205.34,677.245 210.185,675.934 216.398,675.934 L222.497,675.934 L222.497,681.007 C222.497,685.453 218.108,688.645 212.636,688.645 z" fill="#000000"/>
    <path d="M234.752,690.64 L237.83,690.64 L237.83,646.579 L234.752,646.579 z" fill="#000000"/>
    <path d="M292.094,670.006 L289.187,670.006 L283.715,680.152 L273.626,668.296 C278.927,665.959 282.86,662.767 282.86,657.865 C282.86,653.248 279.383,649.657 274.424,649.657 C269.465,649.657 265.19,653.077 265.19,658.549 C265.19,661.684 266.672,664.363 269.351,667.669 C264.164,670.234 259.49,673.654 259.49,680.038 C259.49,686.479 264.278,691.039 271.631,691.039 C277.331,691.039 281.036,687.961 283.601,684.598 L288.788,690.64 L292.55,690.64 L285.425,682.318 z M271.745,688.474 C265.931,688.474 262.568,684.94 262.568,679.753 C262.568,674.509 266.444,671.602 270.833,669.436 L281.948,682.603 C279.497,685.966 276.248,688.474 271.745,688.474 z M268.154,658.549 C268.154,654.502 270.833,652.108 274.31,652.108 C277.787,652.108 279.953,654.502 279.953,657.808 C279.953,661.969 277.046,664.363 272.258,666.586 C269.693,663.508 268.154,661.228 268.154,658.549 z" fill="#000000"/>
    <path d="M313.811,690.64 L317.003,690.64 L317.003,673.198 L324.641,673.198 C332.564,673.198 338.492,669.949 338.492,661.57 L338.492,661.342 C338.492,653.077 332.507,649.885 324.584,649.885 L313.811,649.885 z M317.003,670.633 L317.003,652.507 L324.755,652.507 C331.139,652.507 335.3,654.73 335.3,661.342 L335.3,661.57 C335.3,667.84 331.424,670.633 324.869,670.633 z" fill="#000000"/>
    <path d="M355.82,691.096 C361.064,691.096 364.883,688.189 366.251,684.94 L366.251,690.64 L369.272,690.64 L369.272,660.829 L366.251,660.829 L366.251,678.955 C366.251,685.225 361.349,688.474 356.504,688.474 C351.317,688.474 348.353,685.852 348.353,679.525 L348.353,660.829 L345.332,660.829 L345.332,679.696 C345.332,687.904 349.664,691.096 355.82,691.096 z" fill="#000000"/>
    <path d="M392.984,691.096 C400.679,691.096 406.379,685.225 406.379,675.877 L406.379,675.421 C406.379,666.13 400.508,660.373 392.984,660.373 C387.74,660.373 383.351,663.907 381.641,667.783 L381.641,646.579 L378.62,646.579 L378.62,690.64 L381.641,690.64 L381.641,683.857 C383.237,687.505 387.113,691.096 392.984,691.096 z M392.756,688.531 C386.543,688.531 381.584,684.142 381.584,675.991 L381.584,675.535 C381.584,667.327 386.885,662.938 392.699,662.938 C398.399,662.938 403.244,667.327 403.244,675.535 L403.244,675.991 C403.244,683.971 399.026,688.531 392.756,688.531 z" fill="#000000"/>
    <path d="M413.618,690.64 L416.696,690.64 L416.696,646.579 L413.618,646.579 z" fill="#000000"/>
    <path d="M426.272,690.64 L429.293,690.64 L429.293,660.829 L426.272,660.829 z M427.754,654.445 C428.951,654.445 429.863,653.476 429.863,652.279 C429.863,651.139 428.951,650.17 427.754,650.17 C426.557,650.17 425.588,651.139 425.588,652.279 C425.588,653.476 426.557,654.445 427.754,654.445 z" fill="#000000"/>
    <path d="M450.782,691.096 C457.565,691.096 462.695,686.707 463.493,680.323 L460.7,680.323 C459.959,685.681 455.741,688.531 450.782,688.531 C444.512,688.531 439.667,683.914 439.667,676.048 L439.667,675.592 C439.667,667.726 444.569,662.938 450.782,662.938 C455.456,662.938 459.503,665.275 460.244,670.291 L463.208,670.291 C462.41,663.565 456.824,660.373 450.782,660.373 C442.916,660.373 436.532,666.472 436.532,675.592 L436.532,676.048 C436.532,685.111 442.745,691.096 450.782,691.096 z" fill="#000000"/>
    <path d="M485.096,690.64 L488.288,690.64 L488.288,671.545 L512.285,671.545 L512.285,690.64 L515.477,690.64 L515.477,649.885 L512.285,649.885 L512.285,668.866 L488.288,668.866 L488.288,649.885 L485.096,649.885 z" fill="#000000"/>
    <path d="M537.308,691.096 C543.692,691.096 548.423,688.018 549.677,682.318 L546.656,682.318 C545.63,686.479 542.267,688.531 537.308,688.531 C530.24,688.531 526.421,683.971 526.307,675.991 L549.905,675.991 L549.905,674.908 C549.905,665.047 544.034,660.373 536.852,660.373 C528.872,660.373 523.172,666.586 523.172,675.592 L523.172,676.048 C523.172,684.997 528.701,691.096 537.308,691.096 z M526.421,673.54 C526.991,667.042 531.095,662.938 536.852,662.938 C542.666,662.938 546.485,666.301 546.77,673.54 z" fill="#000000"/>
    <path d="M565.181,691.096 C570.197,691.096 573.389,688.987 575.27,686.08 L575.27,690.64 L578.291,690.64 L578.291,670.918 C578.291,663.337 574.073,660.373 567.86,660.373 C562.217,660.373 557.087,662.995 556.403,669.265 L559.367,669.265 C560.051,664.876 563.243,662.938 567.746,662.938 C572.99,662.938 575.27,665.332 575.27,670.918 L575.27,673.597 L569.057,673.597 C561.704,673.597 555.092,675.706 555.092,682.603 C555.092,688.246 559.31,691.096 565.181,691.096 z M565.409,688.645 C560.507,688.645 558.113,686.422 558.113,682.603 C558.113,677.245 562.958,675.934 569.171,675.934 L575.27,675.934 L575.27,681.007 C575.27,685.453 570.881,688.645 565.409,688.645 z" fill="#000000"/>
    <path d="M587.525,690.64 L590.603,690.64 L590.603,646.579 L587.525,646.579 z" fill="#000000"/>
    <path d="M608.501,691.039 C610.325,691.039 611.465,690.754 612.434,690.412 L612.434,687.847 C611.408,688.189 610.211,688.474 608.672,688.474 C605.936,688.474 604.226,686.821 604.226,683.23 L604.226,663.394 L612.035,663.394 L612.035,660.829 L604.226,660.829 L604.226,654.046 L601.205,654.046 L601.205,660.829 L596.816,660.829 L596.816,663.394 L601.205,663.394 L601.205,683.458 C601.205,688.246 603.77,691.039 608.501,691.039 z" fill="#000000"/>
    <path d="M619.331,690.64 L622.352,690.64 L622.352,672.571 C622.352,666.301 627.254,662.995 632.213,662.995 C637.514,662.995 640.478,665.788 640.478,672.115 L640.478,690.64 L643.499,690.64 L643.499,672.286 C643.499,663.793 639.224,660.373 632.897,660.373 C627.596,660.373 623.72,663.394 622.352,666.643 L622.352,646.579 L619.331,646.579 z" fill="#000000"/>
    <path d="M683.912,691.096 C692.69,691.096 699.359,686.308 700.841,677.53 L697.877,677.53 C696.566,684.541 691.322,688.417 683.969,688.417 C674.279,688.417 668.237,681.463 668.237,670.462 L668.237,670.006 C668.237,659.233 674.849,651.937 683.969,651.937 C691.493,651.937 695.939,655.585 697.193,662.14 L700.385,662.14 C699.131,653.761 692.348,649.372 683.912,649.372 C673.253,649.372 664.988,658.036 664.988,670.063 L664.988,670.519 C664.988,682.831 672.284,691.096 683.912,691.096 z" fill="#000000"/>
    <path d="M720.164,688.531 C713.666,688.531 708.878,683.629 708.878,675.991 L708.878,675.535 C708.878,667.783 713.78,662.938 720.164,662.938 C726.491,662.938 731.393,667.669 731.393,675.535 L731.393,675.991 C731.393,683.686 726.548,688.531 720.164,688.531 z M720.107,691.096 C728.144,691.096 734.528,684.94 734.528,675.934 L734.528,675.478 C734.528,666.415 728.201,660.373 720.164,660.373 C712.184,660.373 705.743,666.586 705.743,675.535 L705.743,675.991 C705.743,684.769 712.013,691.096 720.107,691.096 z" fill="#000000"/>
    <path d="M741.653,690.64 L744.674,690.64 L744.674,672.571 C744.674,666.301 749.576,662.995 754.535,662.995 C759.836,662.995 762.8,665.788 762.8,672.115 L762.8,690.64 L765.821,690.64 L765.821,672.286 C765.821,663.793 761.546,660.373 755.219,660.373 C749.918,660.373 746.042,663.394 744.674,666.643 L744.674,660.829 L741.653,660.829 z" fill="#000000"/>
    <path d="M783.833,691.153 C790.616,691.153 794.321,687.505 794.321,682.489 C794.321,676.675 790.673,675.136 784.289,673.996 C778.19,672.913 776.138,671.659 776.138,668.239 C776.138,665.047 778.931,662.938 783.092,662.938 C787.424,662.938 789.875,664.648 790.616,668.467 L793.523,668.467 C792.725,662.596 788.507,660.373 783.149,660.373 C778.133,660.373 773.345,663.28 773.345,668.353 C773.345,673.483 776.309,675.364 783.605,676.675 C789.191,677.701 791.414,678.898 791.414,682.717 C791.414,686.308 788.849,688.588 783.833,688.588 C778.304,688.588 775.796,685.795 775.283,681.748 L772.376,681.748 C772.775,687.448 776.822,691.153 783.833,691.153 z" fill="#000000"/>
    <path d="M811.592,691.096 C816.836,691.096 820.655,688.189 822.023,684.94 L822.023,690.64 L825.044,690.64 L825.044,660.829 L822.023,660.829 L822.023,678.955 C822.023,685.225 817.121,688.474 812.276,688.474 C807.089,688.474 804.125,685.852 804.125,679.525 L804.125,660.829 L801.104,660.829 L801.104,679.696 C801.104,687.904 805.436,691.096 811.592,691.096 z" fill="#000000"/>
    <path d="M834.506,690.64 L837.584,690.64 L837.584,646.579 L834.506,646.579 z" fill="#000000"/>
    <path d="M855.482,691.039 C857.306,691.039 858.446,690.754 859.415,690.412 L859.415,687.847 C858.389,688.189 857.192,688.474 855.653,688.474 C852.917,688.474 851.207,686.821 851.207,683.23 L851.207,663.394 L859.016,663.394 L859.016,660.829 L851.207,660.829 L851.207,654.046 L848.186,654.046 L848.186,660.829 L843.797,660.829 L843.797,663.394 L848.186,663.394 L848.186,683.458 C848.186,688.246 850.751,691.039 855.482,691.039 z" fill="#000000"/>
    <path d="M866.426,690.64 L869.447,690.64 L869.447,660.829 L866.426,660.829 z M867.908,654.445 C869.105,654.445 870.017,653.476 870.017,652.279 C870.017,651.139 869.105,650.17 867.908,650.17 C866.711,650.17 865.742,651.139 865.742,652.279 C865.742,653.476 866.711,654.445 867.908,654.445 z" fill="#000000"/>
    <path d="M878.909,690.64 L881.93,690.64 L881.93,672.571 C881.93,666.301 886.832,662.995 891.791,662.995 C897.092,662.995 900.056,665.788 900.056,672.115 L900.056,690.64 L903.077,690.64 L903.077,672.286 C903.077,663.793 898.802,660.373 892.475,660.373 C887.174,660.373 883.298,663.394 881.93,666.643 L881.93,660.829 L878.909,660.829 z" fill="#000000"/>
    <path d="M923.882,701.356 C931.862,701.356 937.619,697.423 937.676,688.645 L937.676,660.829 L934.655,660.829 L934.655,667.27 C932.945,663.622 929.639,660.373 923.768,660.373 C915.902,660.373 909.917,666.529 909.917,675.022 L909.917,675.421 C909.917,684.085 915.788,689.671 923.369,689.671 C928.898,689.671 933.059,686.023 934.655,682.432 L934.655,688.531 C934.655,695.884 930.209,698.791 923.825,698.791 C917.612,698.791 914.42,696.169 913.622,692.35 L910.544,692.35 C911.285,697.138 915.275,701.356 923.882,701.356 z M923.654,687.106 C917.726,687.106 913.052,682.774 913.052,675.364 L913.052,674.908 C913.052,667.498 917.669,662.938 924.053,662.938 C930.266,662.938 934.712,667.27 934.712,674.794 L934.712,675.25 C934.712,682.717 929.696,687.106 923.654,687.106 z" fill="#000000"/>
  </g>
  <g id="Grey_text" display="none">
    <g>
      <path d="M506.447,66.644 C514.631,66.644 522.969,68.96 530.69,73.284 L810.323,229.854 C827.153,239.118 835.646,256.103 835.646,272.78 C835.646,289.61 827.153,306.286 810.323,315.551 L530.844,472.275 C523.124,476.753 514.631,478.761 506.447,478.761 C479.117,478.761 456.728,459.151 456.728,429.195 L456.728,116.364 C456.728,86.254 479.117,66.644 506.447,66.644 z" clip-path="url(#Clip_13)" filter="url(#Shadow_14)" fill="rgba(0,0,0,0.75)"/>
      <path d="M456.728,116.364 L456.728,429.195 C456.728,459.151 479.117,478.761 506.447,478.761 C514.631,478.761 523.124,476.753 530.844,472.275 L810.323,315.551 C827.153,306.286 835.646,289.61 835.646,272.78 C835.646,256.103 827.153,239.118 810.323,229.854 L530.69,73.284 C522.969,68.96 514.631,66.644 506.447,66.644 C479.117,66.644 456.728,86.254 456.728,116.364 z" fill="#F260B5"/>
    </g>
    <g>
      <path d="M371.975,66.644 C380.159,66.644 388.497,68.961 396.217,73.284 L675.851,229.854 C692.681,239.119 701.174,256.103 701.174,272.78 C701.174,289.61 692.681,306.286 675.851,315.551 L396.372,472.275 C388.651,476.753 380.159,478.761 371.975,478.761 C344.645,478.761 322.256,459.151 322.256,429.195 L322.256,116.364 C322.256,86.254 344.645,66.644 371.975,66.644 z" clip-path="url(#Clip_15)" filter="url(#Shadow_16)" fill="rgba(0,0,0,0.75)"/>
      <path d="M322.256,116.364 L322.256,429.195 C322.256,459.151 344.645,478.761 371.975,478.761 C380.159,478.761 388.651,476.753 396.372,472.275 L675.851,315.551 C692.681,306.286 701.174,289.61 701.174,272.78 C701.174,256.103 692.681,239.119 675.851,229.854 L396.217,73.284 C388.497,68.961 380.159,66.644 371.975,66.644 C344.645,66.644 322.256,86.254 322.256,116.364 z" fill="#CE389C"/>
    </g>
    <g>
      <path d="M238.712,66.644 C246.895,66.644 255.233,68.961 262.954,73.284 L542.587,229.854 C559.418,239.119 567.91,256.103 567.91,272.78 C567.91,289.61 559.418,306.286 542.587,315.551 L263.108,472.275 C255.388,476.753 246.895,478.761 238.712,478.761 C211.381,478.761 188.992,459.151 188.992,429.195 L188.992,116.364 C188.992,86.254 211.381,66.644 238.712,66.644 z" clip-path="url(#Clip_17)" filter="url(#Shadow_18)" fill="rgba(0,0,0,0.75)"/>
      <path d="M188.992,116.364 L188.992,429.195 C188.992,459.151 211.381,478.761 238.712,478.761 C246.895,478.761 255.388,476.753 263.108,472.275 L542.587,315.551 C559.418,306.286 567.91,289.61 567.91,272.78 C567.91,256.103 559.418,239.119 542.587,229.854 L262.954,73.284 C255.233,68.961 246.895,66.644 238.712,66.644 C211.381,66.644 188.992,86.254 188.992,116.364 z" fill="#682A77"/>
    </g>
    <path d="M120.019,627.616 C136.019,627.616 147.419,619.516 149.919,603.016 L141.819,603.016 C140.019,614.616 131.919,620.516 120.219,620.516 C104.819,620.516 95.619,609.516 95.619,591.316 L95.619,590.516 C95.619,572.516 105.519,561.016 120.319,561.016 C132.519,561.016 138.819,566.616 140.619,577.516 L149.219,577.516 C147.719,562.016 135.119,554.116 120.219,554.116 C100.819,554.116 86.619,569.416 86.619,590.616 L86.619,591.416 C86.619,613.416 99.319,627.616 120.019,627.616 z" fill="#535353"/>
    <path d="M184.319,620.716 C173.719,620.716 167.219,612.916 167.219,601.016 L167.219,600.216 C167.219,588.216 173.819,580.416 184.319,580.416 C194.719,580.416 201.419,588.216 201.419,600.316 L201.419,601.016 C201.419,612.816 194.819,620.716 184.319,620.716 z M184.219,627.616 C199.119,627.616 210.019,616.716 210.019,600.916 L210.019,600.116 C210.019,584.416 199.119,573.516 184.319,573.516 C169.519,573.516 158.619,584.516 158.619,600.216 L158.619,601.016 C158.619,616.316 169.319,627.616 184.219,627.616 z" fill="#535353"/>
    <path d="M223.119,626.716 L231.519,626.716 L231.519,549.416 L223.119,549.416 z" fill="#535353"/>
    <path d="M248.719,626.716 L257.119,626.716 L257.119,549.416 L248.719,549.416 z" fill="#535353"/>
    <path d="M295.519,627.616 C307.319,627.616 316.019,622.116 317.819,611.616 L309.519,611.616 C308.419,617.716 303.719,620.716 295.619,620.716 C284.919,620.716 279.219,614.116 278.819,602.216 L318.219,602.216 L318.219,599.516 C318.219,580.816 306.819,573.516 294.719,573.516 C280.319,573.516 270.219,584.516 270.219,600.316 L270.219,601.116 C270.219,617.216 280.719,627.616 295.519,627.616 z M279.119,595.516 C280.519,586.216 286.219,580.416 294.719,580.416 C303.319,580.416 308.919,584.716 309.719,595.516 z" fill="#535353"/>
    <path d="M352.619,627.616 C365.219,627.616 374.319,619.216 375.419,607.916 L367.719,607.916 C366.819,616.416 360.119,620.716 352.719,620.716 C342.619,620.716 335.619,613.916 335.619,601.116 L335.619,600.316 C335.619,588.016 342.919,580.416 352.419,580.416 C359.619,580.416 365.619,583.516 366.919,591.816 L375.119,591.816 C373.519,578.516 363.319,573.516 352.419,573.516 C338.419,573.516 327.019,584.316 327.019,600.316 L327.019,601.116 C327.019,617.316 338.019,627.616 352.619,627.616 z" fill="#535353"/>
    <path d="M403.819,627.416 C407.219,627.416 409.219,626.916 410.919,626.316 L410.919,619.316 C409.119,620.016 407.119,620.416 404.519,620.416 C400.319,620.416 398.019,617.916 398.019,612.816 L398.019,581.416 L410.219,581.416 L410.219,574.416 L398.019,574.416 L398.019,562.516 L389.719,562.516 L389.719,574.416 L382.219,574.416 L382.219,581.416 L389.719,581.416 L389.719,613.616 C389.719,621.816 394.319,627.416 403.819,627.416 z" fill="#535353"/>
    <path d="M423.619,626.716 L431.919,626.716 L431.919,574.416 L423.619,574.416 z M427.619,563.516 C430.619,563.516 433.119,561.016 433.119,558.016 C433.119,555.016 430.619,552.516 427.619,552.516 C424.619,552.516 422.119,555.016 422.119,558.016 C422.119,561.016 424.619,563.516 427.619,563.516 z" fill="#535353"/>
    <path d="M462.019,626.716 L472.619,626.716 L491.419,574.416 L482.819,574.416 L467.519,618.316 L452.019,574.416 L443.019,574.416 z" fill="#535353"/>
    <path d="M502.519,626.716 L510.819,626.716 L510.819,574.416 L502.519,574.416 z M506.519,563.516 C509.519,563.516 512.019,561.016 512.019,558.016 C512.019,555.016 509.519,552.516 506.519,552.516 C503.519,552.516 501.019,555.016 501.019,558.016 C501.019,561.016 503.519,563.516 506.519,563.516 z" fill="#535353"/>
    <path d="M521.519,626.716 L564.819,626.716 L564.819,619.416 L535.019,619.416 L565.219,575.916 L565.219,574.416 L524.519,574.416 L524.519,581.416 L552.419,581.416 L521.519,625.516 z" fill="#535353"/>
    <path d="M597.019,627.616 C608.819,627.616 617.519,622.116 619.319,611.616 L611.019,611.616 C609.919,617.716 605.219,620.716 597.119,620.716 C586.419,620.716 580.719,614.116 580.319,602.216 L619.719,602.216 L619.719,599.516 C619.719,580.816 608.319,573.516 596.219,573.516 C581.819,573.516 571.719,584.516 571.719,600.316 L571.719,601.116 C571.719,617.216 582.219,627.616 597.019,627.616 z M580.619,595.516 C582.019,586.216 587.719,580.416 596.219,580.416 C604.819,580.416 610.419,584.716 611.219,595.516 z" fill="#535353"/>
    <path d="M657.919,626.716 L663.519,626.716 L663.519,593.216 L705.619,593.216 L705.619,626.716 L711.219,626.716 L711.219,555.216 L705.619,555.216 L705.619,588.516 L663.519,588.516 L663.519,555.216 L657.919,555.216 z" fill="#535353"/>
    <path d="M749.519,627.516 C760.719,627.516 769.019,622.116 771.219,612.116 L765.919,612.116 C764.119,619.416 758.219,623.016 749.519,623.016 C737.119,623.016 730.419,615.016 730.219,601.016 L771.619,601.016 L771.619,599.116 C771.619,581.816 761.319,573.616 748.719,573.616 C734.719,573.616 724.719,584.516 724.719,600.316 L724.719,601.116 C724.719,616.816 734.419,627.516 749.519,627.516 z M730.419,596.716 C731.419,585.316 738.619,578.116 748.719,578.116 C758.919,578.116 765.619,584.016 766.119,596.716 z" fill="#535353"/>
    <path d="M798.419,627.516 C807.219,627.516 812.819,623.816 816.119,618.716 L816.119,626.716 L821.419,626.716 L821.419,592.116 C821.419,578.816 814.019,573.616 803.119,573.616 C793.219,573.616 784.219,578.216 783.019,589.216 L788.219,589.216 C789.419,581.516 795.019,578.116 802.919,578.116 C812.119,578.116 816.119,582.316 816.119,592.116 L816.119,596.816 L805.219,596.816 C792.319,596.816 780.719,600.516 780.719,612.616 C780.719,622.516 788.119,627.516 798.419,627.516 z M798.819,623.216 C790.219,623.216 786.019,619.316 786.019,612.616 C786.019,603.216 794.519,600.916 805.419,600.916 L816.119,600.916 L816.119,609.816 C816.119,617.616 808.419,623.216 798.819,623.216 z" fill="#535353"/>
    <path d="M837.619,626.716 L843.019,626.716 L843.019,549.416 L837.619,549.416 z" fill="#535353"/>
    <path d="M874.419,627.416 C877.619,627.416 879.619,626.916 881.319,626.316 L881.319,621.816 C879.519,622.416 877.419,622.916 874.719,622.916 C869.919,622.916 866.919,620.016 866.919,613.716 L866.919,578.916 L880.619,578.916 L880.619,574.416 L866.919,574.416 L866.919,562.516 L861.619,562.516 L861.619,574.416 L853.919,574.416 L853.919,578.916 L861.619,578.916 L861.619,614.116 C861.619,622.516 866.119,627.416 874.419,627.416 z" fill="#535353"/>
    <path d="M893.419,626.716 L898.719,626.716 L898.719,595.016 C898.719,584.016 907.319,578.216 916.019,578.216 C925.319,578.216 930.519,583.116 930.519,594.216 L930.519,626.716 L935.819,626.716 L935.819,594.516 C935.819,579.616 928.319,573.616 917.219,573.616 C907.919,573.616 901.119,578.916 898.719,584.616 L898.719,549.416 L893.419,549.416 z" fill="#535353"/>
    <path d="M89.516,688.018 L89.516,652.507 L96.641,652.507 C108.611,652.507 113.912,659.86 113.912,669.892 L113.912,670.348 C113.912,680.722 108.269,688.018 96.698,688.018 z M86.324,690.64 L96.812,690.64 C110.72,690.64 117.218,681.691 117.218,670.405 L117.218,669.892 C117.218,658.549 110.378,649.885 96.926,649.885 L86.324,649.885 z" fill="#929292"/>
    <path d="M124.97,690.64 L127.991,690.64 L127.991,660.829 L124.97,660.829 z M126.452,654.445 C127.649,654.445 128.561,653.476 128.561,652.279 C128.561,651.139 127.649,650.17 126.452,650.17 C125.255,650.17 124.286,651.139 124.286,652.279 C124.286,653.476 125.255,654.445 126.452,654.445 z" fill="#929292"/>
    <path d="M149.195,701.356 C157.175,701.356 162.932,697.423 162.989,688.645 L162.989,660.829 L159.968,660.829 L159.968,667.27 C158.258,663.622 154.952,660.373 149.081,660.373 C141.215,660.373 135.23,666.529 135.23,675.022 L135.23,675.421 C135.23,684.085 141.101,689.671 148.682,689.671 C154.211,689.671 158.372,686.023 159.968,682.432 L159.968,688.531 C159.968,695.884 155.522,698.791 149.138,698.791 C142.925,698.791 139.733,696.169 138.935,692.35 L135.857,692.35 C136.598,697.138 140.588,701.356 149.195,701.356 z M148.967,687.106 C143.039,687.106 138.365,682.774 138.365,675.364 L138.365,674.908 C138.365,667.498 142.982,662.938 149.366,662.938 C155.579,662.938 160.025,667.27 160.025,674.794 L160.025,675.25 C160.025,682.717 155.009,687.106 148.967,687.106 z" fill="#929292"/>
    <path d="M172.451,690.64 L175.472,690.64 L175.472,660.829 L172.451,660.829 z M173.933,654.445 C175.13,654.445 176.042,653.476 176.042,652.279 C176.042,651.139 175.13,650.17 173.933,650.17 C172.736,650.17 171.767,651.139 171.767,652.279 C171.767,653.476 172.736,654.445 173.933,654.445 z" fill="#929292"/>
    <path d="M193.37,691.039 C195.194,691.039 196.334,690.754 197.303,690.412 L197.303,687.847 C196.277,688.189 195.08,688.474 193.541,688.474 C190.805,688.474 189.095,686.821 189.095,683.23 L189.095,663.394 L196.904,663.394 L196.904,660.829 L189.095,660.829 L189.095,654.046 L186.074,654.046 L186.074,660.829 L181.685,660.829 L181.685,663.394 L186.074,663.394 L186.074,683.458 C186.074,688.246 188.639,691.039 193.37,691.039 z" fill="#929292"/>
    <path d="M212.408,691.096 C217.424,691.096 220.616,688.987 222.497,686.08 L222.497,690.64 L225.518,690.64 L225.518,670.918 C225.518,663.337 221.3,660.373 215.087,660.373 C209.444,660.373 204.314,662.995 203.63,669.265 L206.594,669.265 C207.278,664.876 210.47,662.938 214.973,662.938 C220.217,662.938 222.497,665.332 222.497,670.918 L222.497,673.597 L216.284,673.597 C208.931,673.597 202.319,675.706 202.319,682.603 C202.319,688.246 206.537,691.096 212.408,691.096 z M212.636,688.645 C207.734,688.645 205.34,686.422 205.34,682.603 C205.34,677.245 210.185,675.934 216.398,675.934 L222.497,675.934 L222.497,681.007 C222.497,685.453 218.108,688.645 212.636,688.645 z" fill="#929292"/>
    <path d="M234.752,690.64 L237.83,690.64 L237.83,646.579 L234.752,646.579 z" fill="#929292"/>
    <path d="M292.094,670.006 L289.187,670.006 L283.715,680.152 L273.626,668.296 C278.927,665.959 282.86,662.767 282.86,657.865 C282.86,653.248 279.383,649.657 274.424,649.657 C269.465,649.657 265.19,653.077 265.19,658.549 C265.19,661.684 266.672,664.363 269.351,667.669 C264.164,670.234 259.49,673.654 259.49,680.038 C259.49,686.479 264.278,691.039 271.631,691.039 C277.331,691.039 281.036,687.961 283.601,684.598 L288.788,690.64 L292.55,690.64 L285.425,682.318 z M271.745,688.474 C265.931,688.474 262.568,684.94 262.568,679.753 C262.568,674.509 266.444,671.602 270.833,669.436 L281.948,682.603 C279.497,685.966 276.248,688.474 271.745,688.474 z M268.154,658.549 C268.154,654.502 270.833,652.108 274.31,652.108 C277.787,652.108 279.953,654.502 279.953,657.808 C279.953,661.969 277.046,664.363 272.258,666.586 C269.693,663.508 268.154,661.228 268.154,658.549 z" fill="#929292"/>
    <path d="M313.811,690.64 L317.003,690.64 L317.003,673.198 L324.641,673.198 C332.564,673.198 338.492,669.949 338.492,661.57 L338.492,661.342 C338.492,653.077 332.507,649.885 324.584,649.885 L313.811,649.885 z M317.003,670.633 L317.003,652.507 L324.755,652.507 C331.139,652.507 335.3,654.73 335.3,661.342 L335.3,661.57 C335.3,667.84 331.424,670.633 324.869,670.633 z" fill="#929292"/>
    <path d="M355.82,691.096 C361.064,691.096 364.883,688.189 366.251,684.94 L366.251,690.64 L369.272,690.64 L369.272,660.829 L366.251,660.829 L366.251,678.955 C366.251,685.225 361.349,688.474 356.504,688.474 C351.317,688.474 348.353,685.852 348.353,679.525 L348.353,660.829 L345.332,660.829 L345.332,679.696 C345.332,687.904 349.664,691.096 355.82,691.096 z" fill="#929292"/>
    <path d="M392.984,691.096 C400.679,691.096 406.379,685.225 406.379,675.877 L406.379,675.421 C406.379,666.13 400.508,660.373 392.984,660.373 C387.74,660.373 383.351,663.907 381.641,667.783 L381.641,646.579 L378.62,646.579 L378.62,690.64 L381.641,690.64 L381.641,683.857 C383.237,687.505 387.113,691.096 392.984,691.096 z M392.756,688.531 C386.543,688.531 381.584,684.142 381.584,675.991 L381.584,675.535 C381.584,667.327 386.885,662.938 392.699,662.938 C398.399,662.938 403.244,667.327 403.244,675.535 L403.244,675.991 C403.244,683.971 399.026,688.531 392.756,688.531 z" fill="#929292"/>
    <path d="M413.618,690.64 L416.696,690.64 L416.696,646.579 L413.618,646.579 z" fill="#929292"/>
    <path d="M426.272,690.64 L429.293,690.64 L429.293,660.829 L426.272,660.829 z M427.754,654.445 C428.951,654.445 429.863,653.476 429.863,652.279 C429.863,651.139 428.951,650.17 427.754,650.17 C426.557,650.17 425.588,651.139 425.588,652.279 C425.588,653.476 426.557,654.445 427.754,654.445 z" fill="#929292"/>
    <path d="M450.782,691.096 C457.565,691.096 462.695,686.707 463.493,680.323 L460.7,680.323 C459.959,685.681 455.741,688.531 450.782,688.531 C444.512,688.531 439.667,683.914 439.667,676.048 L439.667,675.592 C439.667,667.726 444.569,662.938 450.782,662.938 C455.456,662.938 459.503,665.275 460.244,670.291 L463.208,670.291 C462.41,663.565 456.824,660.373 450.782,660.373 C442.916,660.373 436.532,666.472 436.532,675.592 L436.532,676.048 C436.532,685.111 442.745,691.096 450.782,691.096 z" fill="#929292"/>
    <path d="M485.096,690.64 L488.288,690.64 L488.288,671.545 L512.285,671.545 L512.285,690.64 L515.477,690.64 L515.477,649.885 L512.285,649.885 L512.285,668.866 L488.288,668.866 L488.288,649.885 L485.096,649.885 z" fill="#929292"/>
    <path d="M537.308,691.096 C543.692,691.096 548.423,688.018 549.677,682.318 L546.656,682.318 C545.63,686.479 542.267,688.531 537.308,688.531 C530.24,688.531 526.421,683.971 526.307,675.991 L549.905,675.991 L549.905,674.908 C549.905,665.047 544.034,660.373 536.852,660.373 C528.872,660.373 523.172,666.586 523.172,675.592 L523.172,676.048 C523.172,684.997 528.701,691.096 537.308,691.096 z M526.421,673.54 C526.991,667.042 531.095,662.938 536.852,662.938 C542.666,662.938 546.485,666.301 546.77,673.54 z" fill="#929292"/>
    <path d="M565.181,691.096 C570.197,691.096 573.389,688.987 575.27,686.08 L575.27,690.64 L578.291,690.64 L578.291,670.918 C578.291,663.337 574.073,660.373 567.86,660.373 C562.217,660.373 557.087,662.995 556.403,669.265 L559.367,669.265 C560.051,664.876 563.243,662.938 567.746,662.938 C572.99,662.938 575.27,665.332 575.27,670.918 L575.27,673.597 L569.057,673.597 C561.704,673.597 555.092,675.706 555.092,682.603 C555.092,688.246 559.31,691.096 565.181,691.096 z M565.409,688.645 C560.507,688.645 558.113,686.422 558.113,682.603 C558.113,677.245 562.958,675.934 569.171,675.934 L575.27,675.934 L575.27,681.007 C575.27,685.453 570.881,688.645 565.409,688.645 z" fill="#929292"/>
    <path d="M587.525,690.64 L590.603,690.64 L590.603,646.579 L587.525,646.579 z" fill="#929292"/>
    <path d="M608.501,691.039 C610.325,691.039 611.465,690.754 612.434,690.412 L612.434,687.847 C611.408,688.189 610.211,688.474 608.672,688.474 C605.936,688.474 604.226,686.821 604.226,683.23 L604.226,663.394 L612.035,663.394 L612.035,660.829 L604.226,660.829 L604.226,654.046 L601.205,654.046 L601.205,660.829 L596.816,660.829 L596.816,663.394 L601.205,663.394 L601.205,683.458 C601.205,688.246 603.77,691.039 608.501,691.039 z" fill="#929292"/>
    <path d="M619.331,690.64 L622.352,690.64 L622.352,672.571 C622.352,666.301 627.254,662.995 632.213,662.995 C637.514,662.995 640.478,665.788 640.478,672.115 L640.478,690.64 L643.499,690.64 L643.499,672.286 C643.499,663.793 639.224,660.373 632.897,660.373 C627.596,660.373 623.72,663.394 622.352,666.643 L622.352,646.579 L619.331,646.579 z" fill="#929292"/>
    <path d="M683.912,691.096 C692.69,691.096 699.359,686.308 700.841,677.53 L697.877,677.53 C696.566,684.541 691.322,688.417 683.969,688.417 C674.279,688.417 668.237,681.463 668.237,670.462 L668.237,670.006 C668.237,659.233 674.849,651.937 683.969,651.937 C691.493,651.937 695.939,655.585 697.193,662.14 L700.385,662.14 C699.131,653.761 692.348,649.372 683.912,649.372 C673.253,649.372 664.988,658.036 664.988,670.063 L664.988,670.519 C664.988,682.831 672.284,691.096 683.912,691.096 z" fill="#929292"/>
    <path d="M720.164,688.531 C713.666,688.531 708.878,683.629 708.878,675.991 L708.878,675.535 C708.878,667.783 713.78,662.938 720.164,662.938 C726.491,662.938 731.393,667.669 731.393,675.535 L731.393,675.991 C731.393,683.686 726.548,688.531 720.164,688.531 z M720.107,691.096 C728.144,691.096 734.528,684.94 734.528,675.934 L734.528,675.478 C734.528,666.415 728.201,660.373 720.164,660.373 C712.184,660.373 705.743,666.586 705.743,675.535 L705.743,675.991 C705.743,684.769 712.013,691.096 720.107,691.096 z" fill="#929292"/>
    <path d="M741.653,690.64 L744.674,690.64 L744.674,672.571 C744.674,666.301 749.576,662.995 754.535,662.995 C759.836,662.995 762.8,665.788 762.8,672.115 L762.8,690.64 L765.821,690.64 L765.821,672.286 C765.821,663.793 761.546,660.373 755.219,660.373 C749.918,660.373 746.042,663.394 744.674,666.643 L744.674,660.829 L741.653,660.829 z" fill="#929292"/>
    <path d="M783.833,691.153 C790.616,691.153 794.321,687.505 794.321,682.489 C794.321,676.675 790.673,675.136 784.289,673.996 C778.19,672.913 776.138,671.659 776.138,668.239 C776.138,665.047 778.931,662.938 783.092,662.938 C787.424,662.938 789.875,664.648 790.616,668.467 L793.523,668.467 C792.725,662.596 788.507,660.373 783.149,660.373 C778.133,660.373 773.345,663.28 773.345,668.353 C773.345,673.483 776.309,675.364 783.605,676.675 C789.191,677.701 791.414,678.898 791.414,682.717 C791.414,686.308 788.849,688.588 783.833,688.588 C778.304,688.588 775.796,685.795 775.283,681.748 L772.376,681.748 C772.775,687.448 776.822,691.153 783.833,691.153 z" fill="#929292"/>
    <path d="M811.592,691.096 C816.836,691.096 820.655,688.189 822.023,684.94 L822.023,690.64 L825.044,690.64 L825.044,660.829 L822.023,660.829 L822.023,678.955 C822.023,685.225 817.121,688.474 812.276,688.474 C807.089,688.474 804.125,685.852 804.125,679.525 L804.125,660.829 L801.104,660.829 L801.104,679.696 C801.104,687.904 805.436,691.096 811.592,691.096 z" fill="#929292"/>
    <path d="M834.506,690.64 L837.584,690.64 L837.584,646.579 L834.506,646.579 z" fill="#929292"/>
    <path d="M855.482,691.039 C857.306,691.039 858.446,690.754 859.415,690.412 L859.415,687.847 C858.389,688.189 857.192,688.474 855.653,688.474 C852.917,688.474 851.207,686.821 851.207,683.23 L851.207,663.394 L859.016,663.394 L859.016,660.829 L851.207,660.829 L851.207,654.046 L848.186,654.046 L848.186,660.829 L843.797,660.829 L843.797,663.394 L848.186,663.394 L848.186,683.458 C848.186,688.246 850.751,691.039 855.482,691.039 z" fill="#929292"/>
    <path d="M866.426,690.64 L869.447,690.64 L869.447,660.829 L866.426,660.829 z M867.908,654.445 C869.105,654.445 870.017,653.476 870.017,652.279 C870.017,651.139 869.105,650.17 867.908,650.17 C866.711,650.17 865.742,651.139 865.742,652.279 C865.742,653.476 866.711,654.445 867.908,654.445 z" fill="#929292"/>
    <path d="M878.909,690.64 L881.93,690.64 L881.93,672.571 C881.93,666.301 886.832,662.995 891.791,662.995 C897.092,662.995 900.056,665.788 900.056,672.115 L900.056,690.64 L903.077,690.64 L903.077,672.286 C903.077,663.793 898.802,660.373 892.475,660.373 C887.174,660.373 883.298,663.394 881.93,666.643 L881.93,660.829 L878.909,660.829 z" fill="#929292"/>
    <path d="M923.882,701.356 C931.862,701.356 937.619,697.423 937.676,688.645 L937.676,660.829 L934.655,660.829 L934.655,667.27 C932.945,663.622 929.639,660.373 923.768,660.373 C915.902,660.373 909.917,666.529 909.917,675.022 L909.917,675.421 C909.917,684.085 915.788,689.671 923.369,689.671 C928.898,689.671 933.059,686.023 934.655,682.432 L934.655,688.531 C934.655,695.884 930.209,698.791 923.825,698.791 C917.612,698.791 914.42,696.169 913.622,692.35 L910.544,692.35 C911.285,697.138 915.275,701.356 923.882,701.356 z M923.654,687.106 C917.726,687.106 913.052,682.774 913.052,675.364 L913.052,674.908 C913.052,667.498 917.669,662.938 924.053,662.938 C930.266,662.938 934.712,667.27 934.712,674.794 L934.712,675.25 C934.712,682.717 929.696,687.106 923.654,687.106 z" fill="#929292"/>
  </g>
</svg>
