<?xml version="1.0" encoding="UTF-8"?>
<!DOCTYPE svg PUBLIC "-//W3C//DTD SVG 1.1//EN" "http://www.w3.org/Graphics/SVG/1.1/DTD/svg11.dtd">
<svg version="1.1" xmlns="http://www.w3.org/2000/svg" xmlns:xlink="http://www.w3.org/1999/xlink" x="0" y="0" width="2048" height="1536" viewBox="0, 0, 1024, 768">
  <defs>
    <clipPath id="Clip_1">
      <path d="M450.711,75.964 L841.629,75.964 L841.629,504.081 L450.711,504.081 z M506.43,83.964 C479.1,83.964 456.711,103.574 456.711,133.684 L456.711,446.515 C456.711,476.471 479.1,496.081 506.43,496.081 C514.614,496.081 523.106,494.073 530.827,489.595 L810.306,332.871 C827.136,323.606 835.629,306.93 835.629,290.1 C835.629,273.423 827.136,256.439 810.306,247.174 L530.672,90.604 C522.952,86.28 514.614,83.964 506.43,83.964 z"/>
    </clipPath>
    <filter id="Shadow_2">
      <feGaussianBlur in="SourceAlpha" stdDeviation="2.5"/>
      <feOffset dx="0" dy="2" result="offsetblur"/>
      <feFlood flood-color="#000000"/>
      <feComposite in2="offsetblur" operator="in"/>
    </filter>
    <clipPath id="Clip_3">
      <path d="M316.239,75.964 L707.157,75.964 L707.157,504.081 L316.239,504.081 z M371.958,83.964 C344.628,83.964 322.239,103.574 322.239,133.684 L322.239,446.515 C322.239,476.471 344.628,496.081 371.958,496.081 C380.142,496.081 388.634,494.073 396.355,489.595 L675.834,332.871 C692.664,323.606 701.157,306.93 701.157,290.1 C701.157,273.423 692.664,256.439 675.834,247.174 L396.2,90.604 C388.48,86.281 380.142,83.964 371.958,83.964 z"/>
    </clipPath>
    <filter id="Shadow_4">
      <feGaussianBlur in="SourceAlpha" stdDeviation="2.5"/>
      <feOffset dx="0" dy="2" result="offsetblur"/>
      <feFlood flood-color="#000000"/>
      <feComposite in2="offsetblur" operator="in"/>
    </filter>
    <clipPath id="Clip_5">
      <path d="M182.975,75.964 L573.893,75.964 L573.893,504.081 L182.975,504.081 z M238.695,83.964 C211.364,83.964 188.975,103.574 188.975,133.684 L188.975,446.515 C188.975,476.471 211.364,496.081 238.695,496.081 C246.878,496.081 255.371,494.073 263.091,489.595 L542.57,332.871 C559.4,323.606 567.893,306.93 567.893,290.1 C567.893,273.423 559.4,256.439 542.57,247.174 L262.937,90.604 C255.216,86.281 246.878,83.964 238.695,83.964 z"/>
    </clipPath>
    <filter id="Shadow_6">
      <feGaussianBlur in="SourceAlpha" stdDeviation="2.5"/>
      <feOffset dx="0" dy="2" result="offsetblur"/>
      <feFlood flood-color="#000000"/>
      <feComposite in2="offsetblur" operator="in"/>
    </filter>
    <clipPath id="Clip_7">
      <path d="M450.711,75.964 L841.629,75.964 L841.629,504.081 L450.711,504.081 z M506.43,83.964 C479.1,83.964 456.711,103.574 456.711,133.684 L456.711,446.515 C456.711,476.471 479.1,496.081 506.43,496.081 C514.614,496.081 523.106,494.073 530.827,489.595 L810.306,332.871 C827.136,323.606 835.629,306.93 835.629,290.1 C835.629,273.423 827.136,256.439 810.306,247.174 L530.672,90.604 C522.952,86.28 514.614,83.964 506.43,83.964 z"/>
    </clipPath>
    <filter id="Shadow_8">
      <feGaussianBlur in="SourceAlpha" stdDeviation="2.5"/>
      <feOffset dx="0" dy="2" result="offsetblur"/>
      <feFlood flood-color="#000000"/>
      <feComposite in2="offsetblur" operator="in"/>
    </filter>
    <clipPath id="Clip_9">
      <path d="M316.239,75.964 L707.157,75.964 L707.157,504.081 L316.239,504.081 z M371.958,83.964 C344.628,83.964 322.239,103.574 322.239,133.684 L322.239,446.515 C322.239,476.471 344.628,496.081 371.958,496.081 C380.142,496.081 388.634,494.073 396.355,489.595 L675.834,332.871 C692.664,323.606 701.157,306.93 701.157,290.1 C701.157,273.423 692.664,256.439 675.834,247.174 L396.2,90.604 C388.48,86.281 380.142,83.964 371.958,83.964 z"/>
    </clipPath>
    <filter id="Shadow_10">
      <feGaussianBlur in="SourceAlpha" stdDeviation="2.5"/>
      <feOffset dx="0" dy="2" result="offsetblur"/>
      <feFlood flood-color="#000000"/>
      <feComposite in2="offsetblur" operator="in"/>
    </filter>
    <clipPath id="Clip_11">
      <path d="M182.975,75.964 L573.893,75.964 L573.893,504.081 L182.975,504.081 z M238.695,83.964 C211.364,83.964 188.975,103.574 188.975,133.684 L188.975,446.515 C188.975,476.471 211.364,496.081 238.695,496.081 C246.878,496.081 255.371,494.073 263.091,489.595 L542.57,332.871 C559.4,323.606 567.893,306.93 567.893,290.1 C567.893,273.423 559.4,256.439 542.57,247.174 L262.937,90.604 C255.216,86.281 246.878,83.964 238.695,83.964 z"/>
    </clipPath>
    <filter id="Shadow_12">
      <feGaussianBlur in="SourceAlpha" stdDeviation="2.5"/>
      <feOffset dx="0" dy="2" result="offsetblur"/>
      <feFlood flood-color="#000000"/>
      <feComposite in2="offsetblur" operator="in"/>
    </filter>
    <clipPath id="Clip_13">
      <path d="M450.711,75.964 L841.629,75.964 L841.629,504.081 L450.711,504.081 z M506.43,83.964 C479.1,83.964 456.711,103.574 456.711,133.684 L456.711,446.515 C456.711,476.471 479.1,496.081 506.43,496.081 C514.614,496.081 523.106,494.073 530.827,489.595 L810.306,332.871 C827.136,323.606 835.629,306.93 835.629,290.1 C835.629,273.423 827.136,256.439 810.306,247.174 L530.672,90.604 C522.952,86.28 514.614,83.964 506.43,83.964 z"/>
    </clipPath>
    <filter id="Shadow_14">
      <feGaussianBlur in="SourceAlpha" stdDeviation="2.5"/>
      <feOffset dx="0" dy="2" result="offsetblur"/>
      <feFlood flood-color="#000000"/>
      <feComposite in2="offsetblur" operator="in"/>
    </filter>
    <clipPath id="Clip_15">
      <path d="M316.239,75.964 L707.157,75.964 L707.157,504.081 L316.239,504.081 z M371.958,83.964 C344.628,83.964 322.239,103.574 322.239,133.684 L322.239,446.515 C322.239,476.471 344.628,496.081 371.958,496.081 C380.142,496.081 388.634,494.073 396.355,489.595 L675.834,332.871 C692.664,323.606 701.157,306.93 701.157,290.1 C701.157,273.423 692.664,256.439 675.834,247.174 L396.2,90.604 C388.48,86.281 380.142,83.964 371.958,83.964 z"/>
    </clipPath>
    <filter id="Shadow_16">
      <feGaussianBlur in="SourceAlpha" stdDeviation="2.5"/>
      <feOffset dx="0" dy="2" result="offsetblur"/>
      <feFlood flood-color="#000000"/>
      <feComposite in2="offsetblur" operator="in"/>
    </filter>
    <clipPath id="Clip_17">
      <path d="M182.975,75.964 L573.893,75.964 L573.893,504.081 L182.975,504.081 z M238.695,83.964 C211.364,83.964 188.975,103.574 188.975,133.684 L188.975,446.515 C188.975,476.471 211.364,496.081 238.695,496.081 C246.878,496.081 255.371,494.073 263.091,489.595 L542.57,332.871 C559.4,323.606 567.893,306.93 567.893,290.1 C567.893,273.423 559.4,256.439 542.57,247.174 L262.937,90.604 C255.216,86.281 246.878,83.964 238.695,83.964 z"/>
    </clipPath>
    <filter id="Shadow_18">
      <feGaussianBlur in="SourceAlpha" stdDeviation="2.5"/>
      <feOffset dx="0" dy="2" result="offsetblur"/>
      <feFlood flood-color="#000000"/>
      <feComposite in2="offsetblur" operator="in"/>
    </filter>
  </defs>
  <g id="White_text">
    <g>
      <path d="M506.43,83.964 C514.614,83.964 522.952,86.28 530.672,90.604 L810.306,247.174 C827.136,256.439 835.629,273.423 835.629,290.1 C835.629,306.93 827.136,323.606 810.306,332.871 L530.827,489.595 C523.106,494.073 514.614,496.081 506.43,496.081 C479.1,496.081 456.711,476.471 456.711,446.515 L456.711,133.684 C456.711,103.574 479.1,83.964 506.43,83.964 z" clip-path="url(#Clip_1)" filter="url(#Shadow_2)" fill="rgba(0,0,0,0.75)"/>
      <path d="M456.711,133.684 L456.711,446.515 C456.711,476.471 479.1,496.081 506.43,496.081 C514.614,496.081 523.106,494.073 530.827,489.595 L810.306,332.871 C827.136,323.606 835.629,306.93 835.629,290.1 C835.629,273.423 827.136,256.439 810.306,247.174 L530.672,90.604 C522.952,86.28 514.614,83.964 506.43,83.964 C479.1,83.964 456.711,103.574 456.711,133.684 z" fill="#F260B5"/>
    </g>
    <g>
      <path d="M371.958,83.964 C380.142,83.964 388.48,86.281 396.2,90.604 L675.834,247.174 C692.664,256.439 701.157,273.423 701.157,290.1 C701.157,306.93 692.664,323.606 675.834,332.871 L396.355,489.595 C388.634,494.073 380.142,496.081 371.958,496.081 C344.628,496.081 322.239,476.471 322.239,446.515 L322.239,133.684 C322.239,103.574 344.628,83.964 371.958,83.964 z" clip-path="url(#Clip_3)" filter="url(#Shadow_4)" fill="rgba(0,0,0,0.75)"/>
      <path d="M322.239,133.684 L322.239,446.515 C322.239,476.471 344.628,496.081 371.958,496.081 C380.142,496.081 388.634,494.073 396.355,489.595 L675.834,332.871 C692.664,323.606 701.157,306.93 701.157,290.1 C701.157,273.423 692.664,256.439 675.834,247.174 L396.2,90.604 C388.48,86.281 380.142,83.964 371.958,83.964 C344.628,83.964 322.239,103.574 322.239,133.684 z" fill="#CE389C"/>
    </g>
    <g>
      <path d="M238.695,83.964 C246.878,83.964 255.216,86.281 262.937,90.604 L542.57,247.174 C559.4,256.439 567.893,273.423 567.893,290.1 C567.893,306.93 559.4,323.606 542.57,332.871 L263.091,489.595 C255.371,494.073 246.878,496.081 238.695,496.081 C211.364,496.081 188.975,476.471 188.975,446.515 L188.975,133.684 C188.975,103.574 211.364,83.964 238.695,83.964 z" clip-path="url(#Clip_5)" filter="url(#Shadow_6)" fill="rgba(0,0,0,0.75)"/>
      <path d="M188.975,133.684 L188.975,446.515 C188.975,476.471 211.364,496.081 238.695,496.081 C246.878,496.081 255.371,494.073 263.091,489.595 L542.57,332.871 C559.4,323.606 567.893,306.93 567.893,290.1 C567.893,273.423 559.4,256.439 542.57,247.174 L262.937,90.604 C255.216,86.281 246.878,83.964 238.695,83.964 C211.364,83.964 188.975,103.574 188.975,133.684 z" fill="#682A77"/>
    </g>
    <path d="M120.002,614.936 C136.002,614.936 147.402,606.836 149.902,590.336 L141.802,590.336 C140.002,601.936 131.902,607.836 120.202,607.836 C104.802,607.836 95.602,596.836 95.602,578.636 L95.602,577.836 C95.602,559.836 105.502,548.336 120.302,548.336 C132.502,548.336 138.802,553.936 140.602,564.836 L149.202,564.836 C147.702,549.336 135.102,541.436 120.202,541.436 C100.802,541.436 86.602,556.736 86.602,577.936 L86.602,578.736 C86.602,600.736 99.302,614.936 120.002,614.936 z" fill="#FFFFFF"/>
    <path d="M184.302,608.036 C173.702,608.036 167.202,600.236 167.202,588.336 L167.202,587.536 C167.202,575.536 173.802,567.736 184.302,567.736 C194.702,567.736 201.402,575.536 201.402,587.636 L201.402,588.336 C201.402,600.136 194.802,608.036 184.302,608.036 z M184.202,614.936 C199.102,614.936 210.002,604.036 210.002,588.236 L210.002,587.436 C210.002,571.736 199.102,560.836 184.302,560.836 C169.502,560.836 158.602,571.836 158.602,587.536 L158.602,588.336 C158.602,603.636 169.302,614.936 184.202,614.936 z" fill="#FFFFFF"/>
    <path d="M223.102,614.036 L231.502,614.036 L231.502,536.736 L223.102,536.736 z" fill="#FFFFFF"/>
    <path d="M248.702,614.036 L257.102,614.036 L257.102,536.736 L248.702,536.736 z" fill="#FFFFFF"/>
    <path d="M295.502,614.936 C307.302,614.936 316.002,609.436 317.802,598.936 L309.502,598.936 C308.402,605.036 303.702,608.036 295.602,608.036 C284.902,608.036 279.202,601.436 278.802,589.536 L318.202,589.536 L318.202,586.836 C318.202,568.136 306.802,560.836 294.702,560.836 C280.302,560.836 270.202,571.836 270.202,587.636 L270.202,588.436 C270.202,604.536 280.702,614.936 295.502,614.936 z M279.102,582.836 C280.502,573.536 286.202,567.736 294.702,567.736 C303.302,567.736 308.902,572.036 309.702,582.836 z" fill="#FFFFFF"/>
    <path d="M352.602,614.936 C365.202,614.936 374.302,606.536 375.402,595.236 L367.702,595.236 C366.802,603.736 360.102,608.036 352.702,608.036 C342.602,608.036 335.602,601.236 335.602,588.436 L335.602,587.636 C335.602,575.336 342.902,567.736 352.402,567.736 C359.602,567.736 365.602,570.836 366.902,579.136 L375.102,579.136 C373.502,565.836 363.302,560.836 352.402,560.836 C338.402,560.836 327.002,571.636 327.002,587.636 L327.002,588.436 C327.002,604.636 338.002,614.936 352.602,614.936 z" fill="#FFFFFF"/>
    <path d="M403.802,614.736 C407.202,614.736 409.202,614.236 410.902,613.636 L410.902,606.636 C409.102,607.336 407.102,607.736 404.502,607.736 C400.302,607.736 398.002,605.236 398.002,600.136 L398.002,568.736 L410.202,568.736 L410.202,561.736 L398.002,561.736 L398.002,549.836 L389.702,549.836 L389.702,561.736 L382.202,561.736 L382.202,568.736 L389.702,568.736 L389.702,600.936 C389.702,609.136 394.302,614.736 403.802,614.736 z" fill="#FFFFFF"/>
    <path d="M423.602,614.036 L431.902,614.036 L431.902,561.736 L423.602,561.736 z M427.602,550.836 C430.602,550.836 433.102,548.336 433.102,545.336 C433.102,542.336 430.602,539.836 427.602,539.836 C424.602,539.836 422.102,542.336 422.102,545.336 C422.102,548.336 424.602,550.836 427.602,550.836 z" fill="#FFFFFF"/>
    <path d="M462.002,614.036 L472.602,614.036 L491.402,561.736 L482.802,561.736 L467.502,605.636 L452.002,561.736 L443.002,561.736 z" fill="#FFFFFF"/>
    <path d="M502.502,614.036 L510.802,614.036 L510.802,561.736 L502.502,561.736 z M506.502,550.836 C509.502,550.836 512.002,548.336 512.002,545.336 C512.002,542.336 509.502,539.836 506.502,539.836 C503.502,539.836 501.002,542.336 501.002,545.336 C501.002,548.336 503.502,550.836 506.502,550.836 z" fill="#FFFFFF"/>
    <path d="M521.502,614.036 L564.802,614.036 L564.802,606.736 L535.002,606.736 L565.202,563.236 L565.202,561.736 L524.502,561.736 L524.502,568.736 L552.402,568.736 L521.502,612.836 z" fill="#FFFFFF"/>
    <path d="M597.002,614.936 C608.802,614.936 617.502,609.436 619.302,598.936 L611.002,598.936 C609.902,605.036 605.202,608.036 597.102,608.036 C586.402,608.036 580.702,601.436 580.302,589.536 L619.702,589.536 L619.702,586.836 C619.702,568.136 608.302,560.836 596.202,560.836 C581.802,560.836 571.702,571.836 571.702,587.636 L571.702,588.436 C571.702,604.536 582.202,614.936 597.002,614.936 z M580.602,582.836 C582.002,573.536 587.702,567.736 596.202,567.736 C604.802,567.736 610.402,572.036 611.202,582.836 z" fill="#FFFFFF"/>
    <path d="M657.902,614.036 L663.502,614.036 L663.502,580.536 L705.602,580.536 L705.602,614.036 L711.202,614.036 L711.202,542.536 L705.602,542.536 L705.602,575.836 L663.502,575.836 L663.502,542.536 L657.902,542.536 z" fill="#FFFFFF"/>
    <path d="M749.502,614.836 C760.702,614.836 769.002,609.436 771.202,599.436 L765.902,599.436 C764.102,606.736 758.202,610.336 749.502,610.336 C737.102,610.336 730.402,602.336 730.202,588.336 L771.602,588.336 L771.602,586.436 C771.602,569.136 761.302,560.936 748.702,560.936 C734.702,560.936 724.702,571.836 724.702,587.636 L724.702,588.436 C724.702,604.136 734.402,614.836 749.502,614.836 z M730.402,584.036 C731.402,572.636 738.602,565.436 748.702,565.436 C758.902,565.436 765.602,571.336 766.102,584.036 z" fill="#FFFFFF"/>
    <path d="M798.402,614.836 C807.202,614.836 812.802,611.136 816.102,606.036 L816.102,614.036 L821.402,614.036 L821.402,579.436 C821.402,566.136 814.002,560.936 803.102,560.936 C793.202,560.936 784.202,565.536 783.002,576.536 L788.202,576.536 C789.402,568.836 795.002,565.436 802.902,565.436 C812.102,565.436 816.102,569.636 816.102,579.436 L816.102,584.136 L805.202,584.136 C792.302,584.136 780.702,587.836 780.702,599.936 C780.702,609.836 788.102,614.836 798.402,614.836 z M798.802,610.536 C790.202,610.536 786.002,606.636 786.002,599.936 C786.002,590.536 794.502,588.236 805.402,588.236 L816.102,588.236 L816.102,597.136 C816.102,604.936 808.402,610.536 798.802,610.536 z" fill="#FFFFFF"/>
    <path d="M837.602,614.036 L843.002,614.036 L843.002,536.736 L837.602,536.736 z" fill="#FFFFFF"/>
    <path d="M874.402,614.736 C877.602,614.736 879.602,614.236 881.302,613.636 L881.302,609.136 C879.502,609.736 877.402,610.236 874.702,610.236 C869.902,610.236 866.902,607.336 866.902,601.036 L866.902,566.236 L880.602,566.236 L880.602,561.736 L866.902,561.736 L866.902,549.836 L861.602,549.836 L861.602,561.736 L853.902,561.736 L853.902,566.236 L861.602,566.236 L861.602,601.436 C861.602,609.836 866.102,614.736 874.402,614.736 z" fill="#FFFFFF"/>
    <path d="M893.402,614.036 L898.702,614.036 L898.702,582.336 C898.702,571.336 907.302,565.536 916.002,565.536 C925.302,565.536 930.502,570.436 930.502,581.536 L930.502,614.036 L935.802,614.036 L935.802,581.836 C935.802,566.936 928.302,560.936 917.202,560.936 C907.902,560.936 901.102,566.236 898.702,571.936 L898.702,536.736 L893.402,536.736 z" fill="#FFFFFF"/>
    <path d="M89.499,675.338 L89.499,639.827 L96.624,639.827 C108.594,639.827 113.895,647.18 113.895,657.212 L113.895,657.668 C113.895,668.042 108.252,675.338 96.681,675.338 z M86.307,677.96 L96.795,677.96 C110.703,677.96 117.201,669.011 117.201,657.725 L117.201,657.212 C117.201,645.869 110.361,637.205 96.909,637.205 L86.307,637.205 z" fill="#FFFFFF"/>
    <path d="M124.953,677.96 L127.974,677.96 L127.974,648.149 L124.953,648.149 z M126.435,641.765 C127.632,641.765 128.544,640.796 128.544,639.599 C128.544,638.459 127.632,637.49 126.435,637.49 C125.238,637.49 124.269,638.459 124.269,639.599 C124.269,640.796 125.238,641.765 126.435,641.765 z" fill="#FFFFFF"/>
    <path d="M149.178,688.676 C157.158,688.676 162.915,684.743 162.972,675.965 L162.972,648.149 L159.951,648.149 L159.951,654.59 C158.241,650.942 154.935,647.693 149.064,647.693 C141.198,647.693 135.213,653.849 135.213,662.342 L135.213,662.741 C135.213,671.405 141.084,676.991 148.665,676.991 C154.194,676.991 158.355,673.343 159.951,669.752 L159.951,675.851 C159.951,683.204 155.505,686.111 149.121,686.111 C142.908,686.111 139.716,683.489 138.918,679.67 L135.84,679.67 C136.581,684.458 140.571,688.676 149.178,688.676 z M148.95,674.426 C143.022,674.426 138.348,670.094 138.348,662.684 L138.348,662.228 C138.348,654.818 142.965,650.258 149.349,650.258 C155.562,650.258 160.008,654.59 160.008,662.114 L160.008,662.57 C160.008,670.037 154.992,674.426 148.95,674.426 z" fill="#FFFFFF"/>
    <path d="M172.434,677.96 L175.455,677.96 L175.455,648.149 L172.434,648.149 z M173.916,641.765 C175.113,641.765 176.025,640.796 176.025,639.599 C176.025,638.459 175.113,637.49 173.916,637.49 C172.719,637.49 171.75,638.459 171.75,639.599 C171.75,640.796 172.719,641.765 173.916,641.765 z" fill="#FFFFFF"/>
    <path d="M193.353,678.359 C195.177,678.359 196.317,678.074 197.286,677.732 L197.286,675.167 C196.26,675.509 195.063,675.794 193.524,675.794 C190.788,675.794 189.078,674.141 189.078,670.55 L189.078,650.714 L196.887,650.714 L196.887,648.149 L189.078,648.149 L189.078,641.366 L186.057,641.366 L186.057,648.149 L181.668,648.149 L181.668,650.714 L186.057,650.714 L186.057,670.778 C186.057,675.566 188.622,678.359 193.353,678.359 z" fill="#FFFFFF"/>
    <path d="M212.391,678.416 C217.407,678.416 220.599,676.307 222.48,673.4 L222.48,677.96 L225.501,677.96 L225.501,658.238 C225.501,650.657 221.283,647.693 215.07,647.693 C209.427,647.693 204.297,650.315 203.613,656.585 L206.577,656.585 C207.261,652.196 210.453,650.258 214.956,650.258 C220.2,650.258 222.48,652.652 222.48,658.238 L222.48,660.917 L216.267,660.917 C208.914,660.917 202.302,663.026 202.302,669.923 C202.302,675.566 206.52,678.416 212.391,678.416 z M212.619,675.965 C207.717,675.965 205.323,673.742 205.323,669.923 C205.323,664.565 210.168,663.254 216.381,663.254 L222.48,663.254 L222.48,668.327 C222.48,672.773 218.091,675.965 212.619,675.965 z" fill="#FFFFFF"/>
    <path d="M234.735,677.96 L237.813,677.96 L237.813,633.899 L234.735,633.899 z" fill="#FFFFFF"/>
    <path d="M292.077,657.326 L289.17,657.326 L283.698,667.472 L273.609,655.616 C278.91,653.279 282.843,650.087 282.843,645.185 C282.843,640.568 279.366,636.977 274.407,636.977 C269.448,636.977 265.173,640.397 265.173,645.869 C265.173,649.004 266.655,651.683 269.334,654.989 C264.147,657.554 259.473,660.974 259.473,667.358 C259.473,673.799 264.261,678.359 271.614,678.359 C277.314,678.359 281.019,675.281 283.584,671.918 L288.771,677.96 L292.533,677.96 L285.408,669.638 z M271.728,675.794 C265.914,675.794 262.551,672.26 262.551,667.073 C262.551,661.829 266.427,658.922 270.816,656.756 L281.931,669.923 C279.48,673.286 276.231,675.794 271.728,675.794 z M268.137,645.869 C268.137,641.822 270.816,639.428 274.293,639.428 C277.77,639.428 279.936,641.822 279.936,645.128 C279.936,649.289 277.029,651.683 272.241,653.906 C269.676,650.828 268.137,648.548 268.137,645.869 z" fill="#FFFFFF"/>
    <path d="M313.794,677.96 L316.986,677.96 L316.986,660.518 L324.624,660.518 C332.547,660.518 338.475,657.269 338.475,648.89 L338.475,648.662 C338.475,640.397 332.49,637.205 324.567,637.205 L313.794,637.205 z M316.986,657.953 L316.986,639.827 L324.738,639.827 C331.122,639.827 335.283,642.05 335.283,648.662 L335.283,648.89 C335.283,655.16 331.407,657.953 324.852,657.953 z" fill="#FFFFFF"/>
    <path d="M355.803,678.416 C361.047,678.416 364.866,675.509 366.234,672.26 L366.234,677.96 L369.255,677.96 L369.255,648.149 L366.234,648.149 L366.234,666.275 C366.234,672.545 361.332,675.794 356.487,675.794 C351.3,675.794 348.336,673.172 348.336,666.845 L348.336,648.149 L345.315,648.149 L345.315,667.016 C345.315,675.224 349.647,678.416 355.803,678.416 z" fill="#FFFFFF"/>
    <path d="M392.967,678.416 C400.662,678.416 406.362,672.545 406.362,663.197 L406.362,662.741 C406.362,653.45 400.491,647.693 392.967,647.693 C387.723,647.693 383.334,651.227 381.624,655.103 L381.624,633.899 L378.603,633.899 L378.603,677.96 L381.624,677.96 L381.624,671.177 C383.22,674.825 387.096,678.416 392.967,678.416 z M392.739,675.851 C386.526,675.851 381.567,671.462 381.567,663.311 L381.567,662.855 C381.567,654.647 386.868,650.258 392.682,650.258 C398.382,650.258 403.227,654.647 403.227,662.855 L403.227,663.311 C403.227,671.291 399.009,675.851 392.739,675.851 z" fill="#FFFFFF"/>
    <path d="M413.601,677.96 L416.679,677.96 L416.679,633.899 L413.601,633.899 z" fill="#FFFFFF"/>
    <path d="M426.255,677.96 L429.276,677.96 L429.276,648.149 L426.255,648.149 z M427.737,641.765 C428.934,641.765 429.846,640.796 429.846,639.599 C429.846,638.459 428.934,637.49 427.737,637.49 C426.54,637.49 425.571,638.459 425.571,639.599 C425.571,640.796 426.54,641.765 427.737,641.765 z" fill="#FFFFFF"/>
    <path d="M450.765,678.416 C457.548,678.416 462.678,674.027 463.476,667.643 L460.683,667.643 C459.942,673.001 455.724,675.851 450.765,675.851 C444.495,675.851 439.65,671.234 439.65,663.368 L439.65,662.912 C439.65,655.046 444.552,650.258 450.765,650.258 C455.439,650.258 459.486,652.595 460.227,657.611 L463.191,657.611 C462.393,650.885 456.807,647.693 450.765,647.693 C442.899,647.693 436.515,653.792 436.515,662.912 L436.515,663.368 C436.515,672.431 442.728,678.416 450.765,678.416 z" fill="#FFFFFF"/>
    <path d="M485.079,677.96 L488.271,677.96 L488.271,658.865 L512.268,658.865 L512.268,677.96 L515.46,677.96 L515.46,637.205 L512.268,637.205 L512.268,656.186 L488.271,656.186 L488.271,637.205 L485.079,637.205 z" fill="#FFFFFF"/>
    <path d="M537.291,678.416 C543.675,678.416 548.406,675.338 549.66,669.638 L546.639,669.638 C545.613,673.799 542.25,675.851 537.291,675.851 C530.223,675.851 526.404,671.291 526.29,663.311 L549.888,663.311 L549.888,662.228 C549.888,652.367 544.017,647.693 536.835,647.693 C528.855,647.693 523.155,653.906 523.155,662.912 L523.155,663.368 C523.155,672.317 528.684,678.416 537.291,678.416 z M526.404,660.86 C526.974,654.362 531.078,650.258 536.835,650.258 C542.649,650.258 546.468,653.621 546.753,660.86 z" fill="#FFFFFF"/>
    <path d="M565.164,678.416 C570.18,678.416 573.372,676.307 575.253,673.4 L575.253,677.96 L578.274,677.96 L578.274,658.238 C578.274,650.657 574.056,647.693 567.843,647.693 C562.2,647.693 557.07,650.315 556.386,656.585 L559.35,656.585 C560.034,652.196 563.226,650.258 567.729,650.258 C572.973,650.258 575.253,652.652 575.253,658.238 L575.253,660.917 L569.04,660.917 C561.687,660.917 555.075,663.026 555.075,669.923 C555.075,675.566 559.293,678.416 565.164,678.416 z M565.392,675.965 C560.49,675.965 558.096,673.742 558.096,669.923 C558.096,664.565 562.941,663.254 569.154,663.254 L575.253,663.254 L575.253,668.327 C575.253,672.773 570.864,675.965 565.392,675.965 z" fill="#FFFFFF"/>
    <path d="M587.508,677.96 L590.586,677.96 L590.586,633.899 L587.508,633.899 z" fill="#FFFFFF"/>
    <path d="M608.484,678.359 C610.308,678.359 611.448,678.074 612.417,677.732 L612.417,675.167 C611.391,675.509 610.194,675.794 608.655,675.794 C605.919,675.794 604.209,674.141 604.209,670.55 L604.209,650.714 L612.018,650.714 L612.018,648.149 L604.209,648.149 L604.209,641.366 L601.188,641.366 L601.188,648.149 L596.799,648.149 L596.799,650.714 L601.188,650.714 L601.188,670.778 C601.188,675.566 603.753,678.359 608.484,678.359 z" fill="#FFFFFF"/>
    <path d="M619.314,677.96 L622.335,677.96 L622.335,659.891 C622.335,653.621 627.237,650.315 632.196,650.315 C637.497,650.315 640.461,653.108 640.461,659.435 L640.461,677.96 L643.482,677.96 L643.482,659.606 C643.482,651.113 639.207,647.693 632.88,647.693 C627.579,647.693 623.703,650.714 622.335,653.963 L622.335,633.899 L619.314,633.899 z" fill="#FFFFFF"/>
    <path d="M683.895,678.416 C692.673,678.416 699.342,673.628 700.824,664.85 L697.86,664.85 C696.549,671.861 691.305,675.737 683.952,675.737 C674.262,675.737 668.22,668.783 668.22,657.782 L668.22,657.326 C668.22,646.553 674.832,639.257 683.952,639.257 C691.476,639.257 695.922,642.905 697.176,649.46 L700.368,649.46 C699.114,641.081 692.331,636.692 683.895,636.692 C673.236,636.692 664.971,645.356 664.971,657.383 L664.971,657.839 C664.971,670.151 672.267,678.416 683.895,678.416 z" fill="#FFFFFF"/>
    <path d="M720.147,675.851 C713.649,675.851 708.861,670.949 708.861,663.311 L708.861,662.855 C708.861,655.103 713.763,650.258 720.147,650.258 C726.474,650.258 731.376,654.989 731.376,662.855 L731.376,663.311 C731.376,671.006 726.531,675.851 720.147,675.851 z M720.09,678.416 C728.127,678.416 734.511,672.26 734.511,663.254 L734.511,662.798 C734.511,653.735 728.184,647.693 720.147,647.693 C712.167,647.693 705.726,653.906 705.726,662.855 L705.726,663.311 C705.726,672.089 711.996,678.416 720.09,678.416 z" fill="#FFFFFF"/>
    <path d="M741.636,677.96 L744.657,677.96 L744.657,659.891 C744.657,653.621 749.559,650.315 754.518,650.315 C759.819,650.315 762.783,653.108 762.783,659.435 L762.783,677.96 L765.804,677.96 L765.804,659.606 C765.804,651.113 761.529,647.693 755.202,647.693 C749.901,647.693 746.025,650.714 744.657,653.963 L744.657,648.149 L741.636,648.149 z" fill="#FFFFFF"/>
    <path d="M783.816,678.473 C790.599,678.473 794.304,674.825 794.304,669.809 C794.304,663.995 790.656,662.456 784.272,661.316 C778.173,660.233 776.121,658.979 776.121,655.559 C776.121,652.367 778.914,650.258 783.075,650.258 C787.407,650.258 789.858,651.968 790.599,655.787 L793.506,655.787 C792.708,649.916 788.49,647.693 783.132,647.693 C778.116,647.693 773.328,650.6 773.328,655.673 C773.328,660.803 776.292,662.684 783.588,663.995 C789.174,665.021 791.397,666.218 791.397,670.037 C791.397,673.628 788.832,675.908 783.816,675.908 C778.287,675.908 775.779,673.115 775.266,669.068 L772.359,669.068 C772.758,674.768 776.805,678.473 783.816,678.473 z" fill="#FFFFFF"/>
    <path d="M811.575,678.416 C816.819,678.416 820.638,675.509 822.006,672.26 L822.006,677.96 L825.027,677.96 L825.027,648.149 L822.006,648.149 L822.006,666.275 C822.006,672.545 817.104,675.794 812.259,675.794 C807.072,675.794 804.108,673.172 804.108,666.845 L804.108,648.149 L801.087,648.149 L801.087,667.016 C801.087,675.224 805.419,678.416 811.575,678.416 z" fill="#FFFFFF"/>
    <path d="M834.489,677.96 L837.567,677.96 L837.567,633.899 L834.489,633.899 z" fill="#FFFFFF"/>
    <path d="M855.465,678.359 C857.289,678.359 858.429,678.074 859.398,677.732 L859.398,675.167 C858.372,675.509 857.175,675.794 855.636,675.794 C852.9,675.794 851.19,674.141 851.19,670.55 L851.19,650.714 L858.999,650.714 L858.999,648.149 L851.19,648.149 L851.19,641.366 L848.169,641.366 L848.169,648.149 L843.78,648.149 L843.78,650.714 L848.169,650.714 L848.169,670.778 C848.169,675.566 850.734,678.359 855.465,678.359 z" fill="#FFFFFF"/>
    <path d="M866.409,677.96 L869.43,677.96 L869.43,648.149 L866.409,648.149 z M867.891,641.765 C869.088,641.765 870,640.796 870,639.599 C870,638.459 869.088,637.49 867.891,637.49 C866.694,637.49 865.725,638.459 865.725,639.599 C865.725,640.796 866.694,641.765 867.891,641.765 z" fill="#FFFFFF"/>
    <path d="M878.892,677.96 L881.913,677.96 L881.913,659.891 C881.913,653.621 886.815,650.315 891.774,650.315 C897.075,650.315 900.039,653.108 900.039,659.435 L900.039,677.96 L903.06,677.96 L903.06,659.606 C903.06,651.113 898.785,647.693 892.458,647.693 C887.157,647.693 883.281,650.714 881.913,653.963 L881.913,648.149 L878.892,648.149 z" fill="#FFFFFF"/>
    <path d="M923.865,688.676 C931.845,688.676 937.602,684.743 937.659,675.965 L937.659,648.149 L934.638,648.149 L934.638,654.59 C932.928,650.942 929.622,647.693 923.751,647.693 C915.885,647.693 909.9,653.849 909.9,662.342 L909.9,662.741 C909.9,671.405 915.771,676.991 923.352,676.991 C928.881,676.991 933.042,673.343 934.638,669.752 L934.638,675.851 C934.638,683.204 930.192,686.111 923.808,686.111 C917.595,686.111 914.403,683.489 913.605,679.67 L910.527,679.67 C911.268,684.458 915.258,688.676 923.865,688.676 z M923.637,674.426 C917.709,674.426 913.035,670.094 913.035,662.684 L913.035,662.228 C913.035,654.818 917.652,650.258 924.036,650.258 C930.249,650.258 934.695,654.59 934.695,662.114 L934.695,662.57 C934.695,670.037 929.679,674.426 923.637,674.426 z" fill="#FFFFFF"/>
  </g>
  <g id="Black_text" display="none">
    <g>
      <path d="M506.43,83.964 C514.614,83.964 522.952,86.28 530.672,90.604 L810.306,247.174 C827.136,256.439 835.629,273.423 835.629,290.1 C835.629,306.93 827.136,323.606 810.306,332.871 L530.827,489.595 C523.106,494.073 514.614,496.081 506.43,496.081 C479.1,496.081 456.711,476.471 456.711,446.515 L456.711,133.684 C456.711,103.574 479.1,83.964 506.43,83.964 z" clip-path="url(#Clip_7)" filter="url(#Shadow_8)" fill="rgba(0,0,0,0.75)"/>
      <path d="M456.711,133.684 L456.711,446.515 C456.711,476.471 479.1,496.081 506.43,496.081 C514.614,496.081 523.106,494.073 530.827,489.595 L810.306,332.871 C827.136,323.606 835.629,306.93 835.629,290.1 C835.629,273.423 827.136,256.439 810.306,247.174 L530.672,90.604 C522.952,86.28 514.614,83.964 506.43,83.964 C479.1,83.964 456.711,103.574 456.711,133.684 z" fill="#F260B5"/>
    </g>
    <g>
      <path d="M371.958,83.964 C380.142,83.964 388.48,86.281 396.2,90.604 L675.834,247.174 C692.664,256.439 701.157,273.423 701.157,290.1 C701.157,306.93 692.664,323.606 675.834,332.871 L396.355,489.595 C388.634,494.073 380.142,496.081 371.958,496.081 C344.628,496.081 322.239,476.471 322.239,446.515 L322.239,133.684 C322.239,103.574 344.628,83.964 371.958,83.964 z" clip-path="url(#Clip_9)" filter="url(#Shadow_10)" fill="rgba(0,0,0,0.75)"/>
      <path d="M322.239,133.684 L322.239,446.515 C322.239,476.471 344.628,496.081 371.958,496.081 C380.142,496.081 388.634,494.073 396.355,489.595 L675.834,332.871 C692.664,323.606 701.157,306.93 701.157,290.1 C701.157,273.423 692.664,256.439 675.834,247.174 L396.2,90.604 C388.48,86.281 380.142,83.964 371.958,83.964 C344.628,83.964 322.239,103.574 322.239,133.684 z" fill="#CE389C"/>
    </g>
    <g>
      <path d="M238.695,83.964 C246.878,83.964 255.216,86.281 262.937,90.604 L542.57,247.174 C559.4,256.439 567.893,273.423 567.893,290.1 C567.893,306.93 559.4,323.606 542.57,332.871 L263.091,489.595 C255.371,494.073 246.878,496.081 238.695,496.081 C211.364,496.081 188.975,476.471 188.975,446.515 L188.975,133.684 C188.975,103.574 211.364,83.964 238.695,83.964 z" clip-path="url(#Clip_11)" filter="url(#Shadow_12)" fill="rgba(0,0,0,0.75)"/>
      <path d="M188.975,133.684 L188.975,446.515 C188.975,476.471 211.364,496.081 238.695,496.081 C246.878,496.081 255.371,494.073 263.091,489.595 L542.57,332.871 C559.4,323.606 567.893,306.93 567.893,290.1 C567.893,273.423 559.4,256.439 542.57,247.174 L262.937,90.604 C255.216,86.281 246.878,83.964 238.695,83.964 C211.364,83.964 188.975,103.574 188.975,133.684 z" fill="#682A77"/>
    </g>
    <path d="M120.002,614.936 C136.002,614.936 147.402,606.836 149.902,590.336 L141.802,590.336 C140.002,601.936 131.902,607.836 120.202,607.836 C104.802,607.836 95.602,596.836 95.602,578.636 L95.602,577.836 C95.602,559.836 105.502,548.336 120.302,548.336 C132.502,548.336 138.802,553.936 140.602,564.836 L149.202,564.836 C147.702,549.336 135.102,541.436 120.202,541.436 C100.802,541.436 86.602,556.736 86.602,577.936 L86.602,578.736 C86.602,600.736 99.302,614.936 120.002,614.936 z" fill="#000000"/>
    <path d="M184.302,608.036 C173.702,608.036 167.202,600.236 167.202,588.336 L167.202,587.536 C167.202,575.536 173.802,567.736 184.302,567.736 C194.702,567.736 201.402,575.536 201.402,587.636 L201.402,588.336 C201.402,600.136 194.802,608.036 184.302,608.036 z M184.202,614.936 C199.102,614.936 210.002,604.036 210.002,588.236 L210.002,587.436 C210.002,571.736 199.102,560.836 184.302,560.836 C169.502,560.836 158.602,571.836 158.602,587.536 L158.602,588.336 C158.602,603.636 169.302,614.936 184.202,614.936 z" fill="#000000"/>
    <path d="M223.102,614.036 L231.502,614.036 L231.502,536.736 L223.102,536.736 z" fill="#000000"/>
    <path d="M248.702,614.036 L257.102,614.036 L257.102,536.736 L248.702,536.736 z" fill="#000000"/>
    <path d="M295.502,614.936 C307.302,614.936 316.002,609.436 317.802,598.936 L309.502,598.936 C308.402,605.036 303.702,608.036 295.602,608.036 C284.902,608.036 279.202,601.436 278.802,589.536 L318.202,589.536 L318.202,586.836 C318.202,568.136 306.802,560.836 294.702,560.836 C280.302,560.836 270.202,571.836 270.202,587.636 L270.202,588.436 C270.202,604.536 280.702,614.936 295.502,614.936 z M279.102,582.836 C280.502,573.536 286.202,567.736 294.702,567.736 C303.302,567.736 308.902,572.036 309.702,582.836 z" fill="#000000"/>
    <path d="M352.602,614.936 C365.202,614.936 374.302,606.536 375.402,595.236 L367.702,595.236 C366.802,603.736 360.102,608.036 352.702,608.036 C342.602,608.036 335.602,601.236 335.602,588.436 L335.602,587.636 C335.602,575.336 342.902,567.736 352.402,567.736 C359.602,567.736 365.602,570.836 366.902,579.136 L375.102,579.136 C373.502,565.836 363.302,560.836 352.402,560.836 C338.402,560.836 327.002,571.636 327.002,587.636 L327.002,588.436 C327.002,604.636 338.002,614.936 352.602,614.936 z" fill="#000000"/>
    <path d="M403.802,614.736 C407.202,614.736 409.202,614.236 410.902,613.636 L410.902,606.636 C409.102,607.336 407.102,607.736 404.502,607.736 C400.302,607.736 398.002,605.236 398.002,600.136 L398.002,568.736 L410.202,568.736 L410.202,561.736 L398.002,561.736 L398.002,549.836 L389.702,549.836 L389.702,561.736 L382.202,561.736 L382.202,568.736 L389.702,568.736 L389.702,600.936 C389.702,609.136 394.302,614.736 403.802,614.736 z" fill="#000000"/>
    <path d="M423.602,614.036 L431.902,614.036 L431.902,561.736 L423.602,561.736 z M427.602,550.836 C430.602,550.836 433.102,548.336 433.102,545.336 C433.102,542.336 430.602,539.836 427.602,539.836 C424.602,539.836 422.102,542.336 422.102,545.336 C422.102,548.336 424.602,550.836 427.602,550.836 z" fill="#000000"/>
    <path d="M462.002,614.036 L472.602,614.036 L491.402,561.736 L482.802,561.736 L467.502,605.636 L452.002,561.736 L443.002,561.736 z" fill="#000000"/>
    <path d="M502.502,614.036 L510.802,614.036 L510.802,561.736 L502.502,561.736 z M506.502,550.836 C509.502,550.836 512.002,548.336 512.002,545.336 C512.002,542.336 509.502,539.836 506.502,539.836 C503.502,539.836 501.002,542.336 501.002,545.336 C501.002,548.336 503.502,550.836 506.502,550.836 z" fill="#000000"/>
    <path d="M521.502,614.036 L564.802,614.036 L564.802,606.736 L535.002,606.736 L565.202,563.236 L565.202,561.736 L524.502,561.736 L524.502,568.736 L552.402,568.736 L521.502,612.836 z" fill="#000000"/>
    <path d="M597.002,614.936 C608.802,614.936 617.502,609.436 619.302,598.936 L611.002,598.936 C609.902,605.036 605.202,608.036 597.102,608.036 C586.402,608.036 580.702,601.436 580.302,589.536 L619.702,589.536 L619.702,586.836 C619.702,568.136 608.302,560.836 596.202,560.836 C581.802,560.836 571.702,571.836 571.702,587.636 L571.702,588.436 C571.702,604.536 582.202,614.936 597.002,614.936 z M580.602,582.836 C582.002,573.536 587.702,567.736 596.202,567.736 C604.802,567.736 610.402,572.036 611.202,582.836 z" fill="#000000"/>
    <path d="M657.902,614.036 L663.502,614.036 L663.502,580.536 L705.602,580.536 L705.602,614.036 L711.202,614.036 L711.202,542.536 L705.602,542.536 L705.602,575.836 L663.502,575.836 L663.502,542.536 L657.902,542.536 z" fill="#000000"/>
    <path d="M749.502,614.836 C760.702,614.836 769.002,609.436 771.202,599.436 L765.902,599.436 C764.102,606.736 758.202,610.336 749.502,610.336 C737.102,610.336 730.402,602.336 730.202,588.336 L771.602,588.336 L771.602,586.436 C771.602,569.136 761.302,560.936 748.702,560.936 C734.702,560.936 724.702,571.836 724.702,587.636 L724.702,588.436 C724.702,604.136 734.402,614.836 749.502,614.836 z M730.402,584.036 C731.402,572.636 738.602,565.436 748.702,565.436 C758.902,565.436 765.602,571.336 766.102,584.036 z" fill="#000000"/>
    <path d="M798.402,614.836 C807.202,614.836 812.802,611.136 816.102,606.036 L816.102,614.036 L821.402,614.036 L821.402,579.436 C821.402,566.136 814.002,560.936 803.102,560.936 C793.202,560.936 784.202,565.536 783.002,576.536 L788.202,576.536 C789.402,568.836 795.002,565.436 802.902,565.436 C812.102,565.436 816.102,569.636 816.102,579.436 L816.102,584.136 L805.202,584.136 C792.302,584.136 780.702,587.836 780.702,599.936 C780.702,609.836 788.102,614.836 798.402,614.836 z M798.802,610.536 C790.202,610.536 786.002,606.636 786.002,599.936 C786.002,590.536 794.502,588.236 805.402,588.236 L816.102,588.236 L816.102,597.136 C816.102,604.936 808.402,610.536 798.802,610.536 z" fill="#000000"/>
    <path d="M837.602,614.036 L843.002,614.036 L843.002,536.736 L837.602,536.736 z" fill="#000000"/>
    <path d="M874.402,614.736 C877.602,614.736 879.602,614.236 881.302,613.636 L881.302,609.136 C879.502,609.736 877.402,610.236 874.702,610.236 C869.902,610.236 866.902,607.336 866.902,601.036 L866.902,566.236 L880.602,566.236 L880.602,561.736 L866.902,561.736 L866.902,549.836 L861.602,549.836 L861.602,561.736 L853.902,561.736 L853.902,566.236 L861.602,566.236 L861.602,601.436 C861.602,609.836 866.102,614.736 874.402,614.736 z" fill="#000000"/>
    <path d="M893.402,614.036 L898.702,614.036 L898.702,582.336 C898.702,571.336 907.302,565.536 916.002,565.536 C925.302,565.536 930.502,570.436 930.502,581.536 L930.502,614.036 L935.802,614.036 L935.802,581.836 C935.802,566.936 928.302,560.936 917.202,560.936 C907.902,560.936 901.102,566.236 898.702,571.936 L898.702,536.736 L893.402,536.736 z" fill="#000000"/>
    <path d="M89.499,675.338 L89.499,639.827 L96.624,639.827 C108.594,639.827 113.895,647.18 113.895,657.212 L113.895,657.668 C113.895,668.042 108.252,675.338 96.681,675.338 z M86.307,677.96 L96.795,677.96 C110.703,677.96 117.201,669.011 117.201,657.725 L117.201,657.212 C117.201,645.869 110.361,637.205 96.909,637.205 L86.307,637.205 z" fill="#000000"/>
    <path d="M124.953,677.96 L127.974,677.96 L127.974,648.149 L124.953,648.149 z M126.435,641.765 C127.632,641.765 128.544,640.796 128.544,639.599 C128.544,638.459 127.632,637.49 126.435,637.49 C125.238,637.49 124.269,638.459 124.269,639.599 C124.269,640.796 125.238,641.765 126.435,641.765 z" fill="#000000"/>
    <path d="M149.178,688.676 C157.158,688.676 162.915,684.743 162.972,675.965 L162.972,648.149 L159.951,648.149 L159.951,654.59 C158.241,650.942 154.935,647.693 149.064,647.693 C141.198,647.693 135.213,653.849 135.213,662.342 L135.213,662.741 C135.213,671.405 141.084,676.991 148.665,676.991 C154.194,676.991 158.355,673.343 159.951,669.752 L159.951,675.851 C159.951,683.204 155.505,686.111 149.121,686.111 C142.908,686.111 139.716,683.489 138.918,679.67 L135.84,679.67 C136.581,684.458 140.571,688.676 149.178,688.676 z M148.95,674.426 C143.022,674.426 138.348,670.094 138.348,662.684 L138.348,662.228 C138.348,654.818 142.965,650.258 149.349,650.258 C155.562,650.258 160.008,654.59 160.008,662.114 L160.008,662.57 C160.008,670.037 154.992,674.426 148.95,674.426 z" fill="#000000"/>
    <path d="M172.434,677.96 L175.455,677.96 L175.455,648.149 L172.434,648.149 z M173.916,641.765 C175.113,641.765 176.025,640.796 176.025,639.599 C176.025,638.459 175.113,637.49 173.916,637.49 C172.719,637.49 171.75,638.459 171.75,639.599 C171.75,640.796 172.719,641.765 173.916,641.765 z" fill="#000000"/>
    <path d="M193.353,678.359 C195.177,678.359 196.317,678.074 197.286,677.732 L197.286,675.167 C196.26,675.509 195.063,675.794 193.524,675.794 C190.788,675.794 189.078,674.141 189.078,670.55 L189.078,650.714 L196.887,650.714 L196.887,648.149 L189.078,648.149 L189.078,641.366 L186.057,641.366 L186.057,648.149 L181.668,648.149 L181.668,650.714 L186.057,650.714 L186.057,670.778 C186.057,675.566 188.622,678.359 193.353,678.359 z" fill="#000000"/>
    <path d="M212.391,678.416 C217.407,678.416 220.599,676.307 222.48,673.4 L222.48,677.96 L225.501,677.96 L225.501,658.238 C225.501,650.657 221.283,647.693 215.07,647.693 C209.427,647.693 204.297,650.315 203.613,656.585 L206.577,656.585 C207.261,652.196 210.453,650.258 214.956,650.258 C220.2,650.258 222.48,652.652 222.48,658.238 L222.48,660.917 L216.267,660.917 C208.914,660.917 202.302,663.026 202.302,669.923 C202.302,675.566 206.52,678.416 212.391,678.416 z M212.619,675.965 C207.717,675.965 205.323,673.742 205.323,669.923 C205.323,664.565 210.168,663.254 216.381,663.254 L222.48,663.254 L222.48,668.327 C222.48,672.773 218.091,675.965 212.619,675.965 z" fill="#000000"/>
    <path d="M234.735,677.96 L237.813,677.96 L237.813,633.899 L234.735,633.899 z" fill="#000000"/>
    <path d="M292.077,657.326 L289.17,657.326 L283.698,667.472 L273.609,655.616 C278.91,653.279 282.843,650.087 282.843,645.185 C282.843,640.568 279.366,636.977 274.407,636.977 C269.448,636.977 265.173,640.397 265.173,645.869 C265.173,649.004 266.655,651.683 269.334,654.989 C264.147,657.554 259.473,660.974 259.473,667.358 C259.473,673.799 264.261,678.359 271.614,678.359 C277.314,678.359 281.019,675.281 283.584,671.918 L288.771,677.96 L292.533,677.96 L285.408,669.638 z M271.728,675.794 C265.914,675.794 262.551,672.26 262.551,667.073 C262.551,661.829 266.427,658.922 270.816,656.756 L281.931,669.923 C279.48,673.286 276.231,675.794 271.728,675.794 z M268.137,645.869 C268.137,641.822 270.816,639.428 274.293,639.428 C277.77,639.428 279.936,641.822 279.936,645.128 C279.936,649.289 277.029,651.683 272.241,653.906 C269.676,650.828 268.137,648.548 268.137,645.869 z" fill="#000000"/>
    <path d="M313.794,677.96 L316.986,677.96 L316.986,660.518 L324.624,660.518 C332.547,660.518 338.475,657.269 338.475,648.89 L338.475,648.662 C338.475,640.397 332.49,637.205 324.567,637.205 L313.794,637.205 z M316.986,657.953 L316.986,639.827 L324.738,639.827 C331.122,639.827 335.283,642.05 335.283,648.662 L335.283,648.89 C335.283,655.16 331.407,657.953 324.852,657.953 z" fill="#000000"/>
    <path d="M355.803,678.416 C361.047,678.416 364.866,675.509 366.234,672.26 L366.234,677.96 L369.255,677.96 L369.255,648.149 L366.234,648.149 L366.234,666.275 C366.234,672.545 361.332,675.794 356.487,675.794 C351.3,675.794 348.336,673.172 348.336,666.845 L348.336,648.149 L345.315,648.149 L345.315,667.016 C345.315,675.224 349.647,678.416 355.803,678.416 z" fill="#000000"/>
    <path d="M392.967,678.416 C400.662,678.416 406.362,672.545 406.362,663.197 L406.362,662.741 C406.362,653.45 400.491,647.693 392.967,647.693 C387.723,647.693 383.334,651.227 381.624,655.103 L381.624,633.899 L378.603,633.899 L378.603,677.96 L381.624,677.96 L381.624,671.177 C383.22,674.825 387.096,678.416 392.967,678.416 z M392.739,675.851 C386.526,675.851 381.567,671.462 381.567,663.311 L381.567,662.855 C381.567,654.647 386.868,650.258 392.682,650.258 C398.382,650.258 403.227,654.647 403.227,662.855 L403.227,663.311 C403.227,671.291 399.009,675.851 392.739,675.851 z" fill="#000000"/>
    <path d="M413.601,677.96 L416.679,677.96 L416.679,633.899 L413.601,633.899 z" fill="#000000"/>
    <path d="M426.255,677.96 L429.276,677.96 L429.276,648.149 L426.255,648.149 z M427.737,641.765 C428.934,641.765 429.846,640.796 429.846,639.599 C429.846,638.459 428.934,637.49 427.737,637.49 C426.54,637.49 425.571,638.459 425.571,639.599 C425.571,640.796 426.54,641.765 427.737,641.765 z" fill="#000000"/>
    <path d="M450.765,678.416 C457.548,678.416 462.678,674.027 463.476,667.643 L460.683,667.643 C459.942,673.001 455.724,675.851 450.765,675.851 C444.495,675.851 439.65,671.234 439.65,663.368 L439.65,662.912 C439.65,655.046 444.552,650.258 450.765,650.258 C455.439,650.258 459.486,652.595 460.227,657.611 L463.191,657.611 C462.393,650.885 456.807,647.693 450.765,647.693 C442.899,647.693 436.515,653.792 436.515,662.912 L436.515,663.368 C436.515,672.431 442.728,678.416 450.765,678.416 z" fill="#000000"/>
    <path d="M485.079,677.96 L488.271,677.96 L488.271,658.865 L512.268,658.865 L512.268,677.96 L515.46,677.96 L515.46,637.205 L512.268,637.205 L512.268,656.186 L488.271,656.186 L488.271,637.205 L485.079,637.205 z" fill="#000000"/>
    <path d="M537.291,678.416 C543.675,678.416 548.406,675.338 549.66,669.638 L546.639,669.638 C545.613,673.799 542.25,675.851 537.291,675.851 C530.223,675.851 526.404,671.291 526.29,663.311 L549.888,663.311 L549.888,662.228 C549.888,652.367 544.017,647.693 536.835,647.693 C528.855,647.693 523.155,653.906 523.155,662.912 L523.155,663.368 C523.155,672.317 528.684,678.416 537.291,678.416 z M526.404,660.86 C526.974,654.362 531.078,650.258 536.835,650.258 C542.649,650.258 546.468,653.621 546.753,660.86 z" fill="#000000"/>
    <path d="M565.164,678.416 C570.18,678.416 573.372,676.307 575.253,673.4 L575.253,677.96 L578.274,677.96 L578.274,658.238 C578.274,650.657 574.056,647.693 567.843,647.693 C562.2,647.693 557.07,650.315 556.386,656.585 L559.35,656.585 C560.034,652.196 563.226,650.258 567.729,650.258 C572.973,650.258 575.253,652.652 575.253,658.238 L575.253,660.917 L569.04,660.917 C561.687,660.917 555.075,663.026 555.075,669.923 C555.075,675.566 559.293,678.416 565.164,678.416 z M565.392,675.965 C560.49,675.965 558.096,673.742 558.096,669.923 C558.096,664.565 562.941,663.254 569.154,663.254 L575.253,663.254 L575.253,668.327 C575.253,672.773 570.864,675.965 565.392,675.965 z" fill="#000000"/>
    <path d="M587.508,677.96 L590.586,677.96 L590.586,633.899 L587.508,633.899 z" fill="#000000"/>
    <path d="M608.484,678.359 C610.308,678.359 611.448,678.074 612.417,677.732 L612.417,675.167 C611.391,675.509 610.194,675.794 608.655,675.794 C605.919,675.794 604.209,674.141 604.209,670.55 L604.209,650.714 L612.018,650.714 L612.018,648.149 L604.209,648.149 L604.209,641.366 L601.188,641.366 L601.188,648.149 L596.799,648.149 L596.799,650.714 L601.188,650.714 L601.188,670.778 C601.188,675.566 603.753,678.359 608.484,678.359 z" fill="#000000"/>
    <path d="M619.314,677.96 L622.335,677.96 L622.335,659.891 C622.335,653.621 627.237,650.315 632.196,650.315 C637.497,650.315 640.461,653.108 640.461,659.435 L640.461,677.96 L643.482,677.96 L643.482,659.606 C643.482,651.113 639.207,647.693 632.88,647.693 C627.579,647.693 623.703,650.714 622.335,653.963 L622.335,633.899 L619.314,633.899 z" fill="#000000"/>
    <path d="M683.895,678.416 C692.673,678.416 699.342,673.628 700.824,664.85 L697.86,664.85 C696.549,671.861 691.305,675.737 683.952,675.737 C674.262,675.737 668.22,668.783 668.22,657.782 L668.22,657.326 C668.22,646.553 674.832,639.257 683.952,639.257 C691.476,639.257 695.922,642.905 697.176,649.46 L700.368,649.46 C699.114,641.081 692.331,636.692 683.895,636.692 C673.236,636.692 664.971,645.356 664.971,657.383 L664.971,657.839 C664.971,670.151 672.267,678.416 683.895,678.416 z" fill="#000000"/>
    <path d="M720.147,675.851 C713.649,675.851 708.861,670.949 708.861,663.311 L708.861,662.855 C708.861,655.103 713.763,650.258 720.147,650.258 C726.474,650.258 731.376,654.989 731.376,662.855 L731.376,663.311 C731.376,671.006 726.531,675.851 720.147,675.851 z M720.09,678.416 C728.127,678.416 734.511,672.26 734.511,663.254 L734.511,662.798 C734.511,653.735 728.184,647.693 720.147,647.693 C712.167,647.693 705.726,653.906 705.726,662.855 L705.726,663.311 C705.726,672.089 711.996,678.416 720.09,678.416 z" fill="#000000"/>
    <path d="M741.636,677.96 L744.657,677.96 L744.657,659.891 C744.657,653.621 749.559,650.315 754.518,650.315 C759.819,650.315 762.783,653.108 762.783,659.435 L762.783,677.96 L765.804,677.96 L765.804,659.606 C765.804,651.113 761.529,647.693 755.202,647.693 C749.901,647.693 746.025,650.714 744.657,653.963 L744.657,648.149 L741.636,648.149 z" fill="#000000"/>
    <path d="M783.816,678.473 C790.599,678.473 794.304,674.825 794.304,669.809 C794.304,663.995 790.656,662.456 784.272,661.316 C778.173,660.233 776.121,658.979 776.121,655.559 C776.121,652.367 778.914,650.258 783.075,650.258 C787.407,650.258 789.858,651.968 790.599,655.787 L793.506,655.787 C792.708,649.916 788.49,647.693 783.132,647.693 C778.116,647.693 773.328,650.6 773.328,655.673 C773.328,660.803 776.292,662.684 783.588,663.995 C789.174,665.021 791.397,666.218 791.397,670.037 C791.397,673.628 788.832,675.908 783.816,675.908 C778.287,675.908 775.779,673.115 775.266,669.068 L772.359,669.068 C772.758,674.768 776.805,678.473 783.816,678.473 z" fill="#000000"/>
    <path d="M811.575,678.416 C816.819,678.416 820.638,675.509 822.006,672.26 L822.006,677.96 L825.027,677.96 L825.027,648.149 L822.006,648.149 L822.006,666.275 C822.006,672.545 817.104,675.794 812.259,675.794 C807.072,675.794 804.108,673.172 804.108,666.845 L804.108,648.149 L801.087,648.149 L801.087,667.016 C801.087,675.224 805.419,678.416 811.575,678.416 z" fill="#000000"/>
    <path d="M834.489,677.96 L837.567,677.96 L837.567,633.899 L834.489,633.899 z" fill="#000000"/>
    <path d="M855.465,678.359 C857.289,678.359 858.429,678.074 859.398,677.732 L859.398,675.167 C858.372,675.509 857.175,675.794 855.636,675.794 C852.9,675.794 851.19,674.141 851.19,670.55 L851.19,650.714 L858.999,650.714 L858.999,648.149 L851.19,648.149 L851.19,641.366 L848.169,641.366 L848.169,648.149 L843.78,648.149 L843.78,650.714 L848.169,650.714 L848.169,670.778 C848.169,675.566 850.734,678.359 855.465,678.359 z" fill="#000000"/>
    <path d="M866.409,677.96 L869.43,677.96 L869.43,648.149 L866.409,648.149 z M867.891,641.765 C869.088,641.765 870,640.796 870,639.599 C870,638.459 869.088,637.49 867.891,637.49 C866.694,637.49 865.725,638.459 865.725,639.599 C865.725,640.796 866.694,641.765 867.891,641.765 z" fill="#000000"/>
    <path d="M878.892,677.96 L881.913,677.96 L881.913,659.891 C881.913,653.621 886.815,650.315 891.774,650.315 C897.075,650.315 900.039,653.108 900.039,659.435 L900.039,677.96 L903.06,677.96 L903.06,659.606 C903.06,651.113 898.785,647.693 892.458,647.693 C887.157,647.693 883.281,650.714 881.913,653.963 L881.913,648.149 L878.892,648.149 z" fill="#000000"/>
    <path d="M923.865,688.676 C931.845,688.676 937.602,684.743 937.659,675.965 L937.659,648.149 L934.638,648.149 L934.638,654.59 C932.928,650.942 929.622,647.693 923.751,647.693 C915.885,647.693 909.9,653.849 909.9,662.342 L909.9,662.741 C909.9,671.405 915.771,676.991 923.352,676.991 C928.881,676.991 933.042,673.343 934.638,669.752 L934.638,675.851 C934.638,683.204 930.192,686.111 923.808,686.111 C917.595,686.111 914.403,683.489 913.605,679.67 L910.527,679.67 C911.268,684.458 915.258,688.676 923.865,688.676 z M923.637,674.426 C917.709,674.426 913.035,670.094 913.035,662.684 L913.035,662.228 C913.035,654.818 917.652,650.258 924.036,650.258 C930.249,650.258 934.695,654.59 934.695,662.114 L934.695,662.57 C934.695,670.037 929.679,674.426 923.637,674.426 z" fill="#000000"/>
  </g>
  <g id="Grey_text" display="none">
    <g>
      <path d="M506.43,83.964 C514.614,83.964 522.952,86.28 530.672,90.604 L810.306,247.174 C827.136,256.439 835.629,273.423 835.629,290.1 C835.629,306.93 827.136,323.606 810.306,332.871 L530.827,489.595 C523.106,494.073 514.614,496.081 506.43,496.081 C479.1,496.081 456.711,476.471 456.711,446.515 L456.711,133.684 C456.711,103.574 479.1,83.964 506.43,83.964 z" clip-path="url(#Clip_13)" filter="url(#Shadow_14)" fill="rgba(0,0,0,0.75)"/>
      <path d="M456.711,133.684 L456.711,446.515 C456.711,476.471 479.1,496.081 506.43,496.081 C514.614,496.081 523.106,494.073 530.827,489.595 L810.306,332.871 C827.136,323.606 835.629,306.93 835.629,290.1 C835.629,273.423 827.136,256.439 810.306,247.174 L530.672,90.604 C522.952,86.28 514.614,83.964 506.43,83.964 C479.1,83.964 456.711,103.574 456.711,133.684 z" fill="#F260B5"/>
    </g>
    <g>
      <path d="M371.958,83.964 C380.142,83.964 388.48,86.281 396.2,90.604 L675.834,247.174 C692.664,256.439 701.157,273.423 701.157,290.1 C701.157,306.93 692.664,323.606 675.834,332.871 L396.355,489.595 C388.634,494.073 380.142,496.081 371.958,496.081 C344.628,496.081 322.239,476.471 322.239,446.515 L322.239,133.684 C322.239,103.574 344.628,83.964 371.958,83.964 z" clip-path="url(#Clip_15)" filter="url(#Shadow_16)" fill="rgba(0,0,0,0.75)"/>
      <path d="M322.239,133.684 L322.239,446.515 C322.239,476.471 344.628,496.081 371.958,496.081 C380.142,496.081 388.634,494.073 396.355,489.595 L675.834,332.871 C692.664,323.606 701.157,306.93 701.157,290.1 C701.157,273.423 692.664,256.439 675.834,247.174 L396.2,90.604 C388.48,86.281 380.142,83.964 371.958,83.964 C344.628,83.964 322.239,103.574 322.239,133.684 z" fill="#CE389C"/>
    </g>
    <g>
      <path d="M238.695,83.964 C246.878,83.964 255.216,86.281 262.937,90.604 L542.57,247.174 C559.4,256.439 567.893,273.423 567.893,290.1 C567.893,306.93 559.4,323.606 542.57,332.871 L263.091,489.595 C255.371,494.073 246.878,496.081 238.695,496.081 C211.364,496.081 188.975,476.471 188.975,446.515 L188.975,133.684 C188.975,103.574 211.364,83.964 238.695,83.964 z" clip-path="url(#Clip_17)" filter="url(#Shadow_18)" fill="rgba(0,0,0,0.75)"/>
      <path d="M188.975,133.684 L188.975,446.515 C188.975,476.471 211.364,496.081 238.695,496.081 C246.878,496.081 255.371,494.073 263.091,489.595 L542.57,332.871 C559.4,323.606 567.893,306.93 567.893,290.1 C567.893,273.423 559.4,256.439 542.57,247.174 L262.937,90.604 C255.216,86.281 246.878,83.964 238.695,83.964 C211.364,83.964 188.975,103.574 188.975,133.684 z" fill="#682A77"/>
    </g>
    <path d="M120.002,614.936 C136.002,614.936 147.402,606.836 149.902,590.336 L141.802,590.336 C140.002,601.936 131.902,607.836 120.202,607.836 C104.802,607.836 95.602,596.836 95.602,578.636 L95.602,577.836 C95.602,559.836 105.502,548.336 120.302,548.336 C132.502,548.336 138.802,553.936 140.602,564.836 L149.202,564.836 C147.702,549.336 135.102,541.436 120.202,541.436 C100.802,541.436 86.602,556.736 86.602,577.936 L86.602,578.736 C86.602,600.736 99.302,614.936 120.002,614.936 z" fill="#535353"/>
    <path d="M184.302,608.036 C173.702,608.036 167.202,600.236 167.202,588.336 L167.202,587.536 C167.202,575.536 173.802,567.736 184.302,567.736 C194.702,567.736 201.402,575.536 201.402,587.636 L201.402,588.336 C201.402,600.136 194.802,608.036 184.302,608.036 z M184.202,614.936 C199.102,614.936 210.002,604.036 210.002,588.236 L210.002,587.436 C210.002,571.736 199.102,560.836 184.302,560.836 C169.502,560.836 158.602,571.836 158.602,587.536 L158.602,588.336 C158.602,603.636 169.302,614.936 184.202,614.936 z" fill="#535353"/>
    <path d="M223.102,614.036 L231.502,614.036 L231.502,536.736 L223.102,536.736 z" fill="#535353"/>
    <path d="M248.702,614.036 L257.102,614.036 L257.102,536.736 L248.702,536.736 z" fill="#535353"/>
    <path d="M295.502,614.936 C307.302,614.936 316.002,609.436 317.802,598.936 L309.502,598.936 C308.402,605.036 303.702,608.036 295.602,608.036 C284.902,608.036 279.202,601.436 278.802,589.536 L318.202,589.536 L318.202,586.836 C318.202,568.136 306.802,560.836 294.702,560.836 C280.302,560.836 270.202,571.836 270.202,587.636 L270.202,588.436 C270.202,604.536 280.702,614.936 295.502,614.936 z M279.102,582.836 C280.502,573.536 286.202,567.736 294.702,567.736 C303.302,567.736 308.902,572.036 309.702,582.836 z" fill="#535353"/>
    <path d="M352.602,614.936 C365.202,614.936 374.302,606.536 375.402,595.236 L367.702,595.236 C366.802,603.736 360.102,608.036 352.702,608.036 C342.602,608.036 335.602,601.236 335.602,588.436 L335.602,587.636 C335.602,575.336 342.902,567.736 352.402,567.736 C359.602,567.736 365.602,570.836 366.902,579.136 L375.102,579.136 C373.502,565.836 363.302,560.836 352.402,560.836 C338.402,560.836 327.002,571.636 327.002,587.636 L327.002,588.436 C327.002,604.636 338.002,614.936 352.602,614.936 z" fill="#535353"/>
    <path d="M403.802,614.736 C407.202,614.736 409.202,614.236 410.902,613.636 L410.902,606.636 C409.102,607.336 407.102,607.736 404.502,607.736 C400.302,607.736 398.002,605.236 398.002,600.136 L398.002,568.736 L410.202,568.736 L410.202,561.736 L398.002,561.736 L398.002,549.836 L389.702,549.836 L389.702,561.736 L382.202,561.736 L382.202,568.736 L389.702,568.736 L389.702,600.936 C389.702,609.136 394.302,614.736 403.802,614.736 z" fill="#535353"/>
    <path d="M423.602,614.036 L431.902,614.036 L431.902,561.736 L423.602,561.736 z M427.602,550.836 C430.602,550.836 433.102,548.336 433.102,545.336 C433.102,542.336 430.602,539.836 427.602,539.836 C424.602,539.836 422.102,542.336 422.102,545.336 C422.102,548.336 424.602,550.836 427.602,550.836 z" fill="#535353"/>
    <path d="M462.002,614.036 L472.602,614.036 L491.402,561.736 L482.802,561.736 L467.502,605.636 L452.002,561.736 L443.002,561.736 z" fill="#535353"/>
    <path d="M502.502,614.036 L510.802,614.036 L510.802,561.736 L502.502,561.736 z M506.502,550.836 C509.502,550.836 512.002,548.336 512.002,545.336 C512.002,542.336 509.502,539.836 506.502,539.836 C503.502,539.836 501.002,542.336 501.002,545.336 C501.002,548.336 503.502,550.836 506.502,550.836 z" fill="#535353"/>
    <path d="M521.502,614.036 L564.802,614.036 L564.802,606.736 L535.002,606.736 L565.202,563.236 L565.202,561.736 L524.502,561.736 L524.502,568.736 L552.402,568.736 L521.502,612.836 z" fill="#535353"/>
    <path d="M597.002,614.936 C608.802,614.936 617.502,609.436 619.302,598.936 L611.002,598.936 C609.902,605.036 605.202,608.036 597.102,608.036 C586.402,608.036 580.702,601.436 580.302,589.536 L619.702,589.536 L619.702,586.836 C619.702,568.136 608.302,560.836 596.202,560.836 C581.802,560.836 571.702,571.836 571.702,587.636 L571.702,588.436 C571.702,604.536 582.202,614.936 597.002,614.936 z M580.602,582.836 C582.002,573.536 587.702,567.736 596.202,567.736 C604.802,567.736 610.402,572.036 611.202,582.836 z" fill="#535353"/>
    <path d="M657.902,614.036 L663.502,614.036 L663.502,580.536 L705.602,580.536 L705.602,614.036 L711.202,614.036 L711.202,542.536 L705.602,542.536 L705.602,575.836 L663.502,575.836 L663.502,542.536 L657.902,542.536 z" fill="#535353"/>
    <path d="M749.502,614.836 C760.702,614.836 769.002,609.436 771.202,599.436 L765.902,599.436 C764.102,606.736 758.202,610.336 749.502,610.336 C737.102,610.336 730.402,602.336 730.202,588.336 L771.602,588.336 L771.602,586.436 C771.602,569.136 761.302,560.936 748.702,560.936 C734.702,560.936 724.702,571.836 724.702,587.636 L724.702,588.436 C724.702,604.136 734.402,614.836 749.502,614.836 z M730.402,584.036 C731.402,572.636 738.602,565.436 748.702,565.436 C758.902,565.436 765.602,571.336 766.102,584.036 z" fill="#535353"/>
    <path d="M798.402,614.836 C807.202,614.836 812.802,611.136 816.102,606.036 L816.102,614.036 L821.402,614.036 L821.402,579.436 C821.402,566.136 814.002,560.936 803.102,560.936 C793.202,560.936 784.202,565.536 783.002,576.536 L788.202,576.536 C789.402,568.836 795.002,565.436 802.902,565.436 C812.102,565.436 816.102,569.636 816.102,579.436 L816.102,584.136 L805.202,584.136 C792.302,584.136 780.702,587.836 780.702,599.936 C780.702,609.836 788.102,614.836 798.402,614.836 z M798.802,610.536 C790.202,610.536 786.002,606.636 786.002,599.936 C786.002,590.536 794.502,588.236 805.402,588.236 L816.102,588.236 L816.102,597.136 C816.102,604.936 808.402,610.536 798.802,610.536 z" fill="#535353"/>
    <path d="M837.602,614.036 L843.002,614.036 L843.002,536.736 L837.602,536.736 z" fill="#535353"/>
    <path d="M874.402,614.736 C877.602,614.736 879.602,614.236 881.302,613.636 L881.302,609.136 C879.502,609.736 877.402,610.236 874.702,610.236 C869.902,610.236 866.902,607.336 866.902,601.036 L866.902,566.236 L880.602,566.236 L880.602,561.736 L866.902,561.736 L866.902,549.836 L861.602,549.836 L861.602,561.736 L853.902,561.736 L853.902,566.236 L861.602,566.236 L861.602,601.436 C861.602,609.836 866.102,614.736 874.402,614.736 z" fill="#535353"/>
    <path d="M893.402,614.036 L898.702,614.036 L898.702,582.336 C898.702,571.336 907.302,565.536 916.002,565.536 C925.302,565.536 930.502,570.436 930.502,581.536 L930.502,614.036 L935.802,614.036 L935.802,581.836 C935.802,566.936 928.302,560.936 917.202,560.936 C907.902,560.936 901.102,566.236 898.702,571.936 L898.702,536.736 L893.402,536.736 z" fill="#535353"/>
    <path d="M89.499,675.338 L89.499,639.827 L96.624,639.827 C108.594,639.827 113.895,647.18 113.895,657.212 L113.895,657.668 C113.895,668.042 108.252,675.338 96.681,675.338 z M86.307,677.96 L96.795,677.96 C110.703,677.96 117.201,669.011 117.201,657.725 L117.201,657.212 C117.201,645.869 110.361,637.205 96.909,637.205 L86.307,637.205 z" fill="#929292"/>
    <path d="M124.953,677.96 L127.974,677.96 L127.974,648.149 L124.953,648.149 z M126.435,641.765 C127.632,641.765 128.544,640.796 128.544,639.599 C128.544,638.459 127.632,637.49 126.435,637.49 C125.238,637.49 124.269,638.459 124.269,639.599 C124.269,640.796 125.238,641.765 126.435,641.765 z" fill="#929292"/>
    <path d="M149.178,688.676 C157.158,688.676 162.915,684.743 162.972,675.965 L162.972,648.149 L159.951,648.149 L159.951,654.59 C158.241,650.942 154.935,647.693 149.064,647.693 C141.198,647.693 135.213,653.849 135.213,662.342 L135.213,662.741 C135.213,671.405 141.084,676.991 148.665,676.991 C154.194,676.991 158.355,673.343 159.951,669.752 L159.951,675.851 C159.951,683.204 155.505,686.111 149.121,686.111 C142.908,686.111 139.716,683.489 138.918,679.67 L135.84,679.67 C136.581,684.458 140.571,688.676 149.178,688.676 z M148.95,674.426 C143.022,674.426 138.348,670.094 138.348,662.684 L138.348,662.228 C138.348,654.818 142.965,650.258 149.349,650.258 C155.562,650.258 160.008,654.59 160.008,662.114 L160.008,662.57 C160.008,670.037 154.992,674.426 148.95,674.426 z" fill="#929292"/>
    <path d="M172.434,677.96 L175.455,677.96 L175.455,648.149 L172.434,648.149 z M173.916,641.765 C175.113,641.765 176.025,640.796 176.025,639.599 C176.025,638.459 175.113,637.49 173.916,637.49 C172.719,637.49 171.75,638.459 171.75,639.599 C171.75,640.796 172.719,641.765 173.916,641.765 z" fill="#929292"/>
    <path d="M193.353,678.359 C195.177,678.359 196.317,678.074 197.286,677.732 L197.286,675.167 C196.26,675.509 195.063,675.794 193.524,675.794 C190.788,675.794 189.078,674.141 189.078,670.55 L189.078,650.714 L196.887,650.714 L196.887,648.149 L189.078,648.149 L189.078,641.366 L186.057,641.366 L186.057,648.149 L181.668,648.149 L181.668,650.714 L186.057,650.714 L186.057,670.778 C186.057,675.566 188.622,678.359 193.353,678.359 z" fill="#929292"/>
    <path d="M212.391,678.416 C217.407,678.416 220.599,676.307 222.48,673.4 L222.48,677.96 L225.501,677.96 L225.501,658.238 C225.501,650.657 221.283,647.693 215.07,647.693 C209.427,647.693 204.297,650.315 203.613,656.585 L206.577,656.585 C207.261,652.196 210.453,650.258 214.956,650.258 C220.2,650.258 222.48,652.652 222.48,658.238 L222.48,660.917 L216.267,660.917 C208.914,660.917 202.302,663.026 202.302,669.923 C202.302,675.566 206.52,678.416 212.391,678.416 z M212.619,675.965 C207.717,675.965 205.323,673.742 205.323,669.923 C205.323,664.565 210.168,663.254 216.381,663.254 L222.48,663.254 L222.48,668.327 C222.48,672.773 218.091,675.965 212.619,675.965 z" fill="#929292"/>
    <path d="M234.735,677.96 L237.813,677.96 L237.813,633.899 L234.735,633.899 z" fill="#929292"/>
    <path d="M292.077,657.326 L289.17,657.326 L283.698,667.472 L273.609,655.616 C278.91,653.279 282.843,650.087 282.843,645.185 C282.843,640.568 279.366,636.977 274.407,636.977 C269.448,636.977 265.173,640.397 265.173,645.869 C265.173,649.004 266.655,651.683 269.334,654.989 C264.147,657.554 259.473,660.974 259.473,667.358 C259.473,673.799 264.261,678.359 271.614,678.359 C277.314,678.359 281.019,675.281 283.584,671.918 L288.771,677.96 L292.533,677.96 L285.408,669.638 z M271.728,675.794 C265.914,675.794 262.551,672.26 262.551,667.073 C262.551,661.829 266.427,658.922 270.816,656.756 L281.931,669.923 C279.48,673.286 276.231,675.794 271.728,675.794 z M268.137,645.869 C268.137,641.822 270.816,639.428 274.293,639.428 C277.77,639.428 279.936,641.822 279.936,645.128 C279.936,649.289 277.029,651.683 272.241,653.906 C269.676,650.828 268.137,648.548 268.137,645.869 z" fill="#929292"/>
    <path d="M313.794,677.96 L316.986,677.96 L316.986,660.518 L324.624,660.518 C332.547,660.518 338.475,657.269 338.475,648.89 L338.475,648.662 C338.475,640.397 332.49,637.205 324.567,637.205 L313.794,637.205 z M316.986,657.953 L316.986,639.827 L324.738,639.827 C331.122,639.827 335.283,642.05 335.283,648.662 L335.283,648.89 C335.283,655.16 331.407,657.953 324.852,657.953 z" fill="#929292"/>
    <path d="M355.803,678.416 C361.047,678.416 364.866,675.509 366.234,672.26 L366.234,677.96 L369.255,677.96 L369.255,648.149 L366.234,648.149 L366.234,666.275 C366.234,672.545 361.332,675.794 356.487,675.794 C351.3,675.794 348.336,673.172 348.336,666.845 L348.336,648.149 L345.315,648.149 L345.315,667.016 C345.315,675.224 349.647,678.416 355.803,678.416 z" fill="#929292"/>
    <path d="M392.967,678.416 C400.662,678.416 406.362,672.545 406.362,663.197 L406.362,662.741 C406.362,653.45 400.491,647.693 392.967,647.693 C387.723,647.693 383.334,651.227 381.624,655.103 L381.624,633.899 L378.603,633.899 L378.603,677.96 L381.624,677.96 L381.624,671.177 C383.22,674.825 387.096,678.416 392.967,678.416 z M392.739,675.851 C386.526,675.851 381.567,671.462 381.567,663.311 L381.567,662.855 C381.567,654.647 386.868,650.258 392.682,650.258 C398.382,650.258 403.227,654.647 403.227,662.855 L403.227,663.311 C403.227,671.291 399.009,675.851 392.739,675.851 z" fill="#929292"/>
    <path d="M413.601,677.96 L416.679,677.96 L416.679,633.899 L413.601,633.899 z" fill="#929292"/>
    <path d="M426.255,677.96 L429.276,677.96 L429.276,648.149 L426.255,648.149 z M427.737,641.765 C428.934,641.765 429.846,640.796 429.846,639.599 C429.846,638.459 428.934,637.49 427.737,637.49 C426.54,637.49 425.571,638.459 425.571,639.599 C425.571,640.796 426.54,641.765 427.737,641.765 z" fill="#929292"/>
    <path d="M450.765,678.416 C457.548,678.416 462.678,674.027 463.476,667.643 L460.683,667.643 C459.942,673.001 455.724,675.851 450.765,675.851 C444.495,675.851 439.65,671.234 439.65,663.368 L439.65,662.912 C439.65,655.046 444.552,650.258 450.765,650.258 C455.439,650.258 459.486,652.595 460.227,657.611 L463.191,657.611 C462.393,650.885 456.807,647.693 450.765,647.693 C442.899,647.693 436.515,653.792 436.515,662.912 L436.515,663.368 C436.515,672.431 442.728,678.416 450.765,678.416 z" fill="#929292"/>
    <path d="M485.079,677.96 L488.271,677.96 L488.271,658.865 L512.268,658.865 L512.268,677.96 L515.46,677.96 L515.46,637.205 L512.268,637.205 L512.268,656.186 L488.271,656.186 L488.271,637.205 L485.079,637.205 z" fill="#929292"/>
    <path d="M537.291,678.416 C543.675,678.416 548.406,675.338 549.66,669.638 L546.639,669.638 C545.613,673.799 542.25,675.851 537.291,675.851 C530.223,675.851 526.404,671.291 526.29,663.311 L549.888,663.311 L549.888,662.228 C549.888,652.367 544.017,647.693 536.835,647.693 C528.855,647.693 523.155,653.906 523.155,662.912 L523.155,663.368 C523.155,672.317 528.684,678.416 537.291,678.416 z M526.404,660.86 C526.974,654.362 531.078,650.258 536.835,650.258 C542.649,650.258 546.468,653.621 546.753,660.86 z" fill="#929292"/>
    <path d="M565.164,678.416 C570.18,678.416 573.372,676.307 575.253,673.4 L575.253,677.96 L578.274,677.96 L578.274,658.238 C578.274,650.657 574.056,647.693 567.843,647.693 C562.2,647.693 557.07,650.315 556.386,656.585 L559.35,656.585 C560.034,652.196 563.226,650.258 567.729,650.258 C572.973,650.258 575.253,652.652 575.253,658.238 L575.253,660.917 L569.04,660.917 C561.687,660.917 555.075,663.026 555.075,669.923 C555.075,675.566 559.293,678.416 565.164,678.416 z M565.392,675.965 C560.49,675.965 558.096,673.742 558.096,669.923 C558.096,664.565 562.941,663.254 569.154,663.254 L575.253,663.254 L575.253,668.327 C575.253,672.773 570.864,675.965 565.392,675.965 z" fill="#929292"/>
    <path d="M587.508,677.96 L590.586,677.96 L590.586,633.899 L587.508,633.899 z" fill="#929292"/>
    <path d="M608.484,678.359 C610.308,678.359 611.448,678.074 612.417,677.732 L612.417,675.167 C611.391,675.509 610.194,675.794 608.655,675.794 C605.919,675.794 604.209,674.141 604.209,670.55 L604.209,650.714 L612.018,650.714 L612.018,648.149 L604.209,648.149 L604.209,641.366 L601.188,641.366 L601.188,648.149 L596.799,648.149 L596.799,650.714 L601.188,650.714 L601.188,670.778 C601.188,675.566 603.753,678.359 608.484,678.359 z" fill="#929292"/>
    <path d="M619.314,677.96 L622.335,677.96 L622.335,659.891 C622.335,653.621 627.237,650.315 632.196,650.315 C637.497,650.315 640.461,653.108 640.461,659.435 L640.461,677.96 L643.482,677.96 L643.482,659.606 C643.482,651.113 639.207,647.693 632.88,647.693 C627.579,647.693 623.703,650.714 622.335,653.963 L622.335,633.899 L619.314,633.899 z" fill="#929292"/>
    <path d="M683.895,678.416 C692.673,678.416 699.342,673.628 700.824,664.85 L697.86,664.85 C696.549,671.861 691.305,675.737 683.952,675.737 C674.262,675.737 668.22,668.783 668.22,657.782 L668.22,657.326 C668.22,646.553 674.832,639.257 683.952,639.257 C691.476,639.257 695.922,642.905 697.176,649.46 L700.368,649.46 C699.114,641.081 692.331,636.692 683.895,636.692 C673.236,636.692 664.971,645.356 664.971,657.383 L664.971,657.839 C664.971,670.151 672.267,678.416 683.895,678.416 z" fill="#929292"/>
    <path d="M720.147,675.851 C713.649,675.851 708.861,670.949 708.861,663.311 L708.861,662.855 C708.861,655.103 713.763,650.258 720.147,650.258 C726.474,650.258 731.376,654.989 731.376,662.855 L731.376,663.311 C731.376,671.006 726.531,675.851 720.147,675.851 z M720.09,678.416 C728.127,678.416 734.511,672.26 734.511,663.254 L734.511,662.798 C734.511,653.735 728.184,647.693 720.147,647.693 C712.167,647.693 705.726,653.906 705.726,662.855 L705.726,663.311 C705.726,672.089 711.996,678.416 720.09,678.416 z" fill="#929292"/>
    <path d="M741.636,677.96 L744.657,677.96 L744.657,659.891 C744.657,653.621 749.559,650.315 754.518,650.315 C759.819,650.315 762.783,653.108 762.783,659.435 L762.783,677.96 L765.804,677.96 L765.804,659.606 C765.804,651.113 761.529,647.693 755.202,647.693 C749.901,647.693 746.025,650.714 744.657,653.963 L744.657,648.149 L741.636,648.149 z" fill="#929292"/>
    <path d="M783.816,678.473 C790.599,678.473 794.304,674.825 794.304,669.809 C794.304,663.995 790.656,662.456 784.272,661.316 C778.173,660.233 776.121,658.979 776.121,655.559 C776.121,652.367 778.914,650.258 783.075,650.258 C787.407,650.258 789.858,651.968 790.599,655.787 L793.506,655.787 C792.708,649.916 788.49,647.693 783.132,647.693 C778.116,647.693 773.328,650.6 773.328,655.673 C773.328,660.803 776.292,662.684 783.588,663.995 C789.174,665.021 791.397,666.218 791.397,670.037 C791.397,673.628 788.832,675.908 783.816,675.908 C778.287,675.908 775.779,673.115 775.266,669.068 L772.359,669.068 C772.758,674.768 776.805,678.473 783.816,678.473 z" fill="#929292"/>
    <path d="M811.575,678.416 C816.819,678.416 820.638,675.509 822.006,672.26 L822.006,677.96 L825.027,677.96 L825.027,648.149 L822.006,648.149 L822.006,666.275 C822.006,672.545 817.104,675.794 812.259,675.794 C807.072,675.794 804.108,673.172 804.108,666.845 L804.108,648.149 L801.087,648.149 L801.087,667.016 C801.087,675.224 805.419,678.416 811.575,678.416 z" fill="#929292"/>
    <path d="M834.489,677.96 L837.567,677.96 L837.567,633.899 L834.489,633.899 z" fill="#929292"/>
    <path d="M855.465,678.359 C857.289,678.359 858.429,678.074 859.398,677.732 L859.398,675.167 C858.372,675.509 857.175,675.794 855.636,675.794 C852.9,675.794 851.19,674.141 851.19,670.55 L851.19,650.714 L858.999,650.714 L858.999,648.149 L851.19,648.149 L851.19,641.366 L848.169,641.366 L848.169,648.149 L843.78,648.149 L843.78,650.714 L848.169,650.714 L848.169,670.778 C848.169,675.566 850.734,678.359 855.465,678.359 z" fill="#929292"/>
    <path d="M866.409,677.96 L869.43,677.96 L869.43,648.149 L866.409,648.149 z M867.891,641.765 C869.088,641.765 870,640.796 870,639.599 C870,638.459 869.088,637.49 867.891,637.49 C866.694,637.49 865.725,638.459 865.725,639.599 C865.725,640.796 866.694,641.765 867.891,641.765 z" fill="#929292"/>
    <path d="M878.892,677.96 L881.913,677.96 L881.913,659.891 C881.913,653.621 886.815,650.315 891.774,650.315 C897.075,650.315 900.039,653.108 900.039,659.435 L900.039,677.96 L903.06,677.96 L903.06,659.606 C903.06,651.113 898.785,647.693 892.458,647.693 C887.157,647.693 883.281,650.714 881.913,653.963 L881.913,648.149 L878.892,648.149 z" fill="#929292"/>
    <path d="M923.865,688.676 C931.845,688.676 937.602,684.743 937.659,675.965 L937.659,648.149 L934.638,648.149 L934.638,654.59 C932.928,650.942 929.622,647.693 923.751,647.693 C915.885,647.693 909.9,653.849 909.9,662.342 L909.9,662.741 C909.9,671.405 915.771,676.991 923.352,676.991 C928.881,676.991 933.042,673.343 934.638,669.752 L934.638,675.851 C934.638,683.204 930.192,686.111 923.808,686.111 C917.595,686.111 914.403,683.489 913.605,679.67 L910.527,679.67 C911.268,684.458 915.258,688.676 923.865,688.676 z M923.637,674.426 C917.709,674.426 913.035,670.094 913.035,662.684 L913.035,662.228 C913.035,654.818 917.652,650.258 924.036,650.258 C930.249,650.258 934.695,654.59 934.695,662.114 L934.695,662.57 C934.695,670.037 929.679,674.426 923.637,674.426 z" fill="#929292"/>
  </g>
</svg>
