<?xml version="1.0" encoding="UTF-8"?>
<!DOCTYPE svg PUBLIC "-//W3C//DTD SVG 1.1//EN" "http://www.w3.org/Graphics/SVG/1.1/DTD/svg11.dtd">
<svg version="1.1" xmlns="http://www.w3.org/2000/svg" xmlns:xlink="http://www.w3.org/1999/xlink" x="0" y="0" width="2048" height="1536" viewBox="0, 0, 1024, 768">
  <defs>
    <clipPath id="Clip_1">
      <path d="M450.711,75.964 L841.629,75.964 L841.629,504.081 L450.711,504.081 z M506.43,83.964 C479.1,83.964 456.711,103.574 456.711,133.684 L456.711,446.515 C456.711,476.471 479.1,496.081 506.43,496.081 C514.614,496.081 523.106,494.073 530.827,489.595 L810.306,332.871 C827.136,323.606 835.629,306.93 835.629,290.1 C835.629,273.423 827.136,256.439 810.306,247.174 L530.672,90.604 C522.952,86.28 514.614,83.964 506.43,83.964 z"/>
    </clipPath>
    <filter id="Shadow_2">
      <feGaussianBlur in="SourceAlpha" stdDeviation="2.5"/>
      <feOffset dx="0" dy="2" result="offsetblur"/>
      <feFlood flood-color="#000000"/>
      <feComposite in2="offsetblur" operator="in"/>
    </filter>
    <clipPath id="Clip_3">
      <path d="M316.239,75.964 L707.157,75.964 L707.157,504.081 L316.239,504.081 z M371.958,83.964 C344.628,83.964 322.239,103.574 322.239,133.684 L322.239,446.515 C322.239,476.471 344.628,496.081 371.958,496.081 C380.142,496.081 388.634,494.073 396.355,489.595 L675.834,332.871 C692.664,323.606 701.157,306.93 701.157,290.1 C701.157,273.423 692.664,256.439 675.834,247.174 L396.2,90.604 C388.48,86.281 380.142,83.964 371.958,83.964 z"/>
    </clipPath>
    <filter id="Shadow_4">
      <feGaussianBlur in="SourceAlpha" stdDeviation="2.5"/>
      <feOffset dx="0" dy="2" result="offsetblur"/>
      <feFlood flood-color="#000000"/>
      <feComposite in2="offsetblur" operator="in"/>
    </filter>
    <clipPath id="Clip_5">
      <path d="M182.975,75.964 L573.893,75.964 L573.893,504.081 L182.975,504.081 z M238.695,83.964 C211.364,83.964 188.975,103.574 188.975,133.684 L188.975,446.515 C188.975,476.471 211.364,496.081 238.695,496.081 C246.878,496.081 255.371,494.073 263.091,489.595 L542.57,332.871 C559.4,323.606 567.893,306.93 567.893,290.1 C567.893,273.423 559.4,256.439 542.57,247.174 L262.937,90.604 C255.216,86.281 246.878,83.964 238.695,83.964 z"/>
    </clipPath>
    <filter id="Shadow_6">
      <feGaussianBlur in="SourceAlpha" stdDeviation="2.5"/>
      <feOffset dx="0" dy="2" result="offsetblur"/>
      <feFlood flood-color="#000000"/>
      <feComposite in2="offsetblur" operator="in"/>
    </filter>
  </defs>
  <g id="Layer_1">
    <g>
      <path d="M506.43,83.964 C514.614,83.964 522.952,86.28 530.672,90.604 L810.306,247.174 C827.136,256.439 835.629,273.423 835.629,290.1 C835.629,306.93 827.136,323.606 810.306,332.871 L530.827,489.595 C523.106,494.073 514.614,496.081 506.43,496.081 C479.1,496.081 456.711,476.471 456.711,446.515 L456.711,133.684 C456.711,103.574 479.1,83.964 506.43,83.964 z" clip-path="url(#Clip_1)" filter="url(#Shadow_2)" fill="rgba(0,0,0,0.75)"/>
      <path d="M456.711,133.684 L456.711,446.515 C456.711,476.471 479.1,496.081 506.43,496.081 C514.614,496.081 523.106,494.073 530.827,489.595 L810.306,332.871 C827.136,323.606 835.629,306.93 835.629,290.1 C835.629,273.423 827.136,256.439 810.306,247.174 L530.672,90.604 C522.952,86.28 514.614,83.964 506.43,83.964 C479.1,83.964 456.711,103.574 456.711,133.684 z" fill="#F260B5"/>
    </g>
    <g>
      <path d="M371.958,83.964 C380.142,83.964 388.48,86.281 396.2,90.604 L675.834,247.174 C692.664,256.439 701.157,273.423 701.157,290.1 C701.157,306.93 692.664,323.606 675.834,332.871 L396.355,489.595 C388.634,494.073 380.142,496.081 371.958,496.081 C344.628,496.081 322.239,476.471 322.239,446.515 L322.239,133.684 C322.239,103.574 344.628,83.964 371.958,83.964 z" clip-path="url(#Clip_3)" filter="url(#Shadow_4)" fill="rgba(0,0,0,0.75)"/>
      <path d="M322.239,133.684 L322.239,446.515 C322.239,476.471 344.628,496.081 371.958,496.081 C380.142,496.081 388.634,494.073 396.355,489.595 L675.834,332.871 C692.664,323.606 701.157,306.93 701.157,290.1 C701.157,273.423 692.664,256.439 675.834,247.174 L396.2,90.604 C388.48,86.281 380.142,83.964 371.958,83.964 C344.628,83.964 322.239,103.574 322.239,133.684 z" fill="#CE389C"/>
    </g>
    <g>
      <path d="M238.695,83.964 C246.878,83.964 255.216,86.281 262.937,90.604 L542.57,247.174 C559.4,256.439 567.893,273.423 567.893,290.1 C567.893,306.93 559.4,323.606 542.57,332.871 L263.091,489.595 C255.371,494.073 246.878,496.081 238.695,496.081 C211.364,496.081 188.975,476.471 188.975,446.515 L188.975,133.684 C188.975,103.574 211.364,83.964 238.695,83.964 z" clip-path="url(#Clip_5)" filter="url(#Shadow_6)" fill="rgba(0,0,0,0.75)"/>
      <path d="M188.975,133.684 L188.975,446.515 C188.975,476.471 211.364,496.081 238.695,496.081 C246.878,496.081 255.371,494.073 263.091,489.595 L542.57,332.871 C559.4,323.606 567.893,306.93 567.893,290.1 C567.893,273.423 559.4,256.439 542.57,247.174 L262.937,90.604 C255.216,86.281 246.878,83.964 238.695,83.964 C211.364,83.964 188.975,103.574 188.975,133.684 z" fill="#682A77"/>
    </g>
    <text transform="matrix(1, 0, 0, 1, 512.302, 577.036)">
      <tspan x="-431.2" y="37" font-family="Graphik-Regular" font-size="100" fill="#535353">Collectivize</tspan>
      <tspan x="111.7" y="37" font-family="Graphik-Light" font-size="100" fill="#535353"> Health</tspan>
    </text>
    <text transform="matrix(1, 0, 0, 1, 511.698, 649.536)">
      <tspan x="-430.635" y="28.424" font-family="Graphik-Light" font-size="57" fill="#929292">Digital &amp; Public Health Consulting</tspan>
    </text>
  </g>
</svg>
