<?xml version="1.0" encoding="UTF-8"?>
<!DOCTYPE svg PUBLIC "-//W3C//DTD SVG 1.1//EN" "http://www.w3.org/Graphics/SVG/1.1/DTD/svg11.dtd">
<svg version="1.1" xmlns="http://www.w3.org/2000/svg" xmlns:xlink="http://www.w3.org/1999/xlink" x="0" y="0" width="2048" height="1536" viewBox="0, 0, 1024, 768">
  <defs>
    <clipPath id="Clip_1">
      <path d="M435.279,113.859 L929.327,113.859 L929.327,654.141 L435.279,654.141 z M504.53,121.859 C469.761,121.859 441.279,146.806 441.279,185.111 L441.279,583.085 C441.279,621.195 469.761,646.141 504.53,646.141 C514.941,646.141 525.745,643.586 535.567,637.89 L891.112,438.51 C912.523,426.724 923.327,405.509 923.327,384.098 C923.327,362.883 912.523,341.275 891.112,329.49 L535.37,130.305 C525.549,124.805 514.941,121.859 504.53,121.859 z"/>
    </clipPath>
    <filter id="Shadow_2">
      <feGaussianBlur in="SourceAlpha" stdDeviation="2.5"/>
      <feOffset dx="0" dy="2" result="offsetblur"/>
      <feFlood flood-color="#000000"/>
      <feComposite in2="offsetblur" operator="in"/>
    </filter>
    <clipPath id="Clip_3">
      <path d="M264.207,113.859 L758.255,113.859 L758.255,654.141 L264.207,654.141 z M333.459,121.859 C298.69,121.859 270.207,146.806 270.207,185.111 L270.207,583.085 C270.207,621.195 298.69,646.141 333.459,646.141 C343.87,646.141 354.674,643.586 364.495,637.89 L720.04,438.51 C741.451,426.724 752.256,405.509 752.255,384.098 C752.256,362.883 741.451,341.275 720.04,329.49 L364.299,130.305 C354.477,124.805 343.87,121.859 333.459,121.859 z"/>
    </clipPath>
    <filter id="Shadow_4">
      <feGaussianBlur in="SourceAlpha" stdDeviation="2.5"/>
      <feOffset dx="0" dy="2" result="offsetblur"/>
      <feFlood flood-color="#000000"/>
      <feComposite in2="offsetblur" operator="in"/>
    </filter>
    <clipPath id="Clip_5">
      <path d="M94.673,113.859 L588.721,113.859 L588.721,654.141 L94.673,654.141 z M163.924,121.859 C129.156,121.859 100.673,146.806 100.673,185.111 L100.673,583.085 C100.673,621.195 129.156,646.141 163.924,646.141 C174.336,646.141 185.139,643.586 194.961,637.89 L550.506,438.51 C571.917,426.724 582.721,405.509 582.721,384.098 C582.721,362.883 571.917,341.275 550.506,329.49 L194.765,130.306 C184.943,124.805 174.336,121.859 163.924,121.859 z"/>
    </clipPath>
    <filter id="Shadow_6">
      <feGaussianBlur in="SourceAlpha" stdDeviation="2.5"/>
      <feOffset dx="0" dy="2" result="offsetblur"/>
      <feFlood flood-color="#000000"/>
      <feComposite in2="offsetblur" operator="in"/>
    </filter>
  </defs>
  <g id="Layer_1">
    <g>
      <path d="M504.53,121.859 C514.941,121.859 525.549,124.805 535.37,130.305 L891.112,329.49 C912.523,341.275 923.327,362.883 923.327,384.098 C923.327,405.509 912.523,426.724 891.112,438.51 L535.567,637.89 C525.745,643.586 514.941,646.141 504.53,646.141 C469.761,646.141 441.279,621.195 441.279,583.085 L441.279,185.111 C441.279,146.806 469.761,121.859 504.53,121.859 z" clip-path="url(#Clip_1)" filter="url(#Shadow_2)" fill="rgba(0,0,0,0.75)"/>
      <path d="M441.279,185.111 L441.279,583.085 C441.279,621.195 469.761,646.141 504.53,646.141 C514.941,646.141 525.745,643.586 535.567,637.89 L891.112,438.51 C912.523,426.724 923.327,405.509 923.327,384.098 C923.327,362.883 912.523,341.275 891.112,329.49 L535.37,130.306 C525.549,124.805 514.941,121.859 504.53,121.859 C469.761,121.859 441.279,146.806 441.279,185.111 z" fill="#F260B5"/>
    </g>
    <g>
      <path d="M333.459,121.859 C343.87,121.859 354.477,124.805 364.299,130.305 L720.04,329.49 C741.451,341.275 752.256,362.883 752.255,384.098 C752.256,405.509 741.451,426.724 720.04,438.51 L364.495,637.89 C354.674,643.586 343.87,646.141 333.459,646.141 C298.69,646.141 270.207,621.195 270.207,583.085 L270.207,185.111 C270.207,146.806 298.69,121.859 333.459,121.859 z" clip-path="url(#Clip_3)" filter="url(#Shadow_4)" fill="rgba(0,0,0,0.75)"/>
      <path d="M270.207,185.111 L270.207,583.085 C270.207,621.195 298.69,646.141 333.459,646.141 C343.87,646.141 354.674,643.586 364.495,637.89 L720.04,438.51 C741.451,426.724 752.256,405.509 752.256,384.098 C752.256,362.883 741.451,341.275 720.04,329.49 L364.299,130.306 C354.477,124.805 343.87,121.859 333.459,121.859 C298.69,121.859 270.207,146.806 270.207,185.111 z" fill="#CE389C"/>
    </g>
    <g>
      <path d="M163.924,121.859 C174.336,121.859 184.943,124.805 194.765,130.306 L550.506,329.49 C571.917,341.275 582.721,362.883 582.721,384.098 C582.721,405.509 571.917,426.724 550.506,438.51 L194.961,637.89 C185.139,643.586 174.336,646.141 163.924,646.141 C129.156,646.141 100.673,621.195 100.673,583.085 L100.673,185.111 C100.673,146.806 129.156,121.859 163.924,121.859 z" clip-path="url(#Clip_5)" filter="url(#Shadow_6)" fill="rgba(0,0,0,0.75)"/>
      <path d="M100.673,185.111 L100.673,583.085 C100.673,621.195 129.156,646.141 163.925,646.141 C174.336,646.141 185.139,643.586 194.961,637.89 L550.506,438.51 C571.917,426.724 582.721,405.509 582.721,384.098 C582.721,362.883 571.917,341.275 550.506,329.49 L194.765,130.306 C184.943,124.805 174.336,121.859 163.925,121.859 C129.156,121.859 100.673,146.806 100.673,185.111 z" fill="#682A77"/>
    </g>
  </g>
</svg>
